<?xml version="1.0" encoding="UTF-8" standalone="no"?>
<!-- Created with Inkscape (http://www.inkscape.org/) -->

<svg
   width="198.82672mm"
   height="76.653282mm"
   viewBox="0 0 198.82672 76.653282"
   version="1.1"
   id="svg949"
   inkscape:version="1.1.1 (c3084ef, 2021-09-22)"
   sodipodi:docname="DiRAC.svg"
   xmlns:inkscape="http://www.inkscape.org/namespaces/inkscape"
   xmlns:sodipodi="http://sodipodi.sourceforge.net/DTD/sodipodi-0.dtd"
   xmlns="http://www.w3.org/2000/svg"
   xmlns:svg="http://www.w3.org/2000/svg">
  <sodipodi:namedview
     id="namedview951"
     pagecolor="#ffffff"
     bordercolor="#666666"
     borderopacity="1.0"
     inkscape:pageshadow="2"
     inkscape:pageopacity="0.0"
     inkscape:pagecheckerboard="0"
     inkscape:document-units="mm"
     showgrid="false"
     inkscape:zoom="1.91358"
     inkscape:cx="375.73553"
     inkscape:cy="145.27744"
     inkscape:window-width="2256"
     inkscape:window-height="1188"
     inkscape:window-x="0"
     inkscape:window-y="25"
     inkscape:window-maximized="0"
     inkscape:current-layer="layer1" />
  <defs
     id="defs946" />
  <g
     inkscape:label="Layer 1"
     inkscape:groupmode="layer"
     id="layer1"
     transform="translate(-14.237562,-111.01218)">
    <path
       style="fill:#be0000;fill-opacity:1;stroke-width:0.138043"
       d="m 190.29842,187.5866 c -4.83951,-0.47133 -9.24808,-2.41146 -11.77281,-5.18102 -3.00413,-3.29543 -4.79917,-7.83142 -5.70781,-14.42339 -0.31114,-2.25722 -0.31339,-2.38974 -0.31339,-18.49363 0,-12.31711 0.0426,-16.58549 0.1771,-17.73858 0.68685,-5.889 2.0483,-10.17758 4.28169,-13.48733 1.96102,-2.90611 4.66076,-4.88009 8.37336,-6.12241 4.45789,-1.4917 10.79116,-1.50528 15.39774,-0.033 3.48628,1.11421 6.13131,3.06306 8.04312,5.9261 2.55245,3.82245 3.85934,8.74143 4.18524,15.75278 l 0.0947,2.03614 h -5.40227 -5.40226 l -1.1e-4,-2.38125 c 0,-6.01617 -0.7627,-9.14025 -2.76351,-11.32376 -1.48937,-1.6254 -3.36159,-2.30118 -6.38759,-2.30564 -2.07526,-0.003 -3.45025,0.27179 -4.90613,0.98068 -2.32787,1.13348 -3.67701,3.03193 -4.36644,6.14421 -0.69875,3.15438 -0.69524,3.04255 -0.69524,22.20696 0,17.88951 10e-4,17.95083 0.30339,19.60217 0.69824,3.81239 1.6853,6.13956 3.28254,7.73915 1.79344,1.79611 3.77368,2.49233 6.74379,2.37104 2.01912,-0.0825 2.95974,-0.37147 4.44741,-1.36648 1.68828,-1.12919 2.71744,-2.73987 3.42779,-5.36467 0.6695,-2.47384 0.80217,-3.68 0.87661,-7.96898 l 0.0701,-4.03778 h 5.38942 5.38942 l -0.0885,3.34756 c -0.13778,5.2078 -0.64012,8.65441 -1.74748,11.98978 -2.33484,7.03258 -6.81221,10.84636 -14.01155,11.93488 -1.71112,0.25872 -5.24778,0.35915 -6.91819,0.19647 z M 14.237562,149.35052 v -37.54783 l 9.766576,0.001 c 7.555978,10e-4 10.192674,0.0467 11.649106,0.20128 3.529973,0.37465 6.109546,1.04926 8.470731,2.21526 4.861008,2.40046 7.367758,7.07619 8.065654,15.04448 0.200034,2.28391 0.1996,35.33002 -5.52e-4,37.71287 -0.356138,4.2411 -1.223922,7.77452 -2.605238,10.60793 -2.695388,5.52891 -6.98959,8.23197 -14.467292,9.10668 -1.396028,0.16331 -3.727856,0.20568 -11.318628,0.20568 h -9.560357 z m 21.027407,29.15465 c 1.547013,-0.42613 2.340035,-0.91167 3.457834,-2.11712 1.839445,-1.98367 2.231266,-2.93824 2.658923,-6.47778 0.239377,-1.98122 0.257467,-3.43058 0.257467,-20.62877 0,-19.84453 -0.02326,-20.61759 -0.695603,-23.12229 -0.50114,-1.8669 -0.903238,-2.65281 -1.875067,-3.66487 -2.101631,-2.18863 -4.001195,-2.68364 -10.301885,-2.68457 l -3.761685,-5.6e-4 v 29.55261 29.55261 l 4.589946,-0.0559 c 4.170615,-0.0508 4.688625,-0.0831 5.67007,-0.35339 z m 26.493711,-18.42177 0.03486,-26.81495 5.349184,-0.0361 5.349185,-0.0361 v 26.85108 26.85108 h -5.384045 -5.384043 z m 21.500622,-10.74324 v -37.55819 l 9.14538,0.0565 c 8.607118,0.0532 9.259128,0.0745 11.077988,0.362 2.47362,0.39099 4.48992,0.88209 6.14294,1.49622 6.35908,2.36249 9.62255,6.37307 10.79204,13.26269 0.39946,2.35327 0.43406,7.05021 0.0692,9.38794 -0.97471,6.24451 -3.53446,10.31921 -7.79403,12.40683 -1.13707,0.55728 -1.27079,0.66108 -1.18864,0.92273 0.0509,0.16215 2.71544,8.46354 5.92118,18.44754 3.20574,9.98399 5.87241,18.29248 5.92593,18.46331 l 0.0973,0.3106 h -5.29442 -5.29442 l -4.88504,-15.77147 c -2.68677,-8.67431 -5.12517,-16.53337 -5.41868,-17.46458 l -0.53364,-1.6931 -4.032345,0.0366 -4.032344,0.0366 -0.03504,17.42799 -0.03504,17.42799 h -5.314144 -5.314142 z m 16.568838,-5.51677 c 2.58143,-0.31653 4.98846,-1.18895 6.55344,-2.37527 2.75186,-2.086 4.02169,-5.97802 3.63984,-11.15606 -0.23932,-3.2453 -1.1103,-5.43613 -2.84929,-7.16697 -2.37596,-2.36482 -5.46841,-3.31588 -10.781904,-3.31588 h -2.501577 v 12.07881 12.0788 h 2.384871 c 1.31168,0 2.911259,-0.0645 3.55462,-0.14343 z m 25.28702,42.83502 c 0.0339,-0.13377 3.65599,-17.03103 8.04896,-37.54947 l 7.98722,-37.30625 h 5.35516 5.35515 l 0.0718,0.3106 c 0.21777,0.94198 15.84213,73.96192 15.90605,74.33642 l 0.0766,0.44864 h -5.33274 c -2.933,0 -5.33273,-0.0225 -5.33273,-0.05 0,-0.0532 -3.81158,-17.88709 -3.93543,-18.41329 l -0.0731,-0.31059 h -6.7374 -6.73739 l -2.00286,9.35244 -2.00286,9.35245 -5.35408,0.0361 c -5.05429,0.0341 -5.35062,0.0225 -5.29234,-0.20707 z m 26.74322,-26.78207 c -0.0317,-0.89722 -5.35045,-31.93031 -5.42388,-31.64647 -0.0491,0.18981 -1.23915,7.27144 -2.64453,15.73695 -1.40539,8.46552 -2.59061,15.56268 -2.63382,15.77147 l -0.0786,0.37962 h 5.39467 c 5.04899,0 5.39411,-0.0155 5.38613,-0.24157 z M 61.816548,125.10088 c -0.05062,-0.0506 -0.09203,-2.47328 -0.09203,-5.3837 v -5.29166 h 5.383696 5.383695 v 5.38369 5.3837 h -5.291666 c -2.910418,0 -5.333081,-0.0414 -5.383696,-0.092 z"
       id="path1257" />
  </g>
</svg>
