<?xml version="1.0" encoding="UTF-8" standalone="no"?>
<!-- Created with Inkscape (http://www.inkscape.org/) -->

<svg
   width="229.89116mm"
   height="61.270447mm"
   viewBox="0 0 229.89116 61.270447"
   version="1.1"
   id="svg1"
   xml:space="preserve"
   inkscape:version="1.3 (0e150ed, 2023-07-21)"
   sodipodi:docname="epsrc logo.svg"
   xmlns:inkscape="http://www.inkscape.org/namespaces/inkscape"
   xmlns:sodipodi="http://sodipodi.sourceforge.net/DTD/sodipodi-0.dtd"
   xmlns="http://www.w3.org/2000/svg"
   xmlns:svg="http://www.w3.org/2000/svg"><sodipodi:namedview
     id="namedview1"
     pagecolor="#ffffff"
     bordercolor="#000000"
     borderopacity="0.25"
     inkscape:showpageshadow="2"
     inkscape:pageopacity="0.0"
     inkscape:pagecheckerboard="0"
     inkscape:deskcolor="#d1d1d1"
     inkscape:document-units="mm"
     inkscape:zoom="0.52158053"
     inkscape:cx="346.06353"
     inkscape:cy="548.33335"
     inkscape:window-width="1392"
     inkscape:window-height="971"
     inkscape:window-x="0"
     inkscape:window-y="25"
     inkscape:window-maximized="0"
     inkscape:current-layer="layer1"><inkscape:page
       x="-1.2899959e-05"
       y="0"
       width="229.89116"
       height="61.270447"
       id="page2"
       margin="0"
       bleed="0" /></sodipodi:namedview><defs
     id="defs1" /><g
     inkscape:label="Layer 1"
     inkscape:groupmode="layer"
     id="layer1"
     transform="translate(-220.00001)" /><g
     id="g1"
     inkscape:groupmode="layer"
     inkscape:label="1"
     transform="matrix(0.26458333,0,0,0.26458335,4.9379573e-6,0)"><g
       id="group-R5"><path
         id="path2"
         d="m 3407.33,1101.05 v -50.26 h -189.37 v 281.45 h 185.36 v -50.26 h -132.69 v -63.53 h 120.62 v -50.26 h -120.62 v -67.14 h 136.7"
         style="fill:#2e2d62;fill-opacity:1;fill-rule:nonzero;stroke:none"
         transform="matrix(0.13333333,0,0,-0.13333333,0,231.57333)" /><path
         id="path3"
         d="m 3639.36,1159.75 v -108.96 h -53.48 v 96.9 c 0,6.83 4.83,57.49 -33.78,59.51 -18.89,1.2 -52.66,-9.25 -52.66,-61.92 v -94.49 h -53.08 v 201.03 h 41.02 l 6.82,-24.52 h 6.84 c 8.45,10.05 27.34,26.54 61.12,26.54 51.87,0 77.2,-38.6 77.2,-94.09"
         style="fill:#2e2d62;fill-opacity:1;fill-rule:nonzero;stroke:none"
         transform="matrix(0.13333333,0,0,-0.13333333,0,231.57333)" /><path
         id="path4"
         d="m 3728.23,1186.29 c 0,-15.28 10.86,-26.54 34.18,-26.54 22.92,0 34.17,11.26 34.17,26.54 0,14.88 -11.25,25.32 -34.17,25.32 -22.92,0 -34.18,-10.04 -34.18,-25.32 z m 75.99,-149.97 c 0,10.85 -8.84,19.29 -31.36,19.29 -11.26,0 -26.94,0 -38.6,0.41 l -13.67,-14.48 c -2.41,-10.05 7.64,-26.54 43.02,-26.54 26.13,0 40.61,8.45 40.61,21.32 z m 49.46,-1.61 c -1.61,-45.44 -43.03,-66.343 -90.87,-66.343 -62.33,0 -98.11,35.783 -88.86,79.203 l 22.92,18.5 c -12.87,8.04 -21.31,20.5 -21.31,35.38 0,16.48 10.45,28.14 24.92,35.78 -13.67,12.47 -20.49,29.36 -20.49,48.25 0,38.6 29.74,68.76 80.41,68.76 17.69,0 33.36,-3.62 45.84,-10.06 21.7,10.06 34.17,26.14 34.17,26.14 l 24.93,-33.37 c 0,0 -13.67,-9.25 -32.17,-14.88 7.64,-10.46 11.66,-22.92 11.66,-36.19 0,-38.19 -34.98,-68.75 -85.65,-68.75 -10.44,0 -20.09,1.21 -28.54,3.62 -3.21,-2.01 -6.03,-5.23 -6.03,-10.05 0,-14.47 22.11,-12.06 35.79,-12.06 h 28.14 c 44.23,0 66.34,-30.16 65.14,-63.93"
         style="fill:#2e2d62;fill-opacity:1;fill-rule:nonzero;stroke:none"
         transform="matrix(0.13333333,0,0,-0.13333333,0,231.57333)" /><path
         id="path5"
         d="m 3948.6,1050.79 h -51.47 v 201.03 h 51.47 z m -60.31,257.32 c 0,19.31 15.68,34.18 34.58,34.18 18.49,0 33.77,-14.87 33.77,-34.18 0,-18.09 -15.28,-33.77 -33.77,-33.77 -18.9,0 -34.58,15.68 -34.58,33.77"
         style="fill:#2e2d62;fill-opacity:1;fill-rule:nonzero;stroke:none"
         transform="matrix(0.13333333,0,0,-0.13333333,0,231.57333)" /><path
         id="path6"
         d="m 4191.46,1159.75 v -108.96 h -53.48 v 96.9 c 0,6.83 4.83,57.49 -33.78,59.51 -18.89,1.2 -52.66,-9.25 -52.66,-61.92 v -94.49 h -53.08 v 201.03 h 41.02 l 6.82,-24.52 h 6.84 c 8.45,10.05 27.34,26.54 61.12,26.54 51.87,0 77.2,-38.6 77.2,-94.09"
         style="fill:#2e2d62;fill-opacity:1;fill-rule:nonzero;stroke:none"
         transform="matrix(0.13333333,0,0,-0.13333333,0,231.57333)" /><path
         id="path7"
         d="m 4279.94,1176.64 h 90.46 c -6.03,23.72 -22.51,33.37 -42.62,33.37 -22.11,0 -39.81,-12.47 -47.84,-33.37 z m 143.53,-40.61 h -146.76 c 6.04,-30.56 30.96,-41.82 52.68,-41.82 27.33,0 38.99,16.89 38.99,16.89 h 50.67 c -15.28,-40.21 -51.87,-62.32 -91.27,-62.32 -54.28,0 -101.72,41.42 -101.72,104.13 0,62.33 47.04,100.93 100.11,100.93 51.46,0 103.74,-35.79 97.3,-117.81"
         style="fill:#2e2d62;fill-opacity:1;fill-rule:nonzero;stroke:none"
         transform="matrix(0.13333333,0,0,-0.13333333,0,231.57333)" /><path
         id="path8"
         d="m 4505.53,1176.64 h 90.46 c -6.02,23.72 -22.51,33.37 -42.62,33.37 -22.11,0 -39.8,-12.47 -47.84,-33.37 z m 143.54,-40.61 h -146.76 c 6.03,-30.56 30.96,-41.82 52.68,-41.82 27.33,0 38.99,16.89 38.99,16.89 h 50.66 c -15.27,-40.21 -51.86,-62.32 -91.27,-62.32 -54.27,0 -101.71,41.42 -101.71,104.13 0,62.33 47.04,100.93 100.1,100.93 51.47,0 103.74,-35.79 97.31,-117.81"
         style="fill:#2e2d62;fill-opacity:1;fill-rule:nonzero;stroke:none"
         transform="matrix(0.13333333,0,0,-0.13333333,0,231.57333)" /><path
         id="path9"
         d="m 4812.34,1253.84 v -51.47 c -4.02,0.8 -10.86,1.61 -17.7,1.61 -28.14,0 -57.49,-14.47 -57.49,-51.46 v -101.73 h -53.47 v 201.03 h 41.01 l 7.24,-22.11 h 6.42 c 8.85,8.85 28.56,24.13 61.53,24.13 h 12.46"
         style="fill:#2e2d62;fill-opacity:1;fill-rule:nonzero;stroke:none"
         transform="matrix(0.13333333,0,0,-0.13333333,0,231.57333)" /><path
         id="path10"
         d="m 4898.81,1050.79 h -51.46 v 201.03 h 51.46 z m -60.31,257.32 c 0,19.31 15.68,34.18 34.58,34.18 18.5,0 33.77,-14.87 33.77,-34.18 0,-18.09 -15.27,-33.77 -33.77,-33.77 -18.9,0 -34.58,15.68 -34.58,33.77"
         style="fill:#2e2d62;fill-opacity:1;fill-rule:nonzero;stroke:none"
         transform="matrix(0.13333333,0,0,-0.13333333,0,231.57333)" /><path
         id="path11"
         d="m 5141.67,1159.75 v -108.96 h -53.47 v 96.9 c 0,6.83 4.82,57.49 -33.78,59.51 -18.9,1.2 -52.67,-9.25 -52.67,-61.92 v -94.49 h -53.07 v 201.03 h 41.01 l 6.83,-24.52 h 6.83 c 8.45,10.05 27.35,26.54 61.13,26.54 51.86,0 77.19,-38.6 77.19,-94.09"
         style="fill:#2e2d62;fill-opacity:1;fill-rule:nonzero;stroke:none"
         transform="matrix(0.13333333,0,0,-0.13333333,0,231.57333)" /><path
         id="path12"
         d="m 5230.54,1186.29 c 0,-15.28 10.86,-26.54 34.18,-26.54 22.92,0 34.17,11.26 34.17,26.54 0,14.88 -11.25,25.32 -34.17,25.32 -22.92,0 -34.18,-10.04 -34.18,-25.32 z m 76,-149.97 c 0,10.85 -8.85,19.29 -31.37,19.29 -11.26,0 -26.93,0 -38.59,0.41 l -13.67,-14.48 c -2.42,-10.05 7.63,-26.54 43.01,-26.54 26.15,0 40.62,8.45 40.62,21.32 z m 49.45,-1.61 c -1.61,-45.44 -43.03,-66.343 -90.87,-66.343 -62.32,0 -98.1,35.783 -88.86,79.203 l 22.92,18.5 c -12.87,8.04 -21.3,20.5 -21.3,35.38 0,16.48 10.45,28.14 24.92,35.78 -13.66,12.47 -20.5,29.36 -20.5,48.25 0,38.6 29.75,68.76 80.41,68.76 17.7,0 33.37,-3.62 45.84,-10.06 21.71,10.06 34.17,26.14 34.17,26.14 l 24.93,-33.37 c 0,0 -13.67,-9.25 -32.17,-14.88 7.64,-10.46 11.66,-22.92 11.66,-36.19 0,-38.19 -34.98,-68.75 -85.64,-68.75 -10.45,0 -20.1,1.21 -28.55,3.62 -3.21,-2.01 -6.02,-5.23 -6.02,-10.05 0,-14.47 22.11,-12.06 35.78,-12.06 h 28.14 c 44.23,0 66.34,-30.16 65.14,-63.93"
         style="fill:#2e2d62;fill-opacity:1;fill-rule:nonzero;stroke:none"
         transform="matrix(0.13333333,0,0,-0.13333333,0,231.57333)" /><path
         id="path13"
         d="m 5624.61,1135.22 v 4.03 c -36.58,-4.03 -72.77,-8.45 -72.77,-29.36 0,-30.55 69.56,-28.14 72.77,25.33 z m 73.19,-45.83 v -38.6 h -12.07 c -23.31,0 -39.81,8.44 -46.63,25.73 -12.07,-16.48 -32.17,-27.74 -63.54,-27.74 -45.43,0 -74.37,23.32 -74.37,59.51 0,62.72 85.63,68.35 124.23,70.35 -0.81,23.33 -13.67,31.77 -34.17,31.77 -28.55,0 -30.56,-17.28 -30.56,-17.28 h -50.26 c 3.62,35.78 32.97,60.71 82.03,60.71 47.84,0 81.62,-23.73 81.62,-82.03 v -53.47 c 0,-23.32 8.43,-28.95 23.72,-28.95"
         style="fill:#2e2d62;fill-opacity:1;fill-rule:nonzero;stroke:none"
         transform="matrix(0.13333333,0,0,-0.13333333,0,231.57333)" /><path
         id="path14"
         d="m 5920.56,1159.75 v -108.96 h -53.48 v 96.9 c 0,6.83 4.83,57.49 -33.77,59.51 -18.9,1.2 -52.67,-9.25 -52.67,-61.92 v -94.49 h -53.08 v 201.03 h 41.02 l 6.83,-24.52 h 6.83 c 8.45,10.05 27.34,26.54 61.12,26.54 51.87,0 77.2,-38.6 77.2,-94.09"
         style="fill:#2e2d62;fill-opacity:1;fill-rule:nonzero;stroke:none"
         transform="matrix(0.13333333,0,0,-0.13333333,0,231.57333)" /><path
         id="path15"
         d="m 6100.71,1151.31 c 0,33.37 -18.1,53.07 -44.23,53.07 -24.53,0 -49.05,-17.69 -49.05,-53.07 0,-35.38 24.52,-53.08 49.05,-53.08 26.13,0 44.23,19.7 44.23,53.08 z m 50.25,184.95 v -285.47 h -39.4 l -5.63,19.3 h -6.03 c -12.46,-13.67 -29.35,-21.31 -51.06,-21.31 -51.06,0 -93.68,41.81 -93.68,102.53 0,60.71 42.62,102.53 93.68,102.53 20.91,0 39,-7.24 51.87,-21.71 v 104.13 h 50.25"
         style="fill:#2e2d62;fill-opacity:1;fill-rule:nonzero;stroke:none"
         transform="matrix(0.13333333,0,0,-0.13333333,0,231.57333)" /><path
         id="path16"
         d="m 3359.49,833.867 c 0,23.719 -15.68,36.985 -38.2,36.985 h -52.27 v -77.997 h 52.27 c 22.92,0 38.2,17.692 38.2,41.012 z m 53.07,0 c 0,-55.488 -41.01,-90.465 -87.25,-90.465 h -56.29 V 638.859 h -51.06 v 281.454 h 107.35 c 46.24,0 87.25,-30.563 87.25,-86.446"
         style="fill:#2e2d62;fill-opacity:1;fill-rule:nonzero;stroke:none"
         transform="matrix(0.13333333,0,0,-0.13333333,0,231.57333)" /><path
         id="path17"
         d="M 3643.76,747.824 V 638.859 h -53.87 v 96.903 c 0,19.703 3.22,59.504 -32.97,59.504 -17.69,0 -51.87,-9.246 -51.87,-61.926 v -94.481 h -53.87 v 285.469 h 51.06 v -105.34 h 6.84 c 9.65,10.055 28.14,22.918 57.9,22.918 51.86,0 76.78,-38.597 76.78,-94.082"
         style="fill:#2e2d62;fill-opacity:1;fill-rule:nonzero;stroke:none"
         transform="matrix(0.13333333,0,0,-0.13333333,0,231.57333)" /><path
         id="path18"
         d="m 3875.79,839.895 -69.96,-208.676 c -11.26,-33.367 -24.54,-74.778 -85.24,-74.778 -36.19,0 -55.09,14.469 -61.12,22.11 l 25.33,35.789 c 2.01,-2.008 14.47,-12.469 31.37,-12.469 16.88,0 28.14,6.828 32.57,20.508 l 5.62,16.48 h -26.94 l -69.15,201.036 h 55.89 l 50.65,-146.356 h 8.05 l 49.05,146.356 h 53.88"
         style="fill:#2e2d62;fill-opacity:1;fill-rule:nonzero;stroke:none"
         transform="matrix(0.13333333,0,0,-0.13333333,0,231.57333)" /><path
         id="path19"
         d="m 3977.13,799.285 c -16.88,0 -24.12,-8.441 -24.12,-16.883 0,-13.672 18.1,-17.691 30.16,-20.101 35.78,-7.641 71.97,-18.496 71.97,-61.11 0,-41.421 -34.18,-64.339 -75.59,-64.339 -46.23,0 -82.03,28.136 -84.44,70.757 h 49.46 c 1.21,-12.058 9.24,-27.73 33.77,-27.73 20.51,0 25.34,10.851 25.34,19.293 0,14.879 -14.08,19.297 -27.75,22.508 -23.72,5.242 -74.78,14.89 -74.78,60.722 0,39.399 37.79,59.504 76.79,59.504 45.03,0 74.79,-27.343 77.2,-61.117 h -49.45 c -1.61,6.836 -8.05,18.496 -28.56,18.496"
         style="fill:#2e2d62;fill-opacity:1;fill-rule:nonzero;stroke:none"
         transform="matrix(0.13333333,0,0,-0.13333333,0,231.57333)" /><path
         id="path20"
         d="m 4140.81,638.859 h -51.47 v 201.036 h 51.47 z m -60.32,257.325 c 0,19.296 15.69,34.175 34.58,34.175 18.5,0 33.77,-14.879 33.77,-34.175 0,-18.09 -15.27,-33.774 -33.77,-33.774 -18.89,0 -34.58,15.684 -34.58,33.774"
         style="fill:#2e2d62;fill-opacity:1;fill-rule:nonzero;stroke:none"
         transform="matrix(0.13333333,0,0,-0.13333333,0,231.57333)" /><path
         id="path21"
         d="m 4279.93,636.852 c -55.89,0 -101.72,43.027 -101.72,102.125 0,59.91 47.44,102.929 103.73,102.929 45.84,0 84.83,-28.547 96.09,-75.593 h -54.68 c -8.44,16.488 -23.32,26.945 -42.62,26.945 -28.15,0 -50.66,-22.516 -50.66,-53.879 0,-31.359 22.51,-53.879 50.66,-53.879 18.09,0 32.17,9.25 41.01,24.121 h 55.09 c -12.87,-47.84 -54.29,-72.769 -96.9,-72.769"
         style="fill:#2e2d62;fill-opacity:1;fill-rule:nonzero;stroke:none"
         transform="matrix(0.13333333,0,0,-0.13333333,0,231.57333)" /><path
         id="path22"
         d="m 4529.63,723.289 v 4.031 c -36.58,-4.031 -72.77,-8.449 -72.77,-29.359 0,-30.551 69.56,-28.141 72.77,25.328 z m 73.19,-45.84 v -38.59 h -12.07 c -23.31,0 -39.81,8.45 -46.63,25.731 -12.07,-16.481 -32.17,-27.738 -63.54,-27.738 -45.43,0 -74.37,23.32 -74.37,59.507 0,62.715 85.63,68.352 124.23,70.364 -0.81,23.316 -13.67,31.757 -34.18,31.757 -28.54,0 -30.55,-17.285 -30.55,-17.285 h -50.26 c 3.62,35.782 32.97,60.711 82.03,60.711 47.84,0 81.62,-23.722 81.62,-82.019 V 706.41 c 0,-23.32 8.43,-28.961 23.72,-28.961"
         style="fill:#2e2d62;fill-opacity:1;fill-rule:nonzero;stroke:none"
         transform="matrix(0.13333333,0,0,-0.13333333,0,231.57333)" /><path
         id="path23"
         d="M 4681.25,924.328 V 638.859 h -52.27 v 285.469 h 52.27"
         style="fill:#2e2d62;fill-opacity:1;fill-rule:nonzero;stroke:none"
         transform="matrix(0.13333333,0,0,-0.13333333,0,231.57333)" /><path
         id="path24"
         d="m 4926.52,636.852 c -61.52,0 -104.13,40.199 -104.13,92.878 h 52.26 c 4.83,-34.98 33.77,-43.031 51.47,-43.031 13.67,0 41,4.84 41,30.973 0,23.719 -22.91,33.367 -45.83,42.215 -37.79,14.875 -91.27,32.968 -91.27,86.441 0,47.445 41.42,76.395 91.67,76.395 58.31,0 90.87,-39.004 90.87,-74.785 h -51.46 c -2.81,15.679 -20.11,25.734 -40.21,25.734 -19.3,0 -35.38,-9.656 -35.38,-27.344 0,-17.285 15.68,-24.121 43.02,-36.59 29.36,-13.265 92.07,-28.949 92.07,-92.468 0,-52.68 -43.02,-80.418 -94.08,-80.418"
         style="fill:#2e2d62;fill-opacity:1;fill-rule:nonzero;stroke:none"
         transform="matrix(0.13333333,0,0,-0.13333333,0,231.57333)" /><path
         id="path25"
         d="m 5147.68,636.852 c -55.89,0 -101.72,43.027 -101.72,102.125 0,59.91 47.44,102.929 103.73,102.929 45.84,0 84.84,-28.547 96.1,-75.593 h -54.68 c -8.45,16.488 -23.32,26.945 -42.63,26.945 -28.14,0 -50.65,-22.516 -50.65,-53.879 0,-31.359 22.51,-53.879 50.65,-53.879 18.1,0 32.17,9.25 41.02,24.121 h 55.08 c -12.87,-47.84 -54.28,-72.769 -96.9,-72.769"
         style="fill:#2e2d62;fill-opacity:1;fill-rule:nonzero;stroke:none"
         transform="matrix(0.13333333,0,0,-0.13333333,0,231.57333)" /><path
         id="path26"
         d="m 5337.09,638.859 h -51.46 v 201.036 h 51.46 z m -60.31,257.325 c 0,19.296 15.69,34.175 34.58,34.175 18.5,0 33.77,-14.879 33.77,-34.175 0,-18.09 -15.27,-33.774 -33.77,-33.774 -18.89,0 -34.58,15.684 -34.58,33.774"
         style="fill:#2e2d62;fill-opacity:1;fill-rule:nonzero;stroke:none"
         transform="matrix(0.13333333,0,0,-0.13333333,0,231.57333)" /><path
         id="path27"
         d="m 5428.37,764.711 h 90.46 c -6.02,23.723 -22.51,33.367 -42.61,33.367 -22.11,0 -39.81,-12.465 -47.85,-33.367 z m 143.54,-40.609 h -146.76 c 6.04,-30.563 30.96,-41.813 52.68,-41.813 27.33,0 38.99,16.883 38.99,16.883 h 50.67 c -15.28,-40.203 -51.87,-62.32 -91.27,-62.32 -54.28,0 -101.72,41.418 -101.72,104.136 0,62.321 47.04,100.918 100.1,100.918 51.47,0 103.74,-35.785 97.31,-117.804"
         style="fill:#2e2d62;fill-opacity:1;fill-rule:nonzero;stroke:none"
         transform="matrix(0.13333333,0,0,-0.13333333,0,231.57333)" /><path
         id="path28"
         d="M 5799.52,747.824 V 638.859 h -53.48 v 96.903 c 0,6.832 4.82,57.496 -33.78,59.504 -18.9,1.207 -52.67,-9.246 -52.67,-61.926 v -94.481 h -53.07 v 201.036 h 41.01 l 6.83,-24.524 h 6.84 c 8.44,10.055 27.34,26.535 61.12,26.535 51.86,0 77.2,-38.597 77.2,-94.082"
         style="fill:#2e2d62;fill-opacity:1;fill-rule:nonzero;stroke:none"
         transform="matrix(0.13333333,0,0,-0.13333333,0,231.57333)" /><path
         id="path29"
         d="m 5935.83,636.852 c -55.89,0 -101.72,43.027 -101.72,102.125 0,59.91 47.44,102.929 103.73,102.929 45.84,0 84.83,-28.547 96.09,-75.593 h -54.68 c -8.44,16.488 -23.32,26.945 -42.62,26.945 -28.15,0 -50.66,-22.516 -50.66,-53.879 0,-31.359 22.51,-53.879 50.66,-53.879 18.09,0 32.16,9.25 41.01,24.121 h 55.09 c -12.87,-47.84 -54.29,-72.769 -96.9,-72.769"
         style="fill:#2e2d62;fill-opacity:1;fill-rule:nonzero;stroke:none"
         transform="matrix(0.13333333,0,0,-0.13333333,0,231.57333)" /><path
         id="path30"
         d="m 6114.38,764.711 h 90.46 c -6.03,23.723 -22.51,33.367 -42.62,33.367 -22.11,0 -39.8,-12.465 -47.84,-33.367 z m 143.54,-40.609 h -146.76 c 6.03,-30.563 30.95,-41.813 52.67,-41.813 27.34,0 39,16.883 39,16.883 h 50.66 c -15.27,-40.203 -51.86,-62.32 -91.27,-62.32 -54.28,0 -101.72,41.418 -101.72,104.136 0,62.321 47.04,100.918 100.11,100.918 51.47,0 103.74,-35.785 97.31,-117.804"
         style="fill:#2e2d62;fill-opacity:1;fill-rule:nonzero;stroke:none"
         transform="matrix(0.13333333,0,0,-0.13333333,0,231.57333)" /><path
         id="path31"
         d="m 6367.72,799.285 c -16.89,0 -24.12,-8.441 -24.12,-16.883 0,-13.672 18.09,-17.691 30.15,-20.101 35.79,-7.641 71.98,-18.496 71.98,-61.11 0,-41.421 -34.18,-64.339 -75.6,-64.339 -46.23,0 -82.02,28.136 -84.43,70.757 h 49.45 c 1.21,-12.058 9.25,-27.73 33.78,-27.73 20.51,0 25.33,10.851 25.33,19.293 0,14.879 -14.07,19.297 -27.74,22.508 -23.72,5.242 -74.79,14.89 -74.79,60.722 0,39.399 37.8,59.504 76.8,59.504 45.03,0 74.79,-27.343 77.2,-61.117 h -49.46 c -1.61,6.836 -8.04,18.496 -28.55,18.496"
         style="fill:#2e2d62;fill-opacity:1;fill-rule:nonzero;stroke:none"
         transform="matrix(0.13333333,0,0,-0.13333333,0,231.57333)" /><path
         id="path32"
         d="m 3269.02,380.121 h 44.23 c 22.92,0 38.19,17.699 38.19,41.02 0,23.32 -15.67,36.988 -38.19,36.988 h -44.23 z m 93.28,-153.18 -59.91,103.329 h -33.37 V 226.941 h -51.06 v 281.438 h 99.31 c 46.24,0 87.25,-30.949 87.25,-86.438 0,-38.601 -21.71,-67.953 -50.66,-82.019 l 67.95,-112.981 h -59.51"
         style="fill:#2e2d62;fill-opacity:1;fill-rule:nonzero;stroke:none"
         transform="matrix(0.13333333,0,0,-0.13333333,0,231.57333)" /><path
         id="path33"
         d="m 3483.75,352.789 h 90.46 c -6.02,23.723 -22.51,33.371 -42.61,33.371 -22.11,0 -39.81,-12.461 -47.85,-33.371 z m 143.54,-40.617 h -146.76 c 6.04,-30.551 30.96,-41.801 52.68,-41.801 27.33,0 38.99,16.879 38.99,16.879 h 50.67 c -15.28,-40.211 -51.87,-62.32 -91.27,-62.32 -54.28,0 -101.72,41.41 -101.72,104.14 0,62.309 47.04,100.91 100.11,100.91 51.46,0 103.74,-35.789 97.3,-117.808"
         style="fill:#2e2d62;fill-opacity:1;fill-rule:nonzero;stroke:none"
         transform="matrix(0.13333333,0,0,-0.13333333,0,231.57333)" /><path
         id="path34"
         d="m 3737.08,387.371 c -16.89,0 -24.13,-8.449 -24.13,-16.902 0,-13.66 18.1,-17.68 30.16,-20.098 35.78,-7.641 71.97,-18.492 71.97,-61.109 0,-41.41 -34.18,-64.332 -75.59,-64.332 -46.23,0 -82.02,28.14 -84.44,70.761 h 49.46 c 1.21,-12.062 9.24,-27.742 33.78,-27.742 20.5,0 25.33,10.852 25.33,19.301 0,14.871 -14.07,19.301 -27.75,22.512 -23.72,5.226 -74.78,14.879 -74.78,60.707 0,39.41 37.79,59.511 76.8,59.511 45.03,0 74.78,-27.339 77.19,-61.109 h -49.45 c -1.61,6.84 -8.05,18.5 -28.55,18.5"
         style="fill:#2e2d62;fill-opacity:1;fill-rule:nonzero;stroke:none"
         transform="matrix(0.13333333,0,0,-0.13333333,0,231.57333)" /><path
         id="path35"
         d="m 3893.92,352.789 h 90.46 c -6.03,23.723 -22.51,33.371 -42.62,33.371 -22.11,0 -39.8,-12.461 -47.84,-33.371 z m 143.54,-40.617 H 3890.7 c 6.03,-30.551 30.96,-41.801 52.67,-41.801 27.34,0 39,16.879 39,16.879 h 50.66 c -15.27,-40.211 -51.86,-62.32 -91.27,-62.32 -54.27,0 -101.72,41.41 -101.72,104.14 0,62.309 47.04,100.91 100.11,100.91 51.47,0 103.74,-35.789 97.31,-117.808"
         style="fill:#2e2d62;fill-opacity:1;fill-rule:nonzero;stroke:none"
         transform="matrix(0.13333333,0,0,-0.13333333,0,231.57333)" /><path
         id="path36"
         d="m 4187.46,311.371 v 4.02 c -36.59,-4.02 -72.78,-8.442 -72.78,-29.352 0,-30.559 69.56,-28.148 72.78,25.332 z m 73.18,-45.832 v -38.598 h -12.07 c -23.31,0 -39.81,8.438 -46.63,25.731 -12.07,-16.481 -32.17,-27.742 -63.54,-27.742 -45.43,0 -74.37,23.32 -74.37,59.511 0,62.707 85.63,68.348 124.24,70.36 -0.81,23.32 -13.68,31.758 -34.18,31.758 -28.55,0 -30.56,-17.289 -30.56,-17.289 h -50.25 c 3.61,35.781 32.97,60.71 82.02,60.71 47.84,0 81.61,-23.718 81.61,-82.019 v -53.473 c 0,-23.316 8.45,-28.949 23.73,-28.949"
         style="fill:#2e2d62;fill-opacity:1;fill-rule:nonzero;stroke:none"
         transform="matrix(0.13333333,0,0,-0.13333333,0,231.57333)" /><path
         id="path37"
         d="m 4419.08,429.98 v -51.46 c -4.03,0.8 -10.86,1.601 -17.7,1.601 -28.14,0 -57.49,-14.473 -57.49,-51.461 V 226.941 h -53.47 v 201.028 h 41.01 l 7.24,-22.117 h 6.42 c 8.85,8.847 28.56,24.128 61.53,24.128 h 12.46"
         style="fill:#2e2d62;fill-opacity:1;fill-rule:nonzero;stroke:none"
         transform="matrix(0.13333333,0,0,-0.13333333,0,231.57333)" /><path
         id="path38"
         d="m 4532.88,224.93 c -55.89,0 -101.72,43.019 -101.72,102.121 0,59.91 47.44,102.929 103.73,102.929 45.84,0 84.83,-28.539 96.09,-75.589 h -54.68 c -8.44,16.488 -23.32,26.937 -42.62,26.937 -28.15,0 -50.66,-22.519 -50.66,-53.879 0,-31.347 22.51,-53.867 50.66,-53.867 18.09,0 32.16,9.25 41.01,24.117 h 55.09 c -12.87,-47.84 -54.29,-72.769 -96.9,-72.769"
         style="fill:#2e2d62;fill-opacity:1;fill-rule:nonzero;stroke:none"
         transform="matrix(0.13333333,0,0,-0.13333333,0,231.57333)" /><path
         id="path39"
         d="M 4855.78,335.898 V 226.941 h -53.88 v 96.887 c 0,19.711 3.22,59.512 -32.97,59.512 -17.68,0 -51.86,-9.238 -51.86,-61.918 v -94.481 h -53.88 V 512.41 h 51.06 V 407.059 h 6.84 c 9.65,10.05 28.14,22.921 57.9,22.921 51.86,0 76.79,-38.601 76.79,-94.082"
         style="fill:#2e2d62;fill-opacity:1;fill-rule:nonzero;stroke:none"
         transform="matrix(0.13333333,0,0,-0.13333333,0,231.57333)" /><path
         id="path40"
         d="m 5226.52,311.371 c -16.09,-53.883 -61.11,-86.441 -115.39,-86.441 -73.59,0 -127.05,60.308 -127.05,142.73 0,82.418 53.06,142.731 126.65,142.731 53.87,0 99.7,-32.563 115.79,-86.442 h -60.71 c -10.45,22.52 -29.35,33.371 -54.28,33.371 -45.84,0 -71.97,-37.379 -71.97,-89.66 0,-52.269 26.54,-89.66 72.77,-89.66 24.93,0 43.03,10.852 53.48,33.371 h 60.71"
         style="fill:#2e2d62;fill-opacity:1;fill-rule:nonzero;stroke:none"
         transform="matrix(0.13333333,0,0,-0.13333333,0,231.57333)" /><path
         id="path41"
         d="m 5401.44,327.449 c 0,31.36 -18.5,55.891 -49.05,55.891 -30.56,0 -51.07,-24.531 -51.07,-55.891 0,-31.347 20.51,-55.879 51.07,-55.879 30.55,0 49.05,24.532 49.05,55.879 z m -152.78,-0.398 c 0,64.328 49.85,102.929 103.73,102.929 54.28,0 101.72,-39 101.72,-102.121 0,-63.929 -49.06,-102.929 -103.33,-102.929 -54.68,0 -102.12,39 -102.12,102.121"
         style="fill:#2e2d62;fill-opacity:1;fill-rule:nonzero;stroke:none"
         transform="matrix(0.13333333,0,0,-0.13333333,0,231.57333)" /><path
         id="path42"
         d="M 5680.92,427.969 V 226.941 h -40.2 l -7.24,22.52 h -5.22 c -8.05,-10.063 -25.74,-24.531 -58.7,-24.531 -53.48,0 -80.82,37.789 -80.82,94.082 v 108.957 h 54.67 v -96.887 c 0,-24.934 2.01,-59.512 36.59,-59.512 17.7,0 46.65,9.239 46.65,61.918 v 94.481 h 54.27"
         style="fill:#2e2d62;fill-opacity:1;fill-rule:nonzero;stroke:none"
         transform="matrix(0.13333333,0,0,-0.13333333,0,231.57333)" /><path
         id="path43"
         d="M 5921.39,335.898 V 226.941 h -53.47 v 96.887 c 0,6.844 4.82,57.5 -33.78,59.512 -18.9,1.199 -52.67,-9.238 -52.67,-61.918 v -94.481 h -53.08 v 201.028 h 41.02 l 6.83,-24.528 h 6.83 c 8.45,10.059 27.35,26.539 61.12,26.539 51.87,0 77.2,-38.601 77.2,-94.082"
         style="fill:#2e2d62;fill-opacity:1;fill-rule:nonzero;stroke:none"
         transform="matrix(0.13333333,0,0,-0.13333333,0,231.57333)" /><path
         id="path44"
         d="m 6057.71,224.93 c -55.89,0 -101.72,43.019 -101.72,102.121 0,59.91 47.44,102.929 103.73,102.929 45.84,0 84.84,-28.539 96.1,-75.589 h -54.68 c -8.45,16.488 -23.32,26.937 -42.63,26.937 -28.14,0 -50.65,-22.519 -50.65,-53.879 0,-31.347 22.51,-53.867 50.65,-53.867 18.1,0 32.17,9.25 41.02,24.117 h 55.07 c -12.86,-47.84 -54.27,-72.769 -96.89,-72.769"
         style="fill:#2e2d62;fill-opacity:1;fill-rule:nonzero;stroke:none"
         transform="matrix(0.13333333,0,0,-0.13333333,0,231.57333)" /><path
         id="path45"
         d="m 6247.11,226.941 h -51.46 v 201.028 h 51.46 z m -60.31,257.321 c 0,19.297 15.69,34.179 34.58,34.179 18.5,0 33.77,-14.882 33.77,-34.179 0,-18.09 -15.27,-33.774 -33.77,-33.774 -18.89,0 -34.58,15.684 -34.58,33.774"
         style="fill:#2e2d62;fill-opacity:1;fill-rule:nonzero;stroke:none"
         transform="matrix(0.13333333,0,0,-0.13333333,0,231.57333)" /><path
         id="path46"
         d="M 6343.62,512.41 V 226.941 h -52.27 V 512.41 h 52.27"
         style="fill:#2e2d62;fill-opacity:1;fill-rule:nonzero;stroke:none"
         transform="matrix(0.13333333,0,0,-0.13333333,0,231.57333)" /><path
         id="path47"
         d="M 1488.16,70.9297 H 70.8398 V 1488.26 H 1488.16 V 70.9297"
         style="fill:#2e2d62;fill-opacity:1;fill-rule:nonzero;stroke:none"
         transform="matrix(0.13333333,0,0,-0.13333333,0,231.57333)" /><path
         id="path48"
         d="M 1166.92,779.598 H 944.762 V 1016.84 Z M 973.215,338.551 H 779.504 V 261.102 L 643.152,439.789 c 103.817,19.109 157.422,72.793 157.422,166.27 0,23.062 -3.293,43.652 -9.773,61.902 h 182.414 z m -581.141,329.41 h 151.207 c 62.164,0 87.356,-24.09 87.356,-61.902 0,-37.821 -25.192,-62.688 -87.356,-62.688 H 392.074 Z m 387.43,280.715 V 692.27 c -35.191,59.414 -116.113,87.007 -236.223,87.308 107.172,10.887 206.254,68.707 236.223,169.098 z M 1332.18,1332.28 H 1166.92 L 944.762,1095.7 v 236.58 H 623.727 v -314.06 c 0,-67.24 -49.786,-106.275 -115.829,-106.275 -66.039,0 -115.824,39.035 -115.824,106.275 v 314.06 H 226.816 v -316.46 c 0,-141.734 114.43,-223.039 243.512,-236.222 H 226.816 V 226.922 h 165.258 v 204.816 h 72.188 L 616.977,226.922 h 715.203 v 111.629 h -193.71 v 329.41 h 193.71 v 145.812 l -236.87,242.547 236.87,241.78 v 34.18"
         style="fill:#ffffff;fill-opacity:1;fill-rule:nonzero;stroke:none"
         transform="matrix(0.13333333,0,0,-0.13333333,0,231.57333)" /><path
         id="path49"
         d="M 2905.48,437.5 V 1488.23 H 2121.96 V 437.5 h 783.52"
         style="fill:#16968a;fill-opacity:1;fill-rule:nonzero;stroke:none"
         transform="matrix(0.13333333,0,0,-0.13333333,0,231.57333)" /><path
         id="path50"
         d="m 2121.96,437.5 v 1228.36 h -633.8 V 70.9297 H 2905.48 V 437.5 h -783.52"
         style="fill:#34d5ae;fill-opacity:1;fill-rule:nonzero;stroke:none"
         transform="matrix(0.13333333,0,0,-0.13333333,0,231.57333)" /></g></g></svg>
