<svg height="94.720833mm" viewBox="0 0 130.52777 94.720833" width="130.52777mm" xmlns="http://www.w3.org/2000/svg" xmlns:xlink="http://www.w3.org/1999/xlink"><clipPath id="a"><path d="m0 0h3700v2685h-3700z"/></clipPath><g clip-path="url(#a)" transform="matrix(.035277777 0 0 -.035277777 0 94.72083)"><path d="m0 0h3700v2685h-3700z" fill="#1f4fa2"/><g fill="#fff"><path d="m2329.64 2223.72s4.21 10.46 12.56 14.72c8.41 4.3 20.12 5.03 33.84 3.47 11.72-1.27 35.98-12 71.03-41.11 48.79-40.51 66.22-65.57 66.59-64.37 3.07 9.84 14.79 28.85 14.79 28.85-23.05 20.19-103.58 72.84-128.64 82.82-28.21 11.36-66.98 14.39-70.17-24.38z"/><path d="m2358.91 2272.46c34.06 8.53 37.83-13.94 45.02-19.34l26.07-15.94c-35.22 78.02-71.09 35.28-71.09 35.28z"/><path d="m2373.89 2232.8c80.83-59.23 13.08-86.64 13.08-86.64 15.88-6.77 28.53-2.21 35.44 8.1 2.5 3.88 4.88 8.64 6.22 12.4 2.28 6.4 2.54 11.61 2.54 11.61 28.64-28.09 59.85-76.09 80.25-101.56-6.2 24.71-1.42 35.81-3.35 38.13-24.33 29.25-32.46 39.7-48.37 57.39-48.13 53.2-85.81 60.57-85.81 60.57"/><path d="m2708.94 2238.52c-3.81 9.76-2.58 37.79-1.49 42.86 4.01 10.76 7.63 21.33 9.83 31.34l1.78-.92 12.68-7.94c-5.26 6.59-10.28 23.96-12.94 34.44-.2 1.36-.46 2.77-.83 4.1-5.56 22.51-16.91 35.64-16.91 35.64s8.3-21.45 5.5-38.84c-2.77-36.31-54.29-77.94-42.65-141.57 6.43-35.16 41.63-63.16 41.63-63.16s-11.22 23.16-19.15 66.84c-3.14 17.17 2.45 30.67 10.07 51.28l2.82-2.64z"/><path d="m3064.61 2487s-91.38-14.76-136.61-29.26c-45.25-14.49-111.25-43.02-141.17-80.42-29.9-37.43-4.73-96.74-12.37-136.24-7.64-39.49-66.24-79.58-66.24-79.58s68.2 17.46 93.32 72.41c18.48 40.4-4.97 68.49 23.38 130.85 28.34 62.29 239.69 122.24 239.69 122.24z"/><path d="m3066.99 2482.6s-75.44-23.35-99.21-97.04l33.78 7.46s.48 45.95 65.43 89.58z"/><path d="m3186.45 2380.63s-118.78 23.73-235.52-10.56c-116.77-34.25-100.34-95.25-101.62-129.24-1.19-34.02-30.01-109.46-132.76-99.51 0 0 60.91-33.28 128.76 21.4 67.8 54.72 20.49 121 75.08 152.59 54.51 31.55 96.81 57.81 266.06 65.32z"/><path d="m2890.52 2211.9s46.4-6.47 73.72-38.4c0 0-37.39 29-79.88 21.55 0 0 4.06 8.36 6.16 16.85z"/><path d="m3091.25 2262.53s-112.09-2.63-113.21-96.85c-2.07 3.52-61.6 107.37 113.21 96.85z"/><path d="m3178.29 2374.66c-112.87-23.23-87.04-112.17-87.04-112.17-57.42 114.16 87.04 112.17 87.04 112.17z"/><path d="m2865.25 2082c29.45 79.43 109.16 82.6 112.07 82.71-84.75 16.67-106.34-26.19-111.28-56.28-72.48 14.16-134.46 15.63-134.46 15.63 87.09-12.18 133.67-42.06 133.67-42.06z"/><path d="m2407.55 1845.83s17.9 9.69 38.83 7.65c12.87-1.23 37.81 8.1 37.81 8.1-10.5.08-35.3 12.47-57.15 9.77-21.81-2.72-19.49-25.52-19.49-25.52z"/><path d="m2824.34 1901.96s-1.77 17.17 14.63 19.19c16.38 2.07 34.95-7.27 42.83-7.31 0 0-18.63-7.02-28.37-6.11-15.64 1.51-29.09-5.77-29.09-5.77z"/><path d="m2984.27 1836.84s16.1 8.8 35 7c11.6-1.14 29.38.43 29.38.43-9.47.07-24.36 19.41-46.82 15.65-19.5-3.26-17.56-23.08-17.56-23.08z"/><path d="m3082.02 2266.9c-136.46 32.89-178.93 9.33-178.93 9.33s3.01 7.69 4.93 12.02c3.06 6.82 3.91 8.59 4.77 10.23 100.02 3.88 169.23-31.58 169.23-31.58z"/><path d="m2559.44 2353.62s-15.37 16.49-33.39 16.49c-26.03 0-47.74-27.78-70.9-27.83-23.18 0-34.77 7.85-34.77 7.85s14.05-18.92 36.13-18.92c28.75 0 50.01 28.26 69.06 28.26 19.01.04 33.87-5.85 33.87-5.85z"/><path d="m2619.04 2323.86s4.01-14.53 1.7-41.04c-2.25-45.43-91.15-108.03-90.05-183.32.61-45.01 33.8-71.89 33.8-71.89s-14.89 39.71-8.24 79.45c9.19 55.2 78.74 118.15 76.55 172.32-1.34 31.95-13.76 44.48-13.76 44.48z"/><path d="m2576.06 2028.4s-13.4 31.65-3.32 59.75c6.58 18.11 23.71 33.56 57.55 42.03 0 0-59.16-53.86-15.76-100.39 0 0-30.94-32.85-42.77-60.95-11.78-28.02-37.57-86.82-46.07-100.53-8.59-13.59-20.59-31.17-54.37-46.4-37.4-3.27-78.35-9.51-81.03-38.4 0 0-7.23 7.23-6.56 25.46.67 18.26 30.95 38.66 62.61 37.56 31.67-1.15 59.95 6.95 74.77 45.11 14.79 38.22 47.22 130.05 54.95 136.76z"/><path d="m2626.5 2025.34s-48.21-147.84-132.73-202.13c0 0 51.49 7.36 67.37.88 15.91-6.52 32.21-17.32 16.73-42.03 0 0 30.63 16.82 22.17 42.14-6.64 20.02-36.69 21.65-36.69 21.65s-8.66 3.74-3.63 16.53c5.03 12.81 37.32 55.36 42.46 63.08 5.13 7.77 47.05 71.02 48.71 74.67 0 0 36.93-5.24 54.61 29.94 18.45 36.56-20.87 71.96-20.87 71.96s17.24-39.31-2.69-58.62c-23.67-22.86-55.44-18.07-55.44-18.07z"/><path d="m2667.59 1990.87s17.8 3.68 23.84 8.2c0 0 8.24-8.93 42.3-8.2 2.87.04 4.76 0 5.83 0 37.84 4.7 83.9 18.23 156.31 48.43l7.85-12.9c-56.52-19.08-124.75-72.81-210.29-64.32-6.08.62-34.18 6.26-40.03 8.07 3.56 4.77 14.19 20.72 14.19 20.72z"/><path d="m2911.16 1919.02c-7.35-12.2-18.34-28.47-41.74-36.35-25.42.51-55.98-5.75-58.03-27.41 0 0-5.39 5.45-4.96 19.05.51 13.75 19.27 28.68 46.98 27.17 23.77-1.28 39.1 8.57 49.36 34.61 7.02 17.48-.43 55.04 8.96 78.83 0 0 12.8-9.92 18.46-14.62 0 0 .46.16-2.25-6.32-8.83-21.05-4.61-51.49-16.78-74.96z"/><path d="m2947.21 1992.43s7.28-4.96 14.29-8.76c-5.82-14.1-7.7-23.03-8.83-26-2.41-6.65-10.44-33.65-14.24-43.29-3.8-9.55 2.68-12.32 2.68-12.32s22.56-1.27 27.54-16.27c6.37-18.99-16.56-31.58-16.56-31.58 11.56 18.49-.65 26.61-12.57 31.49-11.95 4.85-46.87-.65-46.87-.65 36.67 20.08 48.67 93.53 54.56 107.38z"/><path d="m3085.99 1842.81s9.79-20.38 4.22-27.87c-22.17-.66-37.25.04-69.98-3.29-30.27-3.08-49.87-5.07-52.25-31.13 0 0-6.55 6.53-5.98 22.99.62 16.41 27.93 34.75 56.46 33.7 0 0 35.73-.63 39.75 1.48 8.53 4.56-13.2 46.14-16.91 53.64-31.67 63.36-30.87 83.89-32.13 87.25 0 0-88.65 16.61-110.45 77 70.39-59.85 128.65-59.35 128.65-59.35 7.37-28.71 37.63-113.73 58.62-154.42z"/><path d="m3142.21 2148.99c-10.89-32.35-17.61-67.35-16.28-105.58 1.2-35 23.87-83.65 79.01-78.72 28.69 2.53 46.65 21.11 55.89 39.93 10.84 22.16 10.12 44.91 10.12 44.91s.72 36.15-33.95 66.87c-19.01 17.35-48.37 30.7-94.79 32.59m-33.25 26.93c9.22.28 17.02.17 25.76-.4 38.48 82.23 104.06 167.33 104.06 217.5 0 32.43-22.33 54.23-22.33 54.23l-3.79-12.21s-18.1 41.42-31.43 51.87l.42-.27s41.64-16.59 55.84-28.1v.21l-10.53-2.74h-.38c26.54-24.54 25.05-63.46 25.05-63.46 2.14-59.7-62.53-128.28-99.97-218.47 84.33-10.5 143.22-62.97 143.22-120.04 0-79.99-48.92-108.12-93.41-108.73-15.69-.15-33.09 2.33-53.43 14.39-23.73 14.03-43.54 40.14-43.54 90.98 0 49.85 11.59 80.79 18.14 98.25l-.19.17c-20.2-.71-40.12-3.13-57.49-6.74 0 0-15.7-4.67-22.77-6.83 18.84-11.04 37.27-28.98 43.74-57.06 4.1-20.12 2.18-45.72-7.81-78.31-2.14-31.89 11.76-79.23 22.54-114.42l12.08-32.15c6.44-14.21 16.4-18.21 16.4-18.21s24.72-3.62 31.66-18.61c9.3-19.92-6.62-30.08-6.62-30.08 5.7 23.97-15.05 26.58-27.28 28.4l-1 .14c-11.96 1.73-19.94.68-19.94.68 1.53 8.13-14 51.39-12.94 48.56 0 0-19.93 57.25-28.31 82.44-8.76 25.91-14.69 62.73-14.69 62.73s59.79 99.64-73.95 144.58c0 0 9.41.98 16.66.04 15.1 5.93 34.64 10.02 34.64 10.02 23.77 6.43 50.58 10.63 81.59 11.64z"/><path d="m2602.52 2409.23s-14.09-24.27-36.03-10.16c0 0 .51 14.44 12.94 13.06 12.43-1.41 10.79-6.5 23.09-2.9zm-51.54-3.09s-46.26 14.75-74.98-8.69l15.13-26.07s43.86 35.79 76.3-15.56c0 0-24.18-31.61-75.2-22.73 0 0 13.9-23.9 47.75-23.69 33.87.24 66.82 34.28 77.41 22.8 0 0-3.56 48.5 55.6 65.62 0 0 13.53-11.02 15.96-17.21 0 0 19.4 15.29 18.36 52.79-1.05 37.53-22.21 54.59-29.76 60.99 0 0 4.45-22.41-5.5-43.28-5.79-12.14-18.55-27.29-38.08-27.87 0 0-16.06-.28-26.72 2.95s-53.03 17.49-56.27-20.05z"/><path d="m2196.18 1644.08h14.18v-100.23h36.9v-12.27h-51.08z"/><path d="m2260.48 1531.58h13.5391v120.902h-13.5391z"/><path d="m2323.98 1514.81c-4.03-14.01-9.84-19.02-20.15-19.02-3.23 0-6.77.33-9.19.98l.65 12.24c2.09-.96 4.51-1.61 7.41-1.61 3.87 0 6.77 1.77 9.03 10.33l3.21 12.56-25.93 83.5h14.18l18.37-67.05h.32l17.08 67.05h13.54z"/><path d="m2447.91 1531.58h-15.47l-17.24 69.47h-.33l-15.79-69.47h-15.47l-21.77 82.21h14.19l15.63-68.68h.32l15.65 68.68h16.11l16.27-68.68h.32l15.47 68.68h13.55z"/><path d="m2509.64 1541.41c12.89 0 18.85 10.63 18.85 31.28 0 20.61-5.96 31.25-18.85 31.25-12.91 0-18.86-10.64-18.86-31.25 0-20.65 5.95-31.28 18.86-31.28zm0 73.5c21.75 0 33.03-16.44 33.03-42.22 0-25.79-11.28-42.23-33.03-42.23-21.77 0-33.06 16.44-33.06 42.23 0 25.78 11.29 42.22 33.06 42.22"/><path d="m2585.86 1603.94c-12.41 0-18.06-10.64-18.06-31.25 0-20.65 5.65-31.28 18.06-31.28s18.05 10.63 18.05 31.28c0 20.61-5.64 31.25-18.05 31.25zm31.59-57.2c0-5 .48-10.16.64-15.16h-13.05l-.49 12.09h-.32c-3.55-6.44-9.67-13.21-21.59-13.21-16.93 0-28.37 13.86-28.37 42.23 0 28.36 11.44 42.22 28.37 42.22 9.34 0 15.47-3.71 20.95-12.4h.32v49.97h13.54z"/><path d="m2635.81 1596.05c0 5.95-.48 11.93-.64 17.74h13.05l.49-12.9h.33c4.34 9.99 11.27 14.02 23.36 14.02v-13.38c-1.61.33-3.39.47-5.16.47-10.48 0-17.89-9-17.89-26.9v-43.52h-13.54z"/><path d="m2726.06 1571.87c-2.41.34-5.79.34-9.51.34-15.95 0-23.53-7.59-23.53-17.09 0-8.72 4.52-14.36 13.87-14.36 11.76 0 19.17 9.51 19.17 20.79zm-39.32 36.27c6.77 4.36 15.15 6.77 23.2 6.77 12.09 0 19.34-5.16 21.93-7.74 3.54-3.54 7.09-8.54 7.09-20.15v-42.87c0-4.82.32-9.67.65-12.57h-12.26l-.8 11.12h-.32c-3.71-6.28-10.48-12.24-23.05-12.24-13.54 0-23.69 7.88-23.69 23.68 0 15.97 10.48 27.72 38.68 27.72h7.89v3.71c0 6.14-.47 9.67-3.06 13.22-2.73 3.72-8.06 5.15-13.7 5.15-8.38 0-16.44-3.37-21.11-8.53z"/><path d="m2801.16 1578.97c0 17.08-5.32 25.62-16.12 25.62-8.69 0-16.43-6.45-16.76-25.62zm-32.88-10.32c0-19.02 7.41-27.89 22.41-27.89 6.77 0 14.18 3.39 18.86 6.79l.64-12.26c-6.45-3.06-14.82-4.83-23.05-4.83-21.75 0-33.04 16.44-33.04 42.23 0 25.78 11.29 42.22 31.75 42.22 18.54 0 28.86-14.84 28.86-39v-7.26z"/><path d="m2865.95 1532.54c-3.23-1.12-7.74-2.08-11.44-2.08-12.42 0-19.02 4.99-19.02 19.5v52.86h-13.06v10.97h13.06v16.75l13.54 4.04v-20.79h16.92v-10.97h-16.92v-48.51c0-9.35 2.41-12.9 8.53-12.9 3.4 0 5.81.97 8.39 2.1z"/><path d="m2877.38 1652.48h13.54v-49.97h.33c3.54 6.92 10.64 12.4 20.14 12.4 14.34 0 24.01-8.22 24.01-26.29v-57.04h-13.53v53.03c0 13.05-4.83 18.68-13.54 18.68-10.64 0-17.41-7.4-17.41-22.22v-49.49h-13.54z"/><path d="m3062.72 1533.84c-6.77-2.09-13.86-3.38-20.47-3.38-35.61 0-50.61 27.08-50.61 57.54 0 35.13 20.47 57.21 49.81 57.21 8.06 0 16.12-1.45 21.27-4.04v-13.86c-6.12 3.87-13.21 5.64-21.11 5.64-18.38 0-35.14-14.64-35.14-42.05 0-29.02 11.61-48.2 36.1-48.2 7.26 0 14.35 1.94 20.15 5.33z"/><path d="m3106.07 1514.81c-4.03-14.01-9.84-19.02-20.15-19.02-3.22 0-6.77.33-9.19.98l.65 12.24c2.09-.96 4.52-1.61 7.41-1.61 3.87 0 6.77 1.77 9.03 10.33l3.23 12.56-25.95 83.5h14.18l18.37-67.05h.33l17.08 67.05h13.54z"/><path d="m3145.86 1596.05c0 5.95-.47 11.93-.63 17.74h13.05l.48-12.26h.33c4.36 9.35 11.28 13.38 20.3 13.38 8.71 0 15.16-4.51 19.34-12.91 4.36 8.08 10.64 12.91 19.99 12.91 14.18 0 23.86-8.22 23.86-26.29v-57.04h-13.55v56.42c0 10.47-4.5 15.29-12.56 15.29-9.99 0-15.47-6.11-15.47-20.95v-50.76h-13.55v56.42c0 10.47-4.51 15.29-12.56 15.29-10 0-15.47-6.11-15.47-20.95v-50.76h-13.56z"/><path d="m3259 1596.05c0 5.95-.48 11.93-.64 17.74h13.06l.47-12.9h.33c4.34 9.99 11.28 14.02 23.37 14.02v-13.38c-1.62.33-3.38.47-5.15.47-10.49 0-17.9-9-17.9-26.9v-43.52h-13.54z"/><path d="m3364.73 1549.32c0-5.98.48-11.93.65-17.74h-13.07l-.47 12.27h-.33c-4.35-9.37-11.29-13.39-20.79-13.39-14.34 0-24.02 8.22-24.02 26.27v57.06h13.54v-53.03c0-13.07 4.84-18.71 13.55-18.71 10.62 0 17.4 7.41 17.4 22.25v49.49h13.54z"/><path d="m2197.55 1461.54h14.82l18.39-91.23h.31l20.15 91.23h18.05l20.15-91.23h.32l19.67 91.23h13.53l-24.49-112.5h-16.77l-21.27 96.39h-.32l-21.28-96.39h-16.76z"/><path d="m2373.22 1396.42c0 17.08-5.32 25.64-16.12 25.64-8.71 0-16.43-6.45-16.76-25.64zm-32.88-10.32c0-19 7.41-27.86 22.41-27.86 6.76 0 14.18 3.37 18.85 6.76l.65-12.26c-6.45-3.06-14.83-4.83-23.06-4.83-21.75 0-33.04 16.44-33.04 42.22 0 25.79 11.29 42.23 31.75 42.23 18.54 0 28.85-14.82 28.85-39v-7.26z"/><path d="m2406.24 1349.04h13.5508v120.883h-13.5508z"/><path d="m2440.4 1365c6.14-3.71 12.58-6.12 19.35-6.12 10.32 0 15.64 5.31 15.64 11.59 0 5.64-2.91 9.51-10.48 12.9l-9.03 4.04c-11.76 5.31-16.12 10.63-16.12 21.1 0 13.55 10.48 23.85 26.44 23.85 6.77 0 12.73-1.12 17.41-2.89l-.65-11.61c-4.18 1.94-9.99 3.55-16.11 3.55-8.86 0-13.54-4.84-13.54-11.3 0-6.6 4.83-10.29 13.86-13.85l4.84-1.94c9.98-4.01 16.27-10.79 16.27-20.94 0-14.19-7.58-25.47-26.44-25.47-8.53 0-16.27 1.77-22.24 4.83z"/><path d="m2503.59 1469.92h13.54v-49.96h.31c3.56 6.93 10.64 12.4 20.15 12.4 14.35 0 24.02-8.22 24.02-26.26v-57.06h-13.54v53.02c0 13.07-4.84 18.71-13.53 18.71-10.65 0-17.41-7.43-17.41-22.25v-49.48h-13.54z"/><path d="m2696.34 1353.72c-6.62-2.42-17.9-5.81-27.89-5.81-35.62 0-50.6 27.08-50.6 57.54 0 35.14 20.46 57.22 49.79 57.22 9.68 0 18.7-1.3 26.44-5v-14.17c-8.54 4.34-18.05 6.92-26.27 6.92-18.37 0-35.14-14.67-35.14-42.07 0-29.02 11.6-48.18 36.11-48.18 4.51 0 10.31 1.12 14.02 3.06v35.46h-18.86v12.23h32.4z"/><path d="m2747.57 1358.88c12.91 0 18.88 10.64 18.88 31.25 0 20.63-5.97 31.28-18.88 31.28-12.89 0-18.85-10.65-18.85-31.28 0-20.61 5.96-31.25 18.85-31.25zm0 73.48c21.77 0 33.06-16.44 33.06-42.23 0-25.78-11.29-42.22-33.06-42.22-21.75 0-33.03 16.44-33.03 42.22 0 25.79 11.28 42.23 33.03 42.23"/><path d="m2787.87 1431.24h14.83l18.05-68.66h.32l18.37 68.66h14.19l-24.66-82.2h-16.12z"/><path d="m2907.94 1396.42c0 17.08-5.32 25.64-16.12 25.64-8.7 0-16.45-6.45-16.77-25.64zm-32.89-10.32c0-19 7.42-27.86 22.4-27.86 6.78 0 14.19 3.37 18.86 6.76l.65-12.26c-6.45-3.06-14.83-4.83-23.04-4.83-21.77 0-33.05 16.44-33.05 42.22 0 25.79 11.28 42.23 31.75 42.23 18.53 0 28.85-14.82 28.85-39v-7.26z"/><path d="m2936.45 1413.5c0 5.98-.48 11.93-.64 17.74h13.06l.48-12.89h.32c4.34 9.99 11.28 14.01 23.37 14.01v-13.38c-1.62.33-3.38.5-5.16.5-10.47 0-17.89-9.03-17.89-26.93v-43.51h-13.54z"/><path d="m2984.15 1413.5c0 5.98-.47 11.93-.65 17.74h13.07l.48-12.26h.32c4.35 9.36 11.29 13.38 20.8 13.38 14.33 0 24.01-8.22 24.01-26.26v-57.06h-13.53v53.02c0 13.07-4.85 18.71-13.56 18.71-10.62 0-17.4-7.43-17.4-22.25v-49.48h-13.54z"/><path d="m3061.83 1413.5c0 5.98-.49 11.93-.64 17.74h13.06l.47-12.26h.33c4.35 9.36 11.28 13.38 20.31 13.38 8.7 0 15.15-4.51 19.34-12.88 4.34 8.05 10.64 12.88 19.98 12.88 14.19 0 23.86-8.22 23.86-26.26v-57.06h-13.54v56.41c0 10.47-4.52 15.32-12.58 15.32-9.99 0-15.47-6.14-15.47-20.95v-50.78h-13.54v56.41c0 10.47-4.51 15.32-12.57 15.32-9.99 0-15.47-6.14-15.47-20.95v-50.78h-13.54z"/><path d="m3221.22 1396.42c0 17.08-5.31 25.64-16.11 25.64-8.7 0-16.45-6.45-16.77-25.64zm-32.88-10.32c0-19 7.42-27.86 22.4-27.86 6.77 0 14.18 3.37 18.85 6.76l.65-12.26c-6.43-3.06-14.82-4.83-23.03-4.83-21.78 0-33.05 16.44-33.05 42.22 0 25.79 11.27 42.23 31.75 42.23 18.54 0 28.85-14.82 28.85-39v-7.26z"/><path d="m3249.74 1413.5c0 5.98-.48 11.93-.65 17.74h13.06l.48-12.26h.33c4.34 9.36 11.28 13.38 20.79 13.38 14.34 0 24.01-8.22 24.01-26.26v-57.06h-13.53v53.02c0 13.07-4.85 18.71-13.55 18.71-10.62 0-17.41-7.43-17.41-22.25v-49.48h-13.53z"/><path d="m3363.68 1350.01c-3.23-1.14-7.73-2.1-11.44-2.1-12.41 0-19.02 5-19.02 19.51v52.85h-13.06v10.97h13.06v16.75l13.54 4.04v-20.79h16.92v-10.97h-16.92v-48.51c0-9.34 2.41-12.88 8.55-12.88 3.38 0 5.78.96 8.37 2.08z"/><path d="m3378.61 1709.06h-1199.01c-2.44 0-4.42 1.97-4.42 4.4 0 2.44 1.98 4.42 4.42 4.42h1199.01c2.43 0 4.41-1.98 4.41-4.42 0-2.43-1.98-4.4-4.41-4.4"/><path d="m1088.16 1046.53c-6.16-3.22-12.46-5.8-18.9-7.73-6.45-1.93-12.95-3.31-19.5-4.14-6.55-.82-13.34-1.23-20.36-1.23-12.96 0-24.58 1.78-34.853 5.37-10.277 3.58-19.195 8.87-26.75 15.84-7.559 6.99-13.211 15.15-16.973 24.49-3.758 9.36-5.636 19.61-5.636 30.78 0 12.82 2.214 24.05 6.66 33.67 4.437 9.64 10.648 17.64 18.636 24.02 7.985 6.37 17.079 11.08 27.286 14.13 10.2 3.04 20.96 4.56 32.28 4.56 16.9 0 36.05-3.76 57.47-11.28v-39.53c-7.38 4.58-14.66 8.4-21.86 11.44s-15.67 4.56-25.41 4.56c-8.66 0-16.75-1.71-24.27-5.15s-13.58-8.34-18.16-14.72c-4.582-6.38-6.875-13.82-6.875-22.34 0-7.52 2.004-14.42 6.02-20.69 4.005-6.26 9.575-11.24 16.705-14.92 7.12-3.69 15.16-5.54 24.11-5.54 7.23 0 14.08.88 20.52 2.63 6.45 1.76 11.87 3.71 16.28 5.86 4.4 2.15 8.93 4.69 13.58 7.63z"/><path d="m1208.15 1138.81-14.28-38.78c-5.88 5.59-11.82 8.38-17.83 8.38-5.45 0-10.16-1.85-14.13-5.53-3.98-3.69-7.79-10.52-11.44-20.47v-47.05h-38.67v109.36h38.67v-26.43c2.43 6.51 6.73 12.87 12.89 19.06 6.16 6.2 13.39 9.3 21.7 9.3 4.36 0 8.18-.64 11.44-1.93s7.14-3.26 11.65-5.91"/><path d="m1291.08 1090.15c0 8.66-1.88 15.45-5.64 20.35-3.76 4.91-9.22 7.36-16.38 7.36-7.09 0-12.51-2.45-16.27-7.36-3.76-4.9-5.64-11.69-5.64-20.35 0-8.6 1.89-15.4 5.69-20.41s9.2-7.52 16.22-7.52c7.16 0 12.62 2.49 16.38 7.46 3.76 4.98 5.64 11.8 5.64 20.47zm40.72 0c0-10.89-2.37-20.59-7.09-29.11-4.73-8.53-11.8-15.26-21.22-20.2s-20.89-7.41-34.43-7.41c-13.53 0-25.01 2.47-34.43 7.41s-16.47 11.67-21.16 20.2c-4.69 8.52-7.03 18.22-7.03 29.11 0 8.23 1.3 15.72 3.92 22.45 2.61 6.73 6.58 12.69 11.92 17.88 5.33 5.19 11.9 9.19 19.71 11.98 7.8 2.79 16.83 4.19 27.07 4.19 10.32 0 19.43-1.42 27.34-4.24 7.91-2.83 14.46-6.79 19.66-11.87 5.19-5.09 9.11-11.03 11.76-17.83 2.65-6.81 3.98-14.33 3.98-22.56"/><path d="m1468.65 1035.36h-38.67v58.98c0 6.01-.99 11.26-2.95 15.73-1.98 4.48-6.29 6.72-12.95 6.72-3.15 0-5.93-.59-8.32-1.78-2.41-1.17-4.55-2.7-6.45-4.56-1.9-1.87-3.49-3.65-4.78-5.37s-2.62-3.55-3.97-5.48v-64.24h-38.68v109.36h38.68v-15.69c6.08 6.52 12.19 11.09 18.31 13.69 6.13 2.62 12.95 3.93 20.47 3.93 26.21 0 39.31-15.68 39.31-47.05z"/><path d="m1565.12 1156.53c-5.88 1.36-10.64 2.04-14.29 2.04-4.16 0-7.4-1.35-9.72-4.08-2.33-2.72-3.49-6.59-3.49-11.6v-3.87h19.55v-26.21h-19.55v-77.45h-38.78v77.45h-17.83v26.21h17.83v1.94c0 7.66 1.48 14.91 4.46 21.75 2.96 6.84 7.93 12.48 14.87 16.92 6.95 4.44 16.12 6.66 27.5 6.66 6.45 0 12.93-.68 19.45-2.04z"/><path d="m1638.81 1061.79v25.89c-9.17-3.72-15.87-7.07-20.09-10.05-4.23-2.97-6.34-7-6.34-12.08 0-3.66 1.06-6.45 3.17-8.38 2.11-1.94 4.57-2.9 7.36-2.9 2.65 0 5.28.73 7.9 2.2 2.61 1.47 5.27 3.24 8 5.32zm53.82-20.95c-5.66-2.22-10.89-4.01-15.69-5.37s-10.56-2.04-17.29-2.04c-6.38 0-10.82 1.13-13.32 3.38-2.51 2.26-4.3 5-5.37 8.22-4.16-3.37-8.78-6.14-13.86-8.32-5.09-2.19-11.75-3.28-19.98-3.28-7.95 0-14.38 1.37-19.28 4.14-4.91 2.75-8.35 6.23-10.32 10.41-1.97 4.2-2.95 8.5-2.95 12.95 0 6.73 1.7 12.3 5.1 16.7 3.4 4.41 7.97 8 13.7 10.8 5.73 2.79 13.32 5.69 22.77 8.7 5.37 1.72 9.44 3.03 12.19 3.91 2.76.9 4.82 1.61 6.18 2.1 1.36.5 2.79 1.15 4.3 1.94 0 5.3-1.08 9.45-3.22 12.46-2.15 3.01-6.81 4.51-13.97 4.51-8.45 0-16.29-1.86-23.52-5.59-7.24-3.72-13.86-8.52-19.88-14.39v29.65c4.8 3.44 9.99 6.25 15.58 8.43 5.58 2.18 11.42 3.81 17.51 4.89 6.08 1.07 12.24 1.61 18.48 1.61 15.82 0 27.72-3.07 35.71-9.18 7.99-6.13 11.98-14.56 11.98-25.3v-42.22c0-4.01.38-7 1.13-8.96.75-1.98 2.13-2.96 4.13-2.96 2.44 0 5.73 1.03 9.89 3.11z"/><path d="m1883.84 1109.05c0 12.1-2.31 21.55-6.93 28.3-4.62 6.78-10.17 11.3-16.65 13.6-6.49 2.29-13.09 3.43-19.82 3.43h-19.12v-88.19h19.12c11.74 0 21.91 2.79 30.51 8.38 8.59 5.59 12.89 17.08 12.89 34.48zm45.65-1.93c0-15.25-2.78-27.5-8.32-36.74-5.55-9.24-12.09-16.72-19.61-22.45-10.67-8.38-25.6-12.57-44.79-12.57h-80.35v148.89h61.87c9.31 0 17.28-.49 23.9-1.45 6.62-.97 12.59-2.33 17.89-4.08 5.3-1.76 9.81-3.73 13.53-5.92 3.72-2.18 7.05-4.52 9.99-7.03 5.09-4.15 9.54-9.06 13.38-14.72 3.83-5.65 6.87-12.2 9.13-19.65 2.25-7.45 3.38-15.54 3.38-24.28"/><path d="m2010.49 1061.79v25.89c-9.17-3.72-15.87-7.07-20.09-10.05-4.23-2.97-6.34-7-6.34-12.08 0-3.66 1.06-6.45 3.17-8.38 2.11-1.94 4.57-2.9 7.36-2.9 2.65 0 5.28.73 7.9 2.2 2.61 1.47 5.27 3.24 8 5.32zm53.82-20.95c-5.66-2.22-10.89-4.01-15.69-5.37s-10.56-2.04-17.29-2.04c-6.38 0-10.82 1.13-13.32 3.38-2.51 2.26-4.3 5-5.37 8.22-4.16-3.37-8.78-6.14-13.86-8.32-5.09-2.19-11.75-3.28-19.98-3.28-7.95 0-14.38 1.37-19.28 4.14-4.91 2.75-8.35 6.23-10.32 10.41-1.97 4.2-2.95 8.5-2.95 12.95 0 6.73 1.7 12.3 5.1 16.7 3.4 4.41 7.97 8 13.7 10.8 5.73 2.79 13.32 5.69 22.77 8.7 5.37 1.72 9.44 3.03 12.19 3.91 2.76.9 4.82 1.61 6.18 2.1 1.36.5 2.79 1.15 4.3 1.94 0 5.3-1.08 9.45-3.22 12.46-2.15 3.01-6.81 4.51-13.97 4.51-8.45 0-16.29-1.86-23.52-5.59-7.24-3.72-13.86-8.52-19.88-14.39v29.65c4.8 3.44 9.99 6.25 15.58 8.43 5.58 2.18 11.42 3.81 17.51 4.89 6.08 1.07 12.24 1.61 18.47 1.61 15.83 0 27.73-3.07 35.72-9.18 7.99-6.13 11.98-14.56 11.98-25.3v-42.22c0-4.01.38-7 1.13-8.96.75-1.98 2.13-2.96 4.13-2.96 2.44 0 5.73 1.03 9.89 3.11z"/><path d="m2162.71 1041.7c-4.02-1.93-9.55-3.8-16.6-5.59-7.06-1.78-13.81-2.68-20.25-2.68-27.86 0-41.79 13.6-41.79 40.82v43.61h-17.51v6.77l51.89 52.85h4.4v-32.76h36.95v-26.86h-36.95v-35.02c0-4.08.25-7.37.75-9.88s1.92-4.6 4.25-6.29c2.32-1.68 5.85-2.52 10.58-2.52 6.15 0 14.25 2.58 24.28 7.73z"/><path d="m2259.06 1090.15c0 9.38-2.11 16.52-6.34 21.42-4.22 4.91-9.23 7.37-15.03 7.37-5.81 0-12.32-2.33-19.56-6.99v-41.78c5.44-5.16 11.97-7.74 19.56-7.74 4.79 0 9.56 1.95 14.28 5.86 4.73 3.9 7.09 11.18 7.09 21.86zm40.72-.86c0-12.68-2.48-23.19-7.42-31.53-4.94-8.35-11.24-14.49-18.9-18.42-7.67-3.94-15.47-5.91-23.42-5.91-5.73 0-10.68.66-14.88 1.99-4.18 1.32-7.45 2.75-9.77 4.3-2.33 1.53-4.75 3.38-7.26 5.52v-9.88h-38.67v148.89h38.67v-45.98c2.87 2.22 6.81 4.17 11.82 5.86 5.01 1.68 10.81 2.52 17.4 2.52 8.81 0 16.59-1.59 23.31-4.78 6.73-3.19 12.23-7.5 16.49-12.94 4.27-5.44 7.43-11.56 9.51-18.31 2.08-6.78 3.12-13.88 3.12-21.33"/><path d="m2318.68 1035.36h38.7813v148.891h-38.7813z"/><path d="m2501.3 1144.72-74.34-159.099h-39.1l30.08 64.029-43.29 95.07h41.57l22.24-54.36 25.24 54.36z"/><path d="m2579.61 1102.93c0 5.52-1.89 9.93-5.64 13.27-3.76 3.32-7.96 4.99-12.62 4.99-5.95 0-10.62-2-14.02-6.01-3.4-4.02-5.1-8.24-5.1-12.68 0-3.08.73-5.95 2.19-8.59 1.48-2.65 3.56-4.78 6.23-6.4 2.7-1.6 5.9-2.41 9.62-2.41 5.59 0 10.21 1.76 13.86 5.26 3.65 3.51 5.48 7.7 5.48 12.57zm7.73-87.98c0 4.8-2.55 7.89-7.68 9.3-5.12 1.38-10.4 2.09-15.84 2.09-8.96 0-15.41-.95-19.4-2.85-3.96-1.9-5.95-4.93-5.95-9.08 0-8.16 8.23-12.24 24.7-12.24 7.38 0 13.26 1.05 17.62 3.17 4.37 2.11 6.55 5.31 6.55 9.61zm35.02 106.46h-19.12c6.73-5.87 10.1-13.07 10.1-21.6 0-4.51-.95-8.84-2.84-12.99-1.91-4.15-4.7-7.85-8.38-11.07-3.69-3.22-8.24-5.86-13.65-7.89-5.4-2.05-11.59-3.28-18.53-3.71-8.95-.36-13.43-2.75-13.43-7.2 0-1.72.58-2.97 1.72-3.76 1.15-.79 2.95-1.37 5.43-1.77 2.46-.39 6.64-.84 12.51-1.34 6.66-.58 12.85-1.57 18.59-3.01 5.73-1.44 11.06-4.44 16-9.02s7.41-11.14 7.41-19.66c0-6.81-1.84-12.82-5.52-18.05-3.69-5.219-9.66-9.301-17.89-12.238-8.24-2.942-19.13-4.411-32.66-4.411-19.48 0-33.79 2.618-42.91 7.84-9.14 5.231-13.7 12.209-13.7 20.949 0 2.36.59 5.09 1.77 8.16 1.19 3.08 3.69 6.06 7.52 8.92s9.4 4.8 16.7 5.8c-2.57.93-4.79 2.74-6.66 5.43-1.86 2.68-2.79 5.49-2.79 8.43 0 3.8 1.31 7.56 3.92 11.28s6.86 6.12 12.73 7.2c-8.16 2.14-15.21 6.19-21.16 12.13-5.95 5.95-8.92 13.65-8.92 23.1 0 7.16 1.38 13.43 4.14 18.8s6.57 9.73 11.44 13.1 10.53 5.86 16.97 7.46c6.45 1.63 13.5 2.43 21.16 2.43h60.05z"/><path d="m2751.38 1035.36h-38.67v15.58c-5.46-5.87-11.2-10.27-17.18-13.16-6-2.91-13.21-4.35-21.6-4.35-16.51 0-27.18 4.81-32.04 14.45-4.85 9.63-7.28 20.5-7.28 32.6v64.24h38.67v-59.09c0-5.94.99-11.15 2.96-15.62 1.97-4.48 6.27-6.72 12.87-6.72 5.68 0 10.17 1.61 13.47 4.83 3.3 3.23 6.68 7.35 10.13 12.36v64.24h38.67z"/><path d="m864.617 877.199c0 6.871-2.254 11.672-6.765 14.391-4.512 2.73-11.856 4.082-22.024 4.082h-9.449v-35.883h9.668c10.957 0 18.457 1.211 22.504 3.602 4.043 2.398 6.066 7 6.066 13.808zm61.02-101.84h-48.235l-11.711 26.43c-4.296 9.672-8.164 16.742-11.597 21.211-3.442 4.48-6.789 7.34-10.047 8.59-3.262 1.262-7.465 1.89-12.621 1.89h-5.047v-58.121h-44.902v148.891h76.375c12.316 0 22.414-2.512 30.293-7.52 7.875-5.011 13.55-11.109 17.027-18.261 3.473-7.16 5.211-13.969 5.211-20.41 0-7.52-1.453-13.879-4.352-19.071-2.902-5.187-5.965-8.968-9.183-11.328-3.227-2.371-6.844-4.621-10.852-6.769 4.797-2.789 8.754-6.102 11.871-9.942 3.113-3.828 7.36-11.578 12.731-23.25z"/><path d="m1056.47 775.359h-38.67v56.719c0 .434.02.844.06 1.231.03.402.05 1.242.05 2.531 0 5.219-1.11 10.031-3.33 14.39-2.22 4.372-6.45 6.559-12.68 6.559-4.869 0-9.166-1.629-12.884-4.891-3.727-3.257-7.274-7.359-10.637-12.296v-64.243h-38.672v148.891h38.672v-55.219c6.371 6.809 12.676 11.449 18.906 13.91 6.235 2.481 12.855 3.707 19.875 3.707 26.21 0 39.31-14.718 39.31-44.148z"/><path d="m1139.3 801.789v25.891c-9.17-3.719-15.87-7.071-20.09-10.051-4.23-2.969-6.34-7-6.34-12.078 0-3.66 1.06-6.449 3.17-8.379 2.11-1.942 4.57-2.902 7.36-2.902 2.64 0 5.28.73 7.89 2.199 2.62 1.472 5.28 3.242 8.01 5.32zm53.82-20.949c-5.66-2.219-10.89-4.012-15.69-5.371-4.8-1.36-10.56-2.039-17.29-2.039-6.38 0-10.82 1.129-13.32 3.379-2.51 2.261-4.3 5-5.37 8.222-4.16-3.371-8.78-6.14-13.86-8.32-5.09-2.191-11.75-3.281-19.98-3.281-7.95 0-14.38 1.371-19.28 4.14-4.91 2.75-8.35 6.231-10.32 10.41-1.97 4.2-2.95 8.5-2.95 12.95 0 6.73 1.7 12.3 5.1 16.699 3.4 4.41 7.97 8 13.7 10.801 5.72 2.789 13.32 5.691 22.77 8.699 5.37 1.723 9.43 3.031 12.19 3.91 2.76.902 4.82 1.609 6.18 2.102 1.36.5 2.79 1.148 4.3 1.937 0 5.301-1.08 9.453-3.23 12.461-2.14 3.012-6.8 4.512-13.96 4.512-8.45 0-16.29-1.86-23.53-5.59-7.23-3.723-13.85-8.52-19.87-14.391v29.649c4.8 3.441 9.99 6.25 15.58 8.429 5.58 2.184 11.42 3.813 17.51 4.891 6.08 1.07 12.24 1.609 18.47 1.609 15.83 0 27.73-3.066 35.72-9.179 7.98-6.129 11.98-14.559 11.98-25.297v-42.223c0-4.008.37-7 1.13-8.961.75-1.976 2.13-2.957 4.13-2.957 2.43 0 5.73 1.028 9.89 3.11z"/><path d="m1325.14 775.359h-38.68v58.981c0 6.012-.98 11.262-2.95 15.73-1.97 4.481-6.28 6.719-12.94 6.719-3.16 0-5.93-.59-8.33-1.777-2.4-1.172-4.55-2.703-6.44-4.563-1.9-1.867-3.5-3.648-4.78-5.371-1.29-1.719-2.62-3.547-3.98-5.476v-64.243h-38.67v109.36h38.67v-15.688c6.09 6.52 12.19 11.09 18.32 13.688 6.12 2.621 12.94 3.929 20.46 3.929 26.21 0 39.32-15.679 39.32-47.046z"/><path d="m1427.72 830.148c0 9.383-2.11 16.524-6.33 21.422-4.23 4.91-9.24 7.371-15.04 7.371s-12.32-2.332-19.55-6.992v-41.777c5.44-5.16 11.95-7.742 19.55-7.742 4.79 0 9.56 1.949 14.28 5.859 4.73 3.902 7.09 11.18 7.09 21.859zm40.72-.859c0-12.68-2.47-23.187-7.41-31.527-4.95-8.352-11.25-14.492-18.91-18.422-7.67-3.942-15.47-5.91-23.42-5.91-5.73 0-10.69.66-14.88 1.992-4.19 1.316-7.45 2.75-9.77 4.297-2.33 1.531-4.75 3.383-7.25 5.519v-9.879h-38.67v148.891h38.67v-45.98c2.86 2.218 6.8 4.171 11.81 5.859 5.01 1.68 10.81 2.519 17.41 2.519 8.8 0 16.57-1.589 23.31-4.777 6.72-3.191 12.22-7.5 16.49-12.941 4.25-5.442 7.42-11.559 9.5-18.309 2.08-6.781 3.12-13.883 3.12-21.332"/><path d="m1548.14 801.789v25.891c-9.17-3.719-15.86-7.071-20.08-10.051-4.23-2.969-6.34-7-6.34-12.078 0-3.66 1.05-6.449 3.17-8.379 2.11-1.942 4.56-2.902 7.36-2.902 2.64 0 5.27.73 7.89 2.199 2.61 1.472 5.28 3.242 8 5.32zm53.82-20.949c-5.66-2.219-10.89-4.012-15.68-5.371-4.8-1.36-10.57-2.039-17.3-2.039-6.37 0-10.81 1.129-13.32 3.379-2.51 2.261-4.29 5-5.37 8.222-4.15-3.371-8.77-6.14-13.85-8.32-5.09-2.191-11.75-3.281-19.98-3.281-7.95 0-14.38 1.371-19.29 4.14-4.9 2.75-8.34 6.231-10.31 10.41-1.97 4.2-2.95 8.5-2.95 12.95 0 6.73 1.7 12.3 5.1 16.699 3.4 4.41 7.96 8 13.7 10.801 5.72 2.789 13.32 5.691 22.77 8.699 5.37 1.723 9.43 3.031 12.19 3.91 2.75.902 4.82 1.609 6.18 2.102 1.36.5 2.79 1.148 4.29 1.937 0 5.301-1.07 9.453-3.22 12.461-2.15 3.012-6.8 4.512-13.96 4.512-8.46 0-16.3-1.86-23.53-5.59-7.23-3.723-13.86-8.52-19.87-14.391v29.649c4.79 3.441 9.99 6.25 15.57 8.429 5.59 2.184 11.43 3.813 17.51 4.891 6.09 1.07 12.25 1.609 18.48 1.609 15.83 0 27.73-3.066 35.72-9.179 7.98-6.129 11.98-14.559 11.98-25.297v-42.223c0-4.008.37-7 1.12-8.961.76-1.976 2.13-2.957 4.14-2.957 2.43 0 5.73 1.028 9.88 3.11z"/><path d="m1713.36 878.809-14.29-38.778c-5.87 5.59-11.81 8.379-17.83 8.379-5.44 0-10.15-1.851-14.13-5.531-3.97-3.688-7.78-10.52-11.44-20.469v-47.051h-38.67v109.36h38.67v-26.43c2.44 6.512 6.73 12.871 12.89 19.063 6.16 6.199 13.39 9.296 21.7 9.296 4.37 0 8.18-.636 11.44-1.929 3.26-1.289 7.15-3.258 11.66-5.91"/><path d="m1808.86 781.699c-4.02-1.929-9.55-3.801-16.6-5.59-7.05-1.781-13.8-2.679-20.25-2.679-27.86 0-41.79 13.601-41.79 40.82v43.609h-17.51v6.77l51.89 52.851h4.4v-32.761h36.96v-26.86h-36.96v-35.019c0-4.078.25-7.371.76-9.879.49-2.512 1.91-4.602 4.24-6.289 2.32-1.684 5.85-2.524 10.58-2.524 6.16 0 14.25 2.582 24.28 7.731z"/><path d="m1942.6 775.359h-38.67v56.719c0 .434.01.844.05 1.231.03.402.05 1.242.05 2.531 0 5.219-1.11 10.031-3.33 14.39-2.22 4.372-6.44 6.559-12.67 6.559-4.88 0-9.17-1.629-12.89-4.891-3.73-3.257-7.27-7.359-10.64-12.296v-64.243h-38.67v148.891h38.67v-55.219c6.37 6.809 12.68 11.449 18.91 13.91 6.23 2.481 12.85 3.707 19.87 3.707 26.21 0 39.32-14.718 39.32-44.148z"/><path d="m2045.83 830.148c0 8.661-1.88 15.454-5.64 20.352-3.76 4.91-9.22 7.359-16.38 7.359-7.09 0-12.52-2.449-16.28-7.359-3.76-4.898-5.64-11.691-5.64-20.352 0-8.597 1.9-15.398 5.7-20.41 3.79-5.008 9.2-7.519 16.22-7.519 7.16 0 12.62 2.492 16.38 7.461 3.76 4.98 5.64 11.8 5.64 20.468zm40.71 0c0-10.886-2.36-20.589-7.09-29.109-4.72-8.527-11.8-15.258-21.21-20.199-9.42-4.942-20.9-7.41-34.43-7.41-13.54 0-25.02 2.468-34.43 7.41-9.42 4.941-16.47 11.672-21.16 20.199-4.69 8.52-7.04 18.223-7.04 29.109 0 8.231 1.31 15.723 3.92 22.454 2.61 6.726 6.59 12.687 11.93 17.878 5.33 5.192 11.9 9.192 19.71 11.981 7.8 2.789 16.82 4.187 27.07 4.187 10.31 0 19.42-1.418 27.34-4.238 7.91-2.832 14.46-6.789 19.66-11.871 5.19-5.09 9.11-11.027 11.76-17.828 2.64-6.813 3.97-14.332 3.97-22.563"/><path d="m2108.56 775.359h38.7813v148.891h-38.7813z"/><path d="m2357.89 775.359h-112.26v148.891h110.43v-29.871h-65.52v-27.277h62.52v-29.973h-62.52v-31.797h67.35z"/><path d="m2555.65 884.719-43.18-109.36h-24.38l-24.39 59.621-24.28-59.621h-24.38l-44.26 109.36h39.21l19.98-55.219 21.38 55.219h24.6l21.59-55.219 19.34 55.219z"/><path d="m2665.65 878.809-14.28-38.778c-5.87 5.59-11.82 8.379-17.83 8.379-5.44 0-10.15-1.851-14.14-5.531-3.96-3.688-7.78-10.52-11.43-20.469v-47.051h-38.67v109.36h38.67v-26.43c2.43 6.512 6.73 12.871 12.89 19.063 6.16 6.199 13.39 9.296 21.7 9.296 4.36 0 8.18-.636 11.43-1.929 3.27-1.289 7.15-3.258 11.66-5.91"/><path d="m2748.58 830.148c0 8.661-1.87 15.454-5.64 20.352-3.75 4.91-9.22 7.359-16.38 7.359-7.09 0-12.51-2.449-16.28-7.359-3.75-4.898-5.63-11.691-5.63-20.352 0-8.597 1.89-15.398 5.69-20.41 3.8-5.008 9.2-7.519 16.22-7.519 7.16 0 12.63 2.492 16.38 7.461 3.77 4.98 5.64 11.8 5.64 20.468zm40.72 0c0-10.886-2.37-20.589-7.09-29.109-4.73-8.527-11.8-15.258-21.22-20.199-9.42-4.942-20.89-7.41-34.43-7.41-13.53 0-25.01 2.468-34.42 7.41-9.43 4.941-16.48 11.672-21.17 20.199-4.69 8.52-7.03 18.223-7.03 29.109 0 8.231 1.3 15.723 3.92 22.454 2.61 6.726 6.58 12.687 11.92 17.878 5.34 5.192 11.91 9.192 19.71 11.981s16.83 4.187 27.07 4.187c10.32 0 19.43-1.418 27.34-4.238 7.92-2.832 14.47-6.789 19.66-11.871 5.19-5.09 9.12-11.027 11.76-17.828 2.65-6.813 3.98-14.332 3.98-22.563"/><path d="m2888.77 829.93c0 6.59-1.04 11.941-3.12 16.058-2.08 4.121-4.76 7.09-8.05 8.922-3.29 1.82-6.7 2.738-10.21 2.738-4.58 0-8.34-.738-11.28-2.207-2.94-1.472-5.69-3.312-8.27-5.531v-41.789c1.36-.711 2.81-1.519 4.35-2.41 1.54-.902 3.08-1.672 4.63-2.313 1.53-.648 3.18-1.179 4.94-1.609 1.75-.43 3.63-.648 5.63-.648 6.09 0 11.17 2.578 15.26 7.738 4.08 5.152 6.12 12.172 6.12 21.051zm40.71.859c0-7.301-1.03-14.348-3.11-21.16-2.08-6.809-5.25-12.938-9.51-18.43-4.26-5.469-9.74-9.801-16.43-12.988-6.7-3.191-14.49-4.781-23.37-4.781-7.16 0-12.8.75-16.92 2.25-4.11 1.511-8.22 3.511-12.3 6.019v-56.078h-38.67v159.098h38.67v-9.887c3.87 3.367 8.15 6.18 12.84 8.438 4.69 2.25 11.05 3.378 19.07 3.378 7.95 0 15.75-1.968 23.41-5.91 7.67-3.929 13.97-10.078 18.91-18.429 4.94-8.34 7.41-18.84 7.41-31.52"/><path d="m938.418 465.359h-112.258v148.891h110.434v-29.871h-65.531v-27.277h62.523v-29.973h-62.523v-31.797h67.355z"/><path d="m1077.31 465.359h-38.67v15.582c-5.46-5.871-11.18-10.269-17.18-13.16-6-2.91-13.19-4.351-21.597-4.351-16.5 0-27.175 4.808-32.031 14.449-4.859 9.633-7.285 20.5-7.285 32.601v64.239h38.672v-59.09c0-5.938.991-11.149 2.961-15.617 1.98-4.481 6.27-6.723 12.87-6.723 5.68 0 10.16 1.609 13.47 4.832 3.3 3.231 6.68 7.348 10.12 12.359v64.239h38.67z"/><path d="m1198.27 568.809-14.29-38.778c-5.87 5.59-11.81 8.379-17.83 8.379-5.44 0-10.15-1.851-14.12-5.531-3.98-3.688-7.79-10.52-11.44-20.469v-47.051h-38.68v109.36h38.68v-26.43c2.43 6.512 6.72 12.871 12.89 19.063 6.15 6.199 13.39 9.296 21.7 9.296 4.36 0 8.17-.636 11.44-1.929 3.25-1.289 7.14-3.258 11.65-5.91"/><path d="m1281.2 520.148c0 8.661-1.88 15.454-5.64 20.352-3.76 4.91-9.22 7.359-16.38 7.359-7.09 0-12.51-2.449-16.27-7.359-3.76-4.898-5.64-11.691-5.64-20.352 0-8.597 1.89-15.398 5.69-20.41 3.79-5.008 9.2-7.519 16.22-7.519 7.16 0 12.62 2.492 16.38 7.461 3.76 4.98 5.64 11.8 5.64 20.468zm40.71 0c0-10.886-2.36-20.589-7.09-29.109-4.72-8.527-11.8-15.258-21.21-20.199-9.42-4.942-20.9-7.41-34.43-7.41-13.54 0-25.01 2.468-34.43 7.41-9.42 4.941-16.47 11.672-21.16 20.199-4.69 8.52-7.04 18.223-7.04 29.109 0 8.231 1.31 15.723 3.92 22.454 2.62 6.73 6.59 12.687 11.93 17.878 5.33 5.192 11.9 9.192 19.71 11.981 7.8 2.789 16.83 4.187 27.07 4.187 10.31 0 19.42-1.418 27.34-4.238 7.91-2.832 14.46-6.789 19.66-11.871 5.19-5.09 9.11-11.027 11.76-17.828 2.65-6.813 3.97-14.332 3.97-22.563"/><path d="m1421.39 519.93c0 6.59-1.04 11.941-3.12 16.058-2.08 4.121-4.76 7.094-8.06 8.922-3.29 1.82-6.69 2.738-10.2 2.738-4.59 0-8.34-.738-11.28-2.207-2.94-1.472-5.69-3.312-8.27-5.531v-41.789c1.36-.711 2.81-1.519 4.35-2.41 1.54-.902 3.08-1.672 4.62-2.313 1.54-.648 3.18-1.179 4.94-1.609 1.75-.43 3.63-.648 5.64-.648 6.08 0 11.17 2.578 15.25 7.738 4.09 5.152 6.13 12.172 6.13 21.051zm40.71.859c0-7.301-1.04-14.348-3.12-21.16-2.08-6.809-5.24-12.938-9.5-18.43-4.27-5.469-9.74-9.801-16.44-12.988-6.7-3.191-14.49-4.781-23.36-4.781-7.17 0-12.8.75-16.92 2.25-4.12 1.511-8.22 3.511-12.3 6.019v-56.078h-38.67v159.098h38.67v-9.887c3.87 3.367 8.14 6.18 12.84 8.438 4.68 2.25 11.04 3.378 19.06 3.378 7.95 0 15.76-1.968 23.42-5.91 7.66-3.929 13.97-10.078 18.91-18.429 4.94-8.34 7.41-18.84 7.41-31.52"/><path d="m1558.03 529.809c0 7.031-1.74 12.621-5.21 16.82-3.48 4.18-8.47 6.281-14.99 6.281-6.44 0-11.65-2.129-15.63-6.398-3.97-4.25-5.96-9.821-5.96-16.703zm36.31-19.118h-77.03c1.51-6.66 5.19-12.101 11.07-16.32 5.87-4.23 12.53-6.34 19.98-6.34 13.03 0 27.43 3.649 43.18 10.949v-23.949c-5.66-2.941-12.51-5.609-20.57-8.011-8.05-2.391-18.31-3.59-30.77-3.59-13.47 0-24.93 2.511-34.38 7.519-9.45 5.012-16.53 11.813-21.22 20.41-4.69 8.59-7.03 18.332-7.03 29.223 0 10.738 2.34 20.348 7.03 28.84 4.69 8.476 11.77 15.137 21.22 19.976 9.45 4.832 20.91 7.25 34.38 7.25 8.87 0 17.45-1.91 25.72-5.738 8.27-3.84 15.08-10.101 20.41-18.808 5.34-8.692 8.01-19.922 8.01-33.672z"/><path d="m1672.97 491.789v25.891c-9.17-3.719-15.87-7.071-20.09-10.051-4.23-2.969-6.34-7-6.34-12.078 0-3.66 1.06-6.449 3.17-8.379 2.11-1.942 4.57-2.902 7.36-2.902 2.65 0 5.28.73 7.9 2.199 2.61 1.472 5.27 3.242 8 5.32zm53.82-20.949c-5.66-2.219-10.89-4.008-15.69-5.371-4.8-1.36-10.56-2.039-17.29-2.039-6.38 0-10.82 1.129-13.32 3.379-2.51 2.261-4.3 5-5.37 8.222-4.16-3.371-8.78-6.14-13.86-8.32-5.09-2.191-11.75-3.281-19.98-3.281-7.95 0-14.38 1.371-19.28 4.14-4.91 2.75-8.35 6.231-10.32 10.41-1.97 4.2-2.95 8.5-2.95 12.95 0 6.73 1.7 12.3 5.1 16.699 3.4 4.41 7.97 8 13.7 10.801 5.73 2.789 13.32 5.691 22.77 8.699 5.37 1.723 9.44 3.031 12.2 3.91 2.75.902 4.81 1.609 6.17 2.102 1.36.5 2.79 1.148 4.3 1.941 0 5.297-1.08 9.449-3.22 12.457-2.15 3.012-6.81 4.512-13.97 4.512-8.45 0-16.29-1.86-23.52-5.59-7.24-3.723-13.86-8.52-19.88-14.391v29.649c4.8 3.441 9.99 6.25 15.58 8.429 5.58 2.184 11.42 3.813 17.51 4.891 6.08 1.07 12.24 1.609 18.48 1.609 15.82 0 27.72-3.066 35.71-9.179 7.99-6.129 11.98-14.559 11.98-25.297v-42.223c0-4.008.38-7 1.13-8.961.75-1.976 2.13-2.957 4.13-2.957 2.44 0 5.73 1.028 9.89 3.11z"/><path d="m1858.81 465.359h-38.67v58.981c0 6.012-.99 11.262-2.96 15.73-1.97 4.481-6.28 6.719-12.94 6.719-3.16 0-5.93-.59-8.33-1.777-2.4-1.172-4.55-2.703-6.44-4.563-1.9-1.867-3.49-3.648-4.78-5.367-1.29-1.723-2.62-3.551-3.98-5.48v-64.243h-38.67v109.36h38.67v-15.688c6.09 6.52 12.2 11.09 18.32 13.688 6.12 2.621 12.94 3.929 20.46 3.929 26.21 0 39.32-15.679 39.32-47.046z"/><path d="m2036.81 567.199c0 6.871-2.26 11.672-6.77 14.391-4.51 2.73-11.86 4.082-22.02 4.082h-9.46v-35.883h9.67c10.96 0 18.46 1.211 22.51 3.602 4.04 2.398 6.07 7 6.07 13.808zm61.01-101.84h-48.23l-11.71 26.43c-4.3 9.672-8.16 16.742-11.6 21.211-3.44 4.48-6.79 7.34-10.04 8.59-3.27 1.262-7.47 1.89-12.63 1.89h-5.05v-58.121h-44.9v148.891h76.38c12.31 0 22.41-2.512 30.29-7.52 7.88-5.011 13.55-11.109 17.03-18.261 3.47-7.16 5.21-13.969 5.21-20.41 0-7.52-1.45-13.879-4.35-19.071-2.9-5.187-5.96-8.968-9.19-11.328-3.22-2.371-6.84-4.621-10.85-6.769 4.8-2.789 8.76-6.102 11.87-9.942 3.12-3.828 7.36-11.578 12.73-23.25z"/><path d="m2184.62 529.809c0 7.031-1.74 12.621-5.21 16.82-3.48 4.18-8.47 6.281-14.99 6.281-6.44 0-11.65-2.129-15.63-6.398-3.97-4.25-5.96-9.821-5.96-16.703zm36.31-19.118h-77.02c1.5-6.66 5.19-12.101 11.06-16.32 5.87-4.23 12.53-6.34 19.98-6.34 13.03 0 27.43 3.649 43.18 10.949v-23.949c-5.65-2.941-12.51-5.609-20.57-8.011-8.05-2.391-18.31-3.59-30.77-3.59-13.47 0-24.92 2.511-34.38 7.519-9.45 5.012-16.53 11.813-21.21 20.41-4.7 8.59-7.04 18.332-7.04 29.223 0 10.738 2.34 20.348 7.04 28.84 4.68 8.476 11.76 15.137 21.21 19.976 9.46 4.832 20.91 7.25 34.38 7.25 8.87 0 17.45-1.91 25.72-5.738 8.28-3.84 15.08-10.101 20.41-18.808 5.34-8.692 8.01-19.922 8.01-33.672z"/><path d="m2307.19 532.93c0 5.519-1.89 9.929-5.64 13.269-3.77 3.321-7.97 4.992-12.62 4.992-5.95 0-10.62-2-14.02-6.011-3.41-4.02-5.11-8.239-5.11-12.68 0-3.078.74-5.949 2.2-8.59 1.48-2.648 3.56-4.781 6.23-6.398 2.7-1.602 5.9-2.41 9.62-2.41 5.59 0 10.21 1.757 13.86 5.257 3.65 3.512 5.48 7.7 5.48 12.571zm7.73-87.981c0 4.801-2.56 7.891-7.68 9.301-5.12 1.379-10.4 2.09-15.84 2.09-8.96 0-15.41-.949-19.4-2.852-3.96-1.898-5.96-4.929-5.96-9.078 0-8.16 8.24-12.238 24.71-12.238 7.38 0 13.25 1.047 17.62 3.168 4.36 2.109 6.55 5.308 6.55 9.609zm35.02 106.461h-19.12c6.73-5.871 10.1-13.07 10.1-21.601 0-4.508-.95-8.84-2.84-12.989-1.91-4.148-4.7-7.851-8.38-11.07-3.69-3.219-8.24-5.859-13.66-7.891-5.4-2.05-11.58-3.281-18.52-3.711-8.96-.359-13.43-2.75-13.43-7.199 0-1.719.58-2.969 1.72-3.758 1.14-.793 2.95-1.371 5.43-1.769 2.46-.391 6.64-.84 12.51-1.34 6.66-.582 12.85-1.57 18.58-3.012 5.74-1.441 11.07-4.441 16.01-9.019 4.94-4.582 7.41-11.141 7.41-19.66 0-6.809-1.84-12.821-5.53-18.051-3.69-5.219-9.65-9.301-17.89-12.238-8.23-2.942-19.12-4.411-32.65-4.411-19.48 0-33.79 2.618-42.91 7.84-9.14 5.231-13.7 12.207-13.7 20.949 0 2.36.59 5.09 1.76 8.161 1.2 3.078 3.7 6.058 7.52 8.918 3.84 2.863 9.41 4.8 16.71 5.8-2.58.93-4.79 2.743-6.66 5.43-1.86 2.68-2.79 5.492-2.79 8.43 0 3.801 1.31 7.562 3.92 11.281s6.86 6.121 12.73 7.199c-8.16 2.141-15.22 6.192-21.16 12.133-5.95 5.949-8.92 13.648-8.92 23.098 0 7.16 1.38 13.429 4.14 18.8 2.76 5.372 6.56 9.731 11.44 13.102 4.87 3.367 10.53 5.859 16.97 7.457 6.45 1.633 13.5 2.43 21.16 2.43h60.05z"/><path d="m2401.4 599.961c0-4.512-1.61-8.34-4.84-11.492-3.22-3.16-7.05-4.731-11.49-4.731-3.01 0-5.75.711-8.21 2.153-2.48 1.429-4.43 3.379-5.86 5.859-1.44 2.461-2.15 5.199-2.15 8.211 0 4.437 1.57 8.269 4.72 11.5 3.16 3.219 6.99 4.828 11.5 4.828 4.44 0 8.27-1.609 11.49-4.828 3.23-3.231 4.84-7.063 4.84-11.5zm3.11-134.602h-38.78v109.36h38.78z"/><path d="m2511.18 520.148c0 8.661-1.87 15.454-5.64 20.352-3.75 4.91-9.22 7.359-16.38 7.359-7.09 0-12.51-2.449-16.28-7.359-3.75-4.898-5.63-11.691-5.63-20.352 0-8.597 1.89-15.398 5.69-20.41 3.8-5.008 9.2-7.519 16.22-7.519 7.16 0 12.63 2.492 16.38 7.461 3.77 4.98 5.64 11.8 5.64 20.468zm40.71 0c0-10.886-2.36-20.589-7.09-29.109-4.72-8.527-11.79-15.258-21.22-20.199-9.41-4.942-20.88-7.41-34.42-7.41-13.53 0-25.01 2.468-34.42 7.41-9.43 4.941-16.48 11.672-21.18 20.199-4.68 8.52-7.03 18.223-7.03 29.109 0 8.231 1.31 15.723 3.93 22.454 2.61 6.73 6.58 12.687 11.91 17.878 5.34 5.192 11.92 9.192 19.72 11.981s16.83 4.187 27.07 4.187c10.31 0 19.42-1.418 27.33-4.238 7.92-2.832 14.48-6.789 19.67-11.871 5.19-5.09 9.11-11.027 11.76-17.828 2.65-6.813 3.97-14.332 3.97-22.563"/><path d="m2688.75 465.359h-38.67v58.981c0 6.012-.99 11.262-2.95 15.73-1.97 4.481-6.29 6.719-12.95 6.719-3.15 0-5.93-.59-8.32-1.777-2.4-1.172-4.55-2.703-6.45-4.563-1.9-1.867-3.49-3.648-4.78-5.367-1.29-1.723-2.62-3.551-3.98-5.48v-64.243h-38.67v109.36h38.67v-15.688c6.09 6.52 12.2 11.09 18.31 13.688 6.14 2.621 12.95 3.929 20.47 3.929 26.21 0 39.32-15.679 39.32-47.046z"/><path d="m2771.57 491.789v25.891c-9.17-3.719-15.86-7.071-20.09-10.051-4.22-2.969-6.33-7-6.33-12.078 0-3.66 1.05-6.449 3.16-8.379 2.12-1.942 4.57-2.902 7.36-2.902 2.65 0 5.29.73 7.89 2.199 2.62 1.472 5.29 3.242 8.01 5.32zm53.82-20.949c-5.65-2.219-10.89-4.008-15.68-5.371-4.8-1.36-10.57-2.039-17.3-2.039-6.37 0-10.81 1.129-13.32 3.379-2.51 2.261-4.3 5-5.37 8.222-4.15-3.371-8.77-6.14-13.86-8.32-5.08-2.191-11.74-3.281-19.98-3.281-7.95 0-14.37 1.371-19.28 4.14-4.91 2.75-8.34 6.231-10.32 10.41-1.96 4.2-2.95 8.5-2.95 12.95 0 6.73 1.7 12.3 5.1 16.699 3.41 4.41 7.97 8 13.7 10.801 5.74 2.789 13.32 5.691 22.78 8.699 5.37 1.723 9.43 3.031 12.19 3.91 2.76.902 4.82 1.609 6.18 2.102 1.35.5 2.79 1.148 4.29 1.941 0 5.297-1.07 9.449-3.22 12.457-2.15 3.012-6.81 4.512-13.97 4.512-8.44 0-16.28-1.86-23.52-5.59-7.24-3.723-13.86-8.52-19.87-14.391v29.649c4.79 3.441 9.99 6.25 15.57 8.429 5.59 2.184 11.43 3.813 17.51 4.891 6.09 1.07 12.25 1.609 18.48 1.609 15.83 0 27.73-3.066 35.72-9.179 7.98-6.129 11.97-14.559 11.97-25.297v-42.223c0-4.008.38-7 1.14-8.961.74-1.976 2.13-2.957 4.13-2.957 2.43 0 5.73 1.028 9.88 3.11z"/><path d="m2839.46 465.359h38.7773v148.891h-38.7773z"/><path d="m912.102 279.051c0 12.097-2.313 21.551-6.93 28.301-4.621 6.777-10.172 11.296-16.652 13.597-6.485 2.289-13.09 3.43-19.821 3.43h-19.121v-88.188h19.121c11.746 0 21.914 2.789 30.512 8.379 8.594 5.59 12.891 17.078 12.891 34.481zm45.652-1.93c0-15.25-2.777-27.5-8.324-36.742-5.551-9.238-12.086-16.719-19.606-22.449-10.676-8.379-25.605-12.571-44.797-12.571h-80.347v148.891h61.875c9.304 0 17.273-.488 23.898-1.449 6.621-.969 12.582-2.332 17.887-4.082 5.297-1.758 9.808-3.731 13.535-5.918 3.723-2.18 7.051-4.52 9.988-7.031 5.086-4.149 9.543-9.059 13.375-14.719 3.828-5.653 6.875-12.199 9.133-19.653 2.254-7.449 3.383-15.539 3.383-24.277"/><path d="m1054.97 269.809c0 7.031-1.74 12.621-5.21 16.82-3.48 4.18-8.47 6.281-14.98 6.281-6.45 0-11.66-2.129-15.63-6.398-3.98-4.25-5.97-9.821-5.97-16.703zm36.31-19.118h-77.02c1.5-6.66 5.19-12.101 11.06-16.32 5.87-4.23 12.53-6.34 19.98-6.34 13.03 0 27.43 3.649 43.19 10.949v-23.949c-5.66-2.941-12.52-5.609-20.57-8.011-8.06-2.391-18.32-3.59-30.78-3.59-13.47 0-24.92 2.511-34.38 7.519-9.447 5.012-16.526 11.813-21.213 20.41-4.692 8.59-7.035 18.332-7.035 29.223 0 10.738 2.343 20.348 7.035 28.84 4.687 8.476 11.766 15.137 21.213 19.976 9.46 4.832 20.91 7.25 34.38 7.25 8.88 0 17.45-1.91 25.73-5.738 8.27-3.84 15.07-10.101 20.41-18.808 5.33-8.692 8-19.922 8-33.672z"/><path d="m1225.56 314.719-49.74-109.36h-28.57l-48.67 109.36h41.58l22.66-57.258 25.14 57.258z"/><path d="m1311.28 269.809c0 7.031-1.74 12.621-5.21 16.82-3.48 4.18-8.47 6.281-14.99 6.281-6.44 0-11.65-2.129-15.63-6.398-3.97-4.25-5.96-9.821-5.96-16.703zm36.31-19.118h-77.02c1.5-6.66 5.19-12.101 11.06-16.32 5.87-4.23 12.53-6.34 19.98-6.34 13.03 0 27.43 3.649 43.18 10.949v-23.949c-5.65-2.941-12.51-5.609-20.57-8.011-8.05-2.391-18.31-3.59-30.77-3.59-13.47 0-24.92 2.511-34.38 7.519-9.45 5.012-16.53 11.813-21.21 20.41-4.7 8.59-7.04 18.332-7.04 29.223 0 10.738 2.34 20.348 7.04 28.84 4.68 8.476 11.76 15.137 21.21 19.976 9.46 4.832 20.91 7.25 34.38 7.25 8.87 0 17.45-1.91 25.72-5.738 8.28-3.84 15.08-10.101 20.41-18.808 5.34-8.692 8.01-19.922 8.01-33.672z"/><path d="m1368.54 205.359h38.7695v148.891h-38.7695z"/><path d="m1510.87 260.148c0 8.661-1.88 15.454-5.64 20.352-3.76 4.91-9.22 7.359-16.38 7.359-7.09 0-12.52-2.449-16.28-7.359-3.76-4.898-5.64-11.691-5.64-20.352 0-8.597 1.9-15.398 5.7-20.41 3.79-5.008 9.2-7.519 16.22-7.519 7.16 0 12.62 2.492 16.38 7.461 3.76 4.98 5.64 11.8 5.64 20.468zm40.71 0c0-10.886-2.36-20.589-7.09-29.109-4.72-8.527-11.8-15.258-21.21-20.199-9.42-4.942-20.9-7.41-34.43-7.41-13.54 0-25.02 2.468-34.43 7.41-9.42 4.941-16.48 11.672-21.16 20.199-4.7 8.52-7.04 18.223-7.04 29.109 0 8.231 1.3 15.723 3.92 22.454 2.61 6.73 6.59 12.687 11.93 17.878 5.33 5.192 11.9 9.192 19.71 11.981 7.8 2.789 16.82 4.187 27.07 4.187 10.31 0 19.42-1.418 27.34-4.238 7.91-2.832 14.46-6.789 19.65-11.871 5.2-5.09 9.12-11.027 11.77-17.828 2.64-6.813 3.97-14.332 3.97-22.563"/><path d="m1651.05 259.93c0 6.59-1.04 11.941-3.11 16.058-2.08 4.121-4.77 7.094-8.06 8.922-3.29 1.82-6.7 2.738-10.2 2.738-4.59 0-8.35-.738-11.28-2.207-2.94-1.472-5.69-3.312-8.27-5.531v-41.789c1.35-.711 2.8-1.519 4.35-2.41 1.54-.902 3.07-1.672 4.62-2.313 1.53-.648 3.18-1.179 4.94-1.609 1.75-.43 3.63-.648 5.64-.648 6.08 0 11.17 2.578 15.25 7.738 4.08 5.152 6.12 12.172 6.12 21.051zm40.72.859c0-7.301-1.04-14.348-3.12-21.16-2.08-6.809-5.25-12.938-9.5-18.43-4.27-5.469-9.75-9.801-16.44-12.988-6.7-3.191-14.49-4.781-23.36-4.781-7.17 0-12.81.75-16.92 2.25-4.12 1.511-8.22 3.511-12.3 6.019v-56.078h-38.67v159.098h38.67v-9.887c3.86 3.367 8.14 6.18 12.83 8.438 4.69 2.25 11.05 3.378 19.07 3.378 7.95 0 15.75-1.968 23.42-5.91 7.66-3.929 13.96-10.078 18.91-18.429 4.94-8.34 7.41-18.84 7.41-31.52"/><path d="m1906.72 205.359h-38.67v58.332c0 7.739-1.28 13.52-3.82 17.348-2.54 3.832-6.57 5.75-12.08 5.75-5.37 0-9.78-1.629-13.21-4.891-3.44-3.257-6.88-7.359-10.32-12.296v-64.243h-38.67v58.332c0 7.368-1.18 13.071-3.54 17.079-2.37 4.019-6.56 6.019-12.57 6.019-2.87 0-5.5-.578-7.9-1.719-2.4-1.14-4.35-2.429-5.85-3.871-1.51-1.429-3.33-3.539-5.48-6.34-2.15-2.789-3.51-4.55-4.08-5.257v-64.243h-38.67v109.36h38.67v-15.688c5.8 6.168 11.71 10.641 17.72 13.43 6.02 2.789 12.96 4.187 20.84 4.187 3.72 0 7.27-.339 10.64-1.019 3.36-.68 6.67-1.84 9.93-3.488 3.26-1.653 6.21-3.911 8.87-6.77 2.64-2.859 4.76-6.191 6.33-9.992 6.23 7.019 12.69 12.32 19.39 15.902 6.7 3.578 14.41 5.367 23.15 5.367s16.06-1.757 21.97-5.257c5.91-3.512 10.27-8.582 13.11-15.211 2.82-6.621 4.24-14.66 4.24-24.11z"/><path d="m2005.55 269.809c0 7.031-1.74 12.621-5.21 16.82-3.48 4.18-8.47 6.281-14.99 6.281-6.44 0-11.65-2.129-15.63-6.398-3.97-4.25-5.96-9.821-5.96-16.703zm36.31-19.118h-77.03c1.51-6.66 5.19-12.101 11.07-16.32 5.87-4.23 12.53-6.34 19.98-6.34 13.03 0 27.43 3.649 43.18 10.949v-23.949c-5.66-2.941-12.51-5.609-20.57-8.011-8.06-2.391-18.31-3.59-30.78-3.59-13.46 0-24.92 2.511-34.37 7.519-9.45 5.012-16.53 11.813-21.22 20.41-4.69 8.59-7.03 18.332-7.03 29.223 0 10.738 2.34 20.348 7.03 28.84 4.69 8.476 11.77 15.137 21.22 19.976 9.45 4.832 20.91 7.25 34.37 7.25 8.88 0 17.46-1.91 25.73-5.738 8.27-3.84 15.08-10.101 20.41-18.808 5.33-8.692 8.01-19.922 8.01-33.672z"/><path d="m2177.64 205.359h-38.68v58.981c0 6.012-.98 11.262-2.95 15.73-1.97 4.481-6.28 6.719-12.94 6.719-3.16 0-5.93-.59-8.33-1.777-2.4-1.172-4.55-2.703-6.44-4.563-1.9-1.867-3.5-3.648-4.78-5.367-1.29-1.723-2.62-3.551-3.98-5.48v-64.243h-38.67v109.36h38.67v-15.688c6.09 6.52 12.19 11.09 18.32 13.688 6.12 2.621 12.94 3.929 20.46 3.929 26.21 0 39.32-15.679 39.32-47.046z"/><path d="m2287.1 211.699c-4.01-1.929-9.54-3.801-16.6-5.59-7.05-1.777-13.8-2.679-20.25-2.679-27.86 0-41.78 13.601-41.78 40.82v43.609h-17.51v6.77l51.88 52.851h4.41v-32.761h36.95v-26.86h-36.95v-35.019c0-4.078.25-7.371.75-9.879.5-2.512 1.91-4.602 4.24-6.289 2.33-1.684 5.86-2.524 10.58-2.524 6.16 0 14.25 2.582 24.28 7.731z"/><path d="m2482.39 265.621h-61.76v-60.262h-44.91v148.891h106.67v-29.871h-61.76v-28.777h61.76z"/><path d="m2621.4 205.359h-38.68v15.582c-5.45-5.871-11.19-10.269-17.17-13.16-6-2.91-13.21-4.351-21.6-4.351-16.51 0-27.18 4.808-32.04 14.449-4.85 9.633-7.28 20.5-7.28 32.601v64.239h38.67v-59.09c0-5.938.99-11.149 2.96-15.617 1.97-4.481 6.27-6.723 12.87-6.723 5.67 0 10.17 1.609 13.47 4.832 3.3 3.231 6.68 7.348 10.12 12.359v64.239h38.68z"/><path d="m2762.98 205.359h-38.67v58.981c0 6.012-.99 11.262-2.95 15.73-1.98 4.481-6.29 6.719-12.95 6.719-3.16 0-5.93-.59-8.32-1.777-2.4-1.172-4.55-2.703-6.45-4.563-1.9-1.867-3.49-3.648-4.78-5.367-1.29-1.723-2.62-3.551-3.98-5.48v-64.243h-38.67v109.36h38.67v-15.688c6.09 6.52 12.2 11.09 18.31 13.688 6.14 2.621 12.95 3.929 20.47 3.929 26.21 0 39.32-15.679 39.32-47.046z"/><path d="m2863.1 240.172v41.777c-4.52 2.512-8.04 4.301-10.58 5.371-2.55 1.078-5.54 1.621-8.98 1.621-6.08 0-11.15-2.582-15.2-7.742-4.04-5.16-6.06-12.179-6.06-21.051 0-9.668 2.12-16.699 6.39-21.117 4.26-4.39 9.22-6.601 14.87-6.601 4.66 0 8.42.73 11.28 2.211 2.87 1.461 5.63 3.308 8.28 5.531zm38.78-34.813h-38.78v9.879c-4.09-3.429-8.4-6.269-12.94-8.476-4.55-2.223-10.84-3.332-18.86-3.332-7.95 0-15.75 1.968-23.42 5.91-7.67 3.93-13.96 10.07-18.91 18.422-4.94 8.34-7.41 18.847-7.41 31.527 0 9.949 1.87 19.27 5.59 27.992 3.72 8.688 9.56 15.77 17.51 21.207 7.95 5.442 17.68 8.16 29.22 8.16 7.16 0 12.96-.789 17.4-2.359 4.44-1.578 8.38-3.59 11.82-6.019v45.98h38.78z"/></g><path d="m693.672 1886.91 27.355 20.82-33.644-.32-14.793 36.49-11.379-36.17h-34.777l26.511-20.5-8.832-31.33 28.215 16.49 31.035-16.8z" fill="#fff200"/><path d="m1209.6 1855.29-31.64 18.38-28.62-18.38 8.07 33.34-26.91 18.78 33.75.88 13.27 37.21 13.26-34.64 34.21-1.31-25.23-20.04z" fill="#fff200"/><path d="m1106.15 1774.13 9.66-31.63-30.19 19.11-29.61-19.11 8.54 33.3-25.91 20.27 34.47 1.68 12.22 35.05 13.42-35.89 33.88-.57z" fill="#fff200"/><path d="m827.125 1798.08-26.285-19.89 8.976-33.97-30.093 19.03-29.282-18.82 7.907 33.34-25.637 19.01 34.598.22 12.171 35.63 13.047-33.28z" fill="#fff200"/><path d="m1213.01 2155.73-31.86 17.52-29.28-17.31 8.36 31.83-25.65 19.66 33.97 1.72 12.83 35.46 12.61-35.46 34.39-.64-25.64-21.58z" fill="#fff200"/><path d="m949.996 2301.26-31 19.01-30.355-18.81 10.277 32.48-26.254 21.15 34.371 1.27 12.168 35.68 12.625-35.68s35.25-.63 34.617-.63c-.664 0-26.722-20.52-26.722-20.52z" fill="#fff200"/><path d="m1103.4 2263.45-31.65 17.73-29.27-17.73 9.84 32.47-27.32 19.84 34.39 1.31 13.43 35.43 13.71-35.85 32.46-.25-26.29-21.33z" fill="#fff200"/><path d="m1250.63 2005.45-31.36 17.38-29.92-17.38 9.4 32.21-26.22 20.5 34.2.29 13.42 35.91 12.26-34.5 33.01-.26-24.79-21.67z" fill="#fff200"/><path d="m798.992 2256.57-29.965 17.73-30.742-17.73 9.805 30.78-26.027 21.58 34.601.64 12.606 36.09 12.382-35.88 34.614-.63-25.621-17.96z" fill="#fff200"/><path d="m701.918 2155.94-29.461 19.03-29.93-18.39 8.782 32.08-26.075 19.59 33.516.9 13.285 35.69 13.031-33.98 34.176-.64-25.621-20.07z" fill="#fff200"/><path d="m666.316 2005.45-30.453 17.65-30.773-17.39 9.969 33.33-25.641 18.56 32.203.85 13.352 35.91 13.988-36.2 34.453-.28-26.773-18.84z" fill="#fff200"/><path d="m965.441 1701.5-31.05 19.36-30.207-17.96 9.675 32.76-27.082 19.08 34.504 2.29 12.832 34.46 12.223-35.31 34.5-.56-26.238-19.96z" fill="#fff200"/><path d="m253.707 1617.93h1347.43v854.945h-1347.43z" fill="none" stroke="#fff" stroke-miterlimit="10" stroke-width="10"/><path d="m442.543 1553.67h10.797v-42.6c0-5.76-.418-10.11-1.266-13.04-.84-2.94-1.875-5.38-3.113-7.34-1.231-1.95-2.746-3.7-4.535-5.24-5.946-5.12-13.719-7.68-23.313-7.68-9.773 0-17.617 2.54-23.523 7.63-1.793 1.57-3.309 3.34-4.539 5.29-1.238 1.96-2.254 4.34-3.067 7.17-.8 2.83-1.207 7.27-1.207 13.32v42.49h10.797v-42.6c0-7.05.809-11.96 2.418-14.71 1.613-2.76 4.063-4.97 7.36-6.63 3.293-1.67 7.175-2.5 11.656-2.5 6.371 0 11.566 1.66 15.574 5 2.113 1.78 3.633 3.89 4.566 6.32.93 2.45 1.395 6.62 1.395 12.52z" fill="#fff"/><path d="m527.836 1553.67h10.207v-75.04h-9.238l-50.168 57.79v-57.79h-10.098v75.04h8.703l50.594-58.28z" fill="#fff"/><path d="m578.379 1544.1h-13.43v-55.8h13.75c5.371 0 9.543.37 12.516 1.1 2.973.74 5.457 1.66 7.437 2.8 1.993 1.12 3.809 2.51 5.453 4.16 5.297 5.37 7.95 12.16 7.95 20.36 0 8.05-2.719 14.62-8.164 19.71-2.004 1.89-4.305 3.45-6.899 4.66-2.597 1.22-5.058 2.03-7.387 2.43-2.332.39-6.07.58-11.226.58zm-24.168-65.36v74.93h25.297c10.203 0 18.281-1.53 24.222-4.6 5.942-3.05 10.668-7.56 14.18-13.5 3.512-5.95 5.266-12.43 5.266-19.45 0-5.01-.969-9.81-2.903-14.39-1.933-4.58-4.691-8.61-8.269-12.08-3.652-3.59-7.899-6.29-12.731-8.12-2.828-1.11-5.425-1.85-7.789-2.22-2.363-.38-6.875-.57-13.535-.57z" fill="#fff"/><path d="m636.602 1553.67h42.539v-9.57h-31.797v-22.87h30.722v-9.62h-30.722v-23.31h32.816v-9.56h-43.558z" fill="#fff"/><path d="m712.387 1511.99h-10.043v-23.8h10.582c5.875 0 9.855.46 11.945 1.37 2.102.92 3.781 2.33 5.051 4.27 1.273 1.93 1.91 4.01 1.91 6.23 0 2.29-.672 4.39-2.019 6.29-1.336 1.89-3.247 3.31-5.715 4.24-2.473.93-6.371 1.4-11.711 1.4zm-.805 32.11h-9.238v-22.56h7.144c5.727 0 9.797 1.1 12.223 3.28 2.41 2.19 3.621 5.01 3.621 8.49 0 7.2-4.586 10.79-13.75 10.79zm5.426-65.47h-25.406v75.04h19.66c6.195 0 11.027-.84 14.5-2.5 3.472-1.67 6.125-3.95 7.949-6.87s2.738-6.3 2.738-10.13c0-7.37-3.812-12.66-11.437-15.85 5.476-1.03 9.836-3.29 13.074-6.76 3.242-3.47 4.863-7.63 4.863-12.46 0-3.84-.984-7.25-2.953-10.26s-4.859-5.46-8.68-7.36c-3.804-1.9-8.582-2.85-14.308-2.85" fill="#fff"/><path d="m784.094 1553.67h42.539v-9.57h-31.797v-22.87h30.723v-9.62h-30.723v-23.31h32.816v-9.56h-43.558z" fill="#fff"/><path d="m934.672 1553.67h10.715l-30.336-75.36h-2.36l-24.539 61.02-24.785-61.02h-2.304l-30.243 75.36h10.825l20.679-51.73 20.817 51.73h10.152l20.918-51.73z" fill="#fff"/><path d="m967.996 1544.53h-3.223v-23.68h4.082c5.446 0 9.176.47 11.204 1.4 2.019.92 3.593 2.33 4.726 4.21 1.121 1.88 1.692 4.02 1.692 6.42 0 2.36-.625 4.5-1.883 6.42-1.254 1.91-3.016 3.27-5.285 4.06-2.278.78-6.047 1.17-11.313 1.17zm-13.965-65.9v75.04h18.801c7.594 0 13.613-1.88 18.074-5.64 4.453-3.76 6.688-8.85 6.688-15.26 0-4.36-1.094-8.14-3.278-11.32-2.183-3.2-5.316-5.58-9.398-7.15 2.395-1.58 4.746-3.72 7.035-6.45 2.289-2.72 5.512-7.46 9.667-14.24 2.61-4.25 4.71-7.46 6.29-9.61l3.97-5.37h-12.782l-3.274 4.94c-.105.19-.32.49-.644.92l-2.09 2.96-3.328 5.48-3.594 5.86c-2.219 3.08-4.25 5.53-6.094 7.35-1.847 1.83-3.515 3.14-5 3.94-1.488.81-3.988 1.21-7.5 1.21h-2.801v-32.66z" fill="#fff"/><path d="m1050.82 1544.53c-8.59 0-15.65-2.67-21.19-8.05-5.53-5.37-8.3-12.23-8.3-20.57 0-8.1 2.78-14.83 8.33-20.2s12.49-8.05 20.84-8.05c8.38 0 15.37 2.73 20.97 8.22 5.61 5.47 8.41 12.29 8.41 20.46 0 7.95-2.8 14.64-8.41 20.06-5.6 5.43-12.49 8.13-20.65 8.13zm-.43 10.22c11.6 0 21.26-3.68 28.98-11.02 7.71-7.34 11.57-16.54 11.57-27.61 0-11.06-3.89-20.22-11.68-27.47s-17.61-10.88-29.46-10.88c-11.31 0-20.74 3.63-28.28 10.88s-11.31 16.34-11.31 27.26c0 11.21 3.8 20.48 11.39 27.82s17.19 11.02 28.79 11.02" fill="#fff"/><path d="m1125.42 1544.22h-11.11v-23.48h11.76c4.37 0 7.73 1.03 10.1 3.09 2.36 2.06 3.54 5.01 3.54 8.84 0 7.69-4.76 11.55-14.29 11.55zm-21.91-65.59v75.14h23.79c7.17 0 12.88-1.93 17.14-5.8s6.39-9.05 6.39-15.57c0-4.37-1.09-8.24-3.28-11.6-2.18-3.37-5.17-5.81-8.97-7.33-3.79-1.53-9.23-2.29-16.32-2.29h-7.95v-32.55z" fill="#fff"/><path d="m1160.18 1553.67h42.53v-9.57h-31.79v-22.87h30.72v-9.62h-30.72v-23.31h32.82v-9.56h-43.56z" fill="#fff"/><path d="m1254.92 1510.43-12.11 27.18-11.23-27.18zm-15.78 43.67h7.54l33.65-75.47h-11l-10 22.24h-32.01l-9.38-22.24h-11.04z" fill="#fff"/><path d="m1288.65 1478.63h10.7422v75.043h-10.7422z" fill="#fff"/><path d="m1340.32 1544.1h-13.43v-55.8h13.75c5.38 0 9.55.37 12.52 1.1 2.97.74 5.45 1.66 7.44 2.8 1.99 1.12 3.8 2.51 5.45 4.16 5.3 5.37 7.95 12.16 7.95 20.36 0 8.05-2.72 14.62-8.17 19.71-2 1.89-4.3 3.45-6.89 4.66-2.6 1.22-5.06 2.03-7.39 2.43-2.33.39-6.07.58-11.23.58zm-24.17-65.36v74.93h25.3c10.21 0 18.28-1.53 24.22-4.6 5.95-3.05 10.67-7.56 14.18-13.5 3.51-5.95 5.27-12.43 5.27-19.45 0-5.01-.97-9.81-2.9-14.39-1.94-4.58-4.7-8.61-8.27-12.08-3.66-3.59-7.9-6.29-12.73-8.12-2.83-1.11-5.43-1.85-7.79-2.22-2.37-.38-6.88-.57-13.54-.57z" fill="#fff"/><path d="m1422.82 1544.1h-13.43v-55.8h13.75c5.38 0 9.55.37 12.52 1.1 2.97.74 5.45 1.66 7.44 2.8 1.99 1.12 3.8 2.51 5.45 4.16 5.3 5.37 7.95 12.16 7.95 20.36 0 8.05-2.72 14.62-8.17 19.71-2 1.89-4.3 3.45-6.89 4.66-2.6 1.22-5.06 2.03-7.39 2.43-2.33.39-6.07.58-11.23.58zm-24.17-65.36v74.93h25.3c10.21 0 18.28-1.53 24.22-4.6 5.95-3.05 10.67-7.56 14.18-13.5 3.51-5.95 5.27-12.43 5.27-19.45 0-5.01-.97-9.81-2.9-14.39-1.94-4.58-4.7-8.61-8.27-12.08-3.66-3.59-7.9-6.29-12.73-8.12-2.83-1.11-5.43-1.85-7.79-2.22-2.37-.38-6.88-.57-13.54-.57z" fill="#fff"/><path d="m459.762 1423.67h42.539v-9.57h-31.797v-22.87h30.723v-9.62h-30.723v-23.31h32.816v-9.56h-43.558z" fill="#fff"/><path d="m566.969 1423.67h10.797v-42.6c0-5.76-.422-10.11-1.266-13.04-.84-2.94-1.875-5.38-3.117-7.34-1.231-1.95-2.742-3.7-4.535-5.24-5.942-5.12-13.715-7.68-23.313-7.68-9.773 0-17.613 2.54-23.523 7.63-1.793 1.57-3.305 3.34-4.535 5.29-1.243 1.96-2.258 4.34-3.067 7.17-.801 2.83-1.207 7.27-1.207 13.32v42.49h10.797v-42.6c0-7.05.805-11.96 2.418-14.71 1.609-2.76 4.062-4.97 7.355-6.63 3.297-1.67 7.18-2.5 11.657-2.5 6.371 0 11.566 1.66 15.578 5 2.113 1.78 3.633 3.89 4.562 6.32.934 2.45 1.399 6.62 1.399 12.52z" fill="#fff"/><path d="m606.93 1414.53h-3.223v-23.68h4.082c5.441 0 9.176.47 11.199 1.4 2.024.92 3.594 2.33 4.727 4.21 1.125 1.88 1.691 4.02 1.691 6.42 0 2.36-.625 4.5-1.883 6.42-1.253 1.91-3.015 3.27-5.285 4.06-2.277.78-6.047 1.17-11.308 1.17zm-13.965-65.9v75.04h18.797c7.593 0 13.613-1.88 18.078-5.64 4.453-3.76 6.683-8.85 6.683-15.26 0-4.36-1.093-8.14-3.277-11.32-2.183-3.2-5.316-5.58-9.398-7.15 2.398-1.58 4.746-3.72 7.035-6.45 2.293-2.72 5.512-7.46 9.668-14.24 2.613-4.25 4.707-7.46 6.285-9.61l3.977-5.37h-12.786l-3.269 4.94c-.11.19-.324.49-.649.92l-2.089 2.96-3.329 5.48-3.593 5.86c-2.215 3.08-4.246 5.53-6.094 7.35-1.848 1.83-3.516 3.14-5 3.94-1.488.81-3.988 1.21-7.5 1.21h-2.797v-32.66z" fill="#fff"/><path d="m689.75 1414.53c-8.594 0-15.652-2.67-21.191-8.05-5.528-5.37-8.293-12.23-8.293-20.57 0-8.1 2.769-14.83 8.324-20.2 5.551-5.37 12.496-8.05 20.84-8.05 8.379 0 15.371 2.73 20.976 8.22 5.602 5.47 8.403 12.29 8.403 20.46 0 7.95-2.801 14.64-8.403 20.06-5.605 5.43-12.492 8.13-20.656 8.13zm-.43 10.22c11.602 0 21.262-3.68 28.977-11.02 7.719-7.34 11.574-16.54 11.574-27.61 0-11.06-3.891-20.22-11.683-27.47-7.782-7.25-17.606-10.88-29.458-10.88-11.312 0-20.742 3.63-28.277 10.88-7.539 7.25-11.308 16.34-11.308 27.26 0 11.21 3.793 20.48 11.386 27.82 7.594 7.34 17.188 11.02 28.789 11.02" fill="#fff"/><path d="m764.355 1414.22h-11.117v-23.48h11.762c4.371 0 7.734 1.03 10.098 3.09 2.363 2.06 3.547 5.01 3.547 8.84 0 7.69-4.762 11.55-14.29 11.55zm-21.914-65.59v75.14h23.793c7.164 0 12.871-1.93 17.133-5.8 4.266-3.87 6.395-9.05 6.395-15.57 0-4.37-1.094-8.24-3.278-11.6-2.183-3.37-5.175-5.81-8.968-7.33-3.793-1.53-9.239-2.29-16.328-2.29h-7.95v-32.55z" fill="#fff"/><path d="m799.105 1423.67h42.54v-9.57h-31.797v-22.87h30.722v-9.62h-30.722v-23.31h32.82v-9.56h-43.563z" fill="#fff"/><path d="m893.848 1380.43-12.106 27.18-11.23-27.18zm-15.782 43.67h7.547l33.645-75.47h-10.996l-10 22.24h-32.012l-9.375-22.24h-11.039z" fill="#fff"/><path d="m987.094 1423.67h10.207v-75.04h-9.238l-50.168 57.79v-57.79h-10.098v75.04h8.703l50.594-58.28z" fill="#fff"/><path d="m1096.13 1423.67h10.79v-42.6c0-5.76-.42-10.11-1.26-13.04-.84-2.94-1.88-5.38-3.12-7.34-1.23-1.95-2.74-3.7-4.53-5.24-5.94-5.12-13.72-7.68-23.31-7.68-9.78 0-17.62 2.54-23.53 7.63-1.79 1.57-3.3 3.34-4.53 5.29-1.24 1.96-2.26 4.34-3.07 7.17-.8 2.83-1.21 7.27-1.21 13.32v42.49h10.8v-42.6c0-7.05.8-11.96 2.42-14.71 1.61-2.76 4.06-4.97 7.35-6.63 3.3-1.67 7.18-2.5 11.66-2.5 6.37 0 11.57 1.66 15.58 5 2.11 1.78 3.63 3.89 4.56 6.32.93 2.45 1.4 6.62 1.4 12.52z" fill="#fff"/><path d="m1181.42 1423.67h10.21v-75.04h-9.24l-50.17 57.79v-57.79h-10.1v75.04h8.71l50.59-58.28z" fill="#fff"/><path d="m1207.79 1348.63h10.75v75.043h-10.75z" fill="#fff"/><path d="m1272.46 1414.53c-8.59 0-15.65-2.67-21.19-8.05-5.53-5.37-8.3-12.23-8.3-20.57 0-8.1 2.78-14.83 8.33-20.2s12.49-8.05 20.84-8.05c8.38 0 15.37 2.73 20.98 8.22 5.6 5.47 8.4 12.29 8.4 20.46 0 7.95-2.8 14.64-8.4 20.06-5.61 5.43-12.49 8.13-20.66 8.13zm-.43 10.22c11.6 0 21.26-3.68 28.98-11.02s11.57-16.54 11.57-27.61c0-11.06-3.89-20.22-11.68-27.47-7.78-7.25-17.61-10.88-29.46-10.88-11.31 0-20.74 3.63-28.28 10.88-7.53 7.25-11.3 16.34-11.3 27.26 0 11.21 3.79 20.48 11.38 27.82s17.19 11.02 28.79 11.02" fill="#fff"/><path d="m1385.36 1423.67h10.21v-75.04h-9.24l-50.17 57.79v-57.79h-10.1v75.04h8.71l50.59-58.28z" fill="#fff"/></g></svg>