<?xml version="1.0" encoding="UTF-8" standalone="no"?>
<!-- Created with Inkscape (http://www.inkscape.org/) -->

<svg
   width="171.07768mm"
   height="72.36203mm"
   viewBox="0 0 171.07768 72.36203"
   version="1.1"
   id="svg1"
   xml:space="preserve"
   inkscape:version="1.3 (0e150ed, 2023-07-21)"
   sodipodi:docname="fugaku logo.svg"
   xmlns:inkscape="http://www.inkscape.org/namespaces/inkscape"
   xmlns:sodipodi="http://sodipodi.sourceforge.net/DTD/sodipodi-0.dtd"
   xmlns="http://www.w3.org/2000/svg"
   xmlns:svg="http://www.w3.org/2000/svg"><sodipodi:namedview
     id="namedview1"
     pagecolor="#ffffff"
     bordercolor="#000000"
     borderopacity="0.25"
     inkscape:showpageshadow="2"
     inkscape:pageopacity="0.0"
     inkscape:pagecheckerboard="0"
     inkscape:deskcolor="#d1d1d1"
     inkscape:document-units="mm"
     inkscape:zoom="0.45765822"
     inkscape:cx="41.515697"
     inkscape:cy="438.09986"
     inkscape:window-width="1512"
     inkscape:window-height="858"
     inkscape:window-x="0"
     inkscape:window-y="38"
     inkscape:window-maximized="1"
     inkscape:current-layer="layer1" /><defs
     id="defs1" /><g
     inkscape:label="Layer 1"
     inkscape:groupmode="layer"
     id="layer1"
     transform="translate(-18.702899,-112.28985)"><path
       style="fill:#000000"
       d="m 90.488092,184.53133 c -0.114901,-0.13845 -0.03275,-0.23226 0.565876,-0.64621 0.442367,-0.30589 0.890651,-0.91085 1.092505,-1.47433 0.133913,-0.37383 0.155768,-0.80317 0.181097,-3.5578 0.01584,-1.72296 0.0057,-3.25639 -0.02248,-3.40762 -0.03551,-0.19037 -0.128256,-0.31476 -0.301493,-0.40434 -0.236867,-0.12249 -0.34849,-0.37904 -0.164917,-0.37904 0.04691,0 0.34232,-0.2627 0.656473,-0.58378 0.417603,-0.42682 0.664776,-0.60899 0.919249,-0.67751 0.65095,-0.17528 1.310175,0.0981 1.63648,0.6787 0.169451,0.3015 0.173845,0.42619 0.173845,4.93329 v 4.62397 h 3.725847 3.725846 l -0.0217,-6.6675 -0.0217,-6.6675 -7.521664,-0.0423 -7.521664,-0.0423 -0.161836,-0.19988 c -0.105343,-0.1301 -0.161836,-0.33187 -0.161836,-0.57801 0,-0.94621 1.25211,-1.22591 1.61085,-0.35984 l 0.103974,0.25102 2.762089,-0.0223 2.762088,-0.0223 0.02024,-5.842 c 0.02153,-6.21519 0.02428,-6.16944 -0.381573,-6.34891 -0.231496,-0.10237 -0.247523,-0.3521 -0.02709,-0.42207 0.08905,-0.0283 0.340481,-0.26041 0.558734,-0.51587 0.49082,-0.57451 0.752373,-0.71415 1.33767,-0.71415 0.341547,0 0.532845,0.0508 0.752087,0.19953 0.293811,0.19939 0.294785,0.19945 1.302982,0.0861 6.510389,-0.73221 13.060039,-2.38716 16.717909,-4.22425 1.38874,-0.69747 1.57159,-0.50714 1.14152,1.18823 -0.11542,0.45501 -0.26781,0.91574 -0.33865,1.02385 -0.33103,0.50521 -4.74089,1.51771 -8.42616,1.93463 -2.32075,0.26255 -4.68226,0.39637 -7.260811,0.41146 -2.320437,0.0136 -2.638756,0.0311 -2.583809,0.14248 0.03447,0.0699 0.07503,0.89852 0.09015,1.8415 l 0.02748,1.7145 8.82166,-0.002 8.82166,-0.002 0.71009,-0.46412 c 0.39055,-0.25526 0.76288,-0.46411 0.82738,-0.46411 0.0645,0 0.43077,0.27885 0.81391,0.61967 0.70981,0.63141 0.87832,0.93726 0.62998,1.14336 -0.083,0.0689 -1.04746,0.10408 -3.27985,0.11976 l -3.16233,0.0222 -0.23203,1.397 c -0.37058,2.23118 -0.93332,4.2013 -1.79567,6.2865 l -0.37641,0.91016 h 4.77865 4.77865 l 0.65994,-0.42333 c 0.36296,-0.23283 0.75138,-0.42314 0.86314,-0.42291 0.29095,6e-4 1.60021,1.14387 1.60021,1.39732 0,0.10461 -0.0513,0.23276 -0.11398,0.28479 -0.0818,0.0679 -2.38317,0.1007 -8.14917,0.1162 l -8.03518,0.0216 -0.0217,6.6675 -0.0217,6.6675 h 3.64118 3.64118 v -4.09941 c 0,-2.25467 -0.0237,-4.16108 -0.0526,-4.23646 -0.0289,-0.0754 -0.16228,-0.19378 -0.29634,-0.2631 -0.23973,-0.12397 -0.33746,-0.3757 -0.14585,-0.3757 0.0538,0 0.3491,-0.26276 0.65616,-0.58392 0.7662,-0.80137 1.36039,-0.94438 2.09469,-0.50415 0.59721,0.35805 0.57531,0.20139 0.62557,4.47474 0.0432,3.67218 0.0538,3.8752 0.22716,4.34127 0.25019,0.67263 0.70336,1.26017 1.25381,1.62554 0.47015,0.31206 0.5718,0.49281 0.32947,0.5858 -0.0737,0.0283 -6.165,0.0514 -13.5363,0.0514 -11.531818,0 -13.416435,-0.0169 -13.503079,-0.12133 z m 17.925618,-15.3515 c 0.11043,-0.27116 0.0684,-6.09112 -0.0524,-7.26017 -0.0626,-0.60537 -0.14096,-1.12953 -0.17421,-1.16481 -0.0332,-0.0353 -2.45856,-0.0543 -5.38958,-0.0423 l -5.32912,0.0218 -0.02194,4.29683 -0.02194,4.29683 h 5.46443 c 5.12479,0 5.46818,-0.009 5.52477,-0.14816 z m -89.642988,14.88016 c 0.06985,-0.0451 0.1651,-0.0821 0.211667,-0.0821 0.04657,0 0.02752,0.0369 -0.04233,0.0821 -0.06985,0.0451 -0.1651,0.0821 -0.211667,0.0821 -0.04657,0 -0.02752,-0.0369 0.04233,-0.0821 z m 0.550333,-0.21343 c 0.1397,-0.0649 1.3589,-0.60398 2.709334,-1.19802 2.986114,-1.31355 8.212235,-3.91253 11.119555,-5.52982 10.12995,-5.63509 19.237374,-12.21183 27.781728,-20.062 1.672922,-1.53701 5.886999,-5.73113 7.5766,-7.54073 6.209542,-6.65054 11.911802,-14.04394 16.642762,-21.57858 0.769364,-1.22531 0.957968,-1.39332 1.307221,-1.16448 l 0.215135,0.14096 -0.0049,3.02489 c -0.007,4.3454 -0.01836,4.44804 -0.783007,7.08888 -2.009069,6.93863 -4.31175,12.83387 -7.523597,19.26167 -1.208989,2.41952 -2.965836,5.71755 -3.136775,5.88848 -0.02838,0.0284 0.33949,-0.81819 0.817487,-1.88127 2.947953,-6.55635 5.386289,-13.37104 7.317789,-20.45183 0.32102,-1.17685 0.610657,-2.27307 0.643638,-2.43605 0.03862,-0.19083 -0.300336,0.32165 -0.951982,1.43933 -6.238426,10.7 -14.212076,20.15308 -23.599,27.97757 -1.478135,1.2321 -2.911614,2.36614 -2.450179,1.93835 0.142534,-0.13214 0.752134,-0.67374 1.354666,-1.20356 9.32651,-8.20098 17.376983,-18.43111 23.309341,-29.62033 0.425245,-0.80207 0.773172,-1.48148 0.773172,-1.5098 0,-0.0283 -0.558044,0.64696 -1.240098,1.50064 -3.722833,4.65958 -6.973194,8.292 -11.243603,12.56522 -3.517574,3.51989 -5.740036,5.57607 -9.190966,8.50331 -11.719092,9.94068 -24.999296,18.06152 -39.267759,24.01223 -1.270918,0.53004 -2.337718,0.96127 -2.370667,0.95829 -0.03295,-0.003 0.05439,-0.0585 0.194092,-0.12335 z m 170.222335,0.0441 c -0.0698,-0.0451 -0.0889,-0.0821 -0.0423,-0.0821 0.0466,0 0.14182,0.0369 0.21167,0.0821 0.0699,0.0451 0.0889,0.0821 0.0423,0.0821 -0.0466,0 -0.14182,-0.0369 -0.21167,-0.0821 z m -1.016,-0.39589 c -6.17633,-2.54164 -12.28432,-5.51191 -17.78,-8.64629 -9.81994,-5.60066 -19.05203,-12.36606 -27.51545,-20.16369 -1.6996,-1.5659 -5.90099,-5.74698 -7.61862,-7.5818 -2.78247,-2.9723 -5.82346,-6.49706 -8.16292,-9.4615 -0.5053,-0.64029 -0.93667,-1.16416 -0.95861,-1.16416 -0.12114,0 2.23999,4.29346 3.67834,6.68866 1.08103,1.80019 3.66388,5.69919 4.8608,7.33774 4.71675,6.4571 10.13225,12.39438 15.81979,17.34401 1.11634,0.9715 1.60909,1.42612 1.22767,1.13266 -0.75641,-0.58198 -2.70143,-2.18293 -3.85233,-3.17087 -6.13628,-5.2674 -11.63361,-11.2403 -16.55472,-17.98687 -1.99331,-2.73272 -5.27848,-7.84461 -6.51603,-10.13926 -0.13198,-0.24471 -0.25572,-0.42916 -0.27498,-0.4099 -0.10563,0.10563 1.62951,6.18587 2.66011,9.32149 1.60086,4.87066 3.7312,10.34911 5.53112,14.224 0.74216,1.59775 0.65486,1.52893 -0.34908,-0.27516 -1.02444,-1.84092 -3.15563,-6.0828 -4.03048,-8.02217 -2.30678,-5.1137 -4.19711,-10.27136 -5.73581,-15.64988 l -0.7228,-2.52654 v -3.71567 -3.71568 l 0.20127,-0.13187 c 0.33565,-0.21993 0.55648,-0.0356 1.20012,1.00205 0.32285,0.52044 1.21832,1.89875 1.98993,3.06292 12.9564,19.54782 30.63652,35.73056 51.21868,46.88079 3.55448,1.92561 6.60177,3.42214 10.16,4.98959 2.25563,0.99364 2.4392,1.07845 2.32834,1.07567 -0.0466,-0.001 -0.40852,-0.13539 -0.80434,-0.29827 z M 92.600057,143.02782 v -5.6415 l -0.296334,-0.27948 c -0.353335,-0.33324 -0.362753,-0.39602 -0.08195,-0.5463 0.117909,-0.0631 0.352509,-0.2833 0.521331,-0.48933 0.437034,-0.53334 0.738753,-0.69386 1.304933,-0.69424 0.55832,-3.7e-4 0.935363,0.21031 1.254373,0.70091 l 0.204685,0.31478 8.473645,-0.001 8.47365,-0.001 0.83547,-0.54899 c 0.45951,-0.30194 0.92599,-0.54898 1.03663,-0.54898 0.1287,0 0.44532,0.21515 0.87903,0.59733 l 0.67787,0.59733 v 6.09134 6.09134 H 104.24172 92.600057 Z m 10.160003,2.29717 v -2.32833 h -3.64067 -3.640667 v 2.32833 2.32834 h 3.640667 3.64067 z m 10.16,0 v -2.32833 h -3.59834 -3.59833 v 2.32833 2.32834 h 3.59833 3.59834 z m -10.16,-5.67357 v -2.32925 l -3.619503,0.0221 -3.6195,0.0221 -0.02253,2.30716 -0.02253,2.30717 h 3.642027 3.642036 z m 10.16,9.1e-4 v -2.32834 h -3.59834 -3.59833 v 2.32834 2.32833 h 3.59833 3.59834 z m -3.15571,-5.93375 c -0.20449,-0.11091 -1.0111,-0.12253 -6.26533,-0.0903 -3.31685,0.0204 -6.18303,0.0626 -6.369297,0.094 -0.240463,0.0404 -0.387768,0.0204 -0.508,-0.0689 -0.165128,-0.12267 -0.168579,-0.20596 -0.138957,-3.35425 0.02779,-2.95404 0.01806,-3.24207 -0.114522,-3.38857 -0.07969,-0.0881 -0.130076,-0.20458 -0.111961,-0.25893 0.02475,-0.0742 1.600236,-0.0963 6.337527,-0.0886 l 6.30458,0.0102 0.7101,-0.46666 c 0.39055,-0.25666 0.7586,-0.46665 0.81789,-0.46665 0.1031,0 0.55219,0.33986 1.25287,0.94814 l 0.32553,0.2826 -0.0118,3.04506 c -0.0131,3.38384 -0.008,3.35195 -0.59288,3.74608 -0.2246,0.15136 -0.39865,0.19009 -0.84209,0.1874 -0.3308,-0.002 -0.65479,-0.0554 -0.79369,-0.13069 z m -0.6742,-3.65476 -0.0224,-2.51883 -4.84716,-0.0219 -4.84717,-0.0219 v 2.48425 c 0,1.36634 0.0254,2.50965 0.05644,2.54069 0.03105,0.0311 2.22237,0.0565 4.8696,0.0565 h 4.81315 z m -17.843719,-0.57024 c -0.08572,-0.10328 -1.354041,-9.67766 -1.355344,-10.23127 -2e-4,-0.0851 0.111005,-0.26605 0.247123,-0.40217 0.189831,-0.18983 0.325244,-0.24748 0.581249,-0.24748 0.363487,0 0.733921,0.22965 0.822965,0.51021 0.05122,0.16138 0.138344,0.16712 2.53696,0.16712 H 96.5633 l 0.236453,-0.40217 c 0.130049,-0.22119 0.801028,-1.53174 1.491064,-2.91234 1.24005,-2.48105 1.258631,-2.51179 1.600889,-2.64874 0.190454,-0.0762 0.485584,-0.13033 0.655854,-0.12029 0.20342,0.012 0.43986,-0.0562 0.68953,-0.19884 0.20898,-0.11941 0.64798,-0.28082 0.97555,-0.35868 l 0.59558,-0.14157 0.57993,0.2602 0.57993,0.26019 0.68715,-0.36895 0.68716,-0.36895 0.508,0.23624 c 0.30678,0.14266 0.65892,0.23821 0.889,0.24124 0.28585,0.004 0.53958,0.0947 1.016,0.364 l 0.635,0.35899 0.45627,0.93134 c 0.25096,0.51223 0.91215,1.81716 1.46933,2.89983 l 1.01306,1.9685 1.95967,-1.3e-4 1.95967,-1.4e-4 1.016,-0.67706 c 0.61463,-0.40959 1.10254,-0.67712 1.23507,-0.6772 0.15029,-9e-5 0.43603,0.18858 0.91016,0.60098 0.71244,0.61968 0.8138,0.8163 0.56346,1.09293 -0.0722,0.0798 -0.16569,0.45042 -0.21523,0.85334 -0.30012,2.44085 -1.19282,5.58904 -2.20066,7.76078 -0.34438,0.7421 -0.50668,0.85417 -0.78754,0.54382 -0.12708,-0.14042 -0.13162,-0.31793 -0.0493,-1.92454 0.0861,-1.67878 0.006,-4.65916 -0.16416,-6.13345 l -0.0538,-0.46566 -11.10375,-0.0215 -11.103758,-0.0215 -0.08973,0.52948 c -0.04935,0.29121 -0.36046,2.33664 -0.69135,4.54539 -0.33089,2.20876 -0.638687,4.08518 -0.683993,4.16984 -0.09943,0.18578 -0.438963,0.20218 -0.583376,0.0282 z m 3.911517,-5.58719 c -0.307341,-0.25861 -0.394768,-0.63572 -0.235662,-1.01652 0.145271,-0.34768 0.352858,-0.46721 0.811384,-0.46721 0.274777,0 0.404349,0.0536 0.598233,0.24748 0.136118,0.13612 0.247487,0.30757 0.247487,0.381 0,0.1204 0.629669,0.13352 6.40969,0.13352 h 6.40969 l 0.74779,-0.47406 c 0.54523,-0.34564 0.79854,-0.46026 0.93515,-0.42314 0.10304,0.028 0.49164,0.33184 0.86356,0.67518 0.64631,0.59666 0.67243,0.63504 0.59064,0.86765 l -0.0856,0.24337 -8.52116,0.0216 -8.521151,0.0216 z"
       id="path1" /></g></svg>
