<?xml version="1.0" encoding="utf-8"?>
<!-- Generator: Adobe Illustrator 16.0.0, SVG Export Plug-In . SVG Version: 6.00 Build 0)  -->
<!DOCTYPE svg PUBLIC "-//W3C//DTD SVG 1.1//EN" "http://www.w3.org/Graphics/SVG/1.1/DTD/svg11.dtd">
<svg version="1.1" id="Layer_1" xmlns="http://www.w3.org/2000/svg" xmlns:xlink="http://www.w3.org/1999/xlink" x="0px" y="0px"
	 width="186.542px" height="104.743px" viewBox="0 0 186.542 104.743" enable-background="new 0 0 186.542 104.743"
	 xml:space="preserve">
<g>
	<path fill="#0075C2" d="M87.805,78.128H74.904V44.661h12.901V78.128z"/>
	<path fill="#0075C2" d="M145.774,40.808v37.321h-13.031V40.808h-10.119V28.159h33.272v12.649H145.774z"/>
	<path fill="#0075C2" d="M173.285,78.128h-12.906V44.661h12.906V78.128z"/>
	<circle fill="#0075C2" cx="81.305" cy="34.325" r="8.176"/>
	<path fill="#D80C18" d="M75.463,87.22c25.76-10.303,50.05-24.025,50.05-34.273c0-5.17-3.37-8.228-12.038-9.291
		c-5.606-0.691-12.008-0.11-10.875-5.168c1.102-4.921,13.67-9.511,20.023-10.329V18.007c-16.928,5.801-32.109,13.321-32.109,24.278
		c0,5.256,3.141,10.746,12.032,11.541c8.556,0.767,10.354,3.118,10.354,6.377C112.901,66.613,96.874,76.917,75.463,87.22z"/>
	<circle fill="#0075C2" cx="166.714" cy="34.325" r="8.174"/>
	<g>
		<path fill="#0075C2" d="M9.721,95.702c-5.214-9.485,18.582-30.7,18.582-30.7C5.768,81.46-2.852,94.318,0.815,100.519
			c4.259,7.199,29.712,6.156,68.181-10.676C38.083,101.866,13.554,102.671,9.721,95.702z"/>
		<path fill="#0075C2" d="M185.801,5.101c-6.848-11.209-44.239-4.002-94.841,22.185c42.767-19.439,80.736-27.518,88.007-17.419
			c2.392,3.321,1.514,9.846-4.091,18.025C179.724,23.196,189.266,10.775,185.801,5.101z"/>
	</g>
	<path fill="#0075C2" d="M31.913,78.128v-49.97h12.906v22.221l10.841-22.221h14.945L58.461,50.926l12.415,27.203H56.511
		L44.818,51.504v26.624H31.913z"/>
	<g>
		<path fill="#231815" d="M82.13,88.665h2.092l0.956,5.79h0.029l1.016-5.79h2.274l1.077,5.79h0.031l0.982-5.79h2.003l-1.758,8.155
			h-2.378l-1.077-5.793h-0.032L86.33,96.82h-2.426L82.13,88.665z"/>
		<path fill="#231815" d="M92.803,88.665h2.092l0.953,5.79h0.03l1.017-5.79h2.273l1.076,5.79h0.03l0.987-5.79h2l-1.758,8.155h-2.381
			l-1.075-5.793h-0.032l-1.015,5.793h-2.426L92.803,88.665z"/>
		<path fill="#231815" d="M103.476,88.665h2.091l0.956,5.79h0.029l1.016-5.79h2.275l1.075,5.79h0.032l0.983-5.79h2.001l-1.758,8.155
			h-2.38l-1.077-5.793h-0.03l-1.015,5.793h-2.426L103.476,88.665z"/>
		<path fill="#231815" d="M116.302,94.455v2.365h-2v-2.365H116.302z"/>
		<path fill="#231815" d="M119.985,85.996v5.715h0.03l2.108-3.046h2.304l-2.349,3.213l2.697,4.942h-2.305l-1.744-3.352l-0.742,0.971
			v2.381h-2.09V85.996H119.985z"/>
		<path fill="#231815" d="M125.475,88.665h2.091v8.155h-2.091V88.665z M125.475,85.875h2.091v1.787h-2.091V85.875z"/>
		<path fill="#231815" d="M130.567,94.151v0.272c0,0.713,0.379,1.184,1.092,1.184c0.637,0,1.061-0.319,1.061-0.971
			c0-0.53-0.35-0.772-0.758-0.924l-1.471-0.531c-1.152-0.41-1.742-1.121-1.742-2.273c0-1.349,0.847-2.457,3-2.457
			c1.896,0,2.791,0.85,2.791,2.32v0.333h-1.88c0-0.817-0.243-1.228-0.925-1.228c-0.532,0-0.986,0.304-0.986,0.879
			c0,0.395,0.212,0.729,0.91,0.955l1.26,0.424c1.316,0.439,1.801,1.107,1.801,2.336c0,1.711-1.273,2.561-3.031,2.561
			c-2.35,0-3.001-1.03-3.001-2.592v-0.288H130.567z"/>
		<path fill="#231815" d="M136.222,86.329h2.093v2.336h1.212v1.424h-1.212V94.5c0,0.637,0.134,0.895,0.743,0.895
			c0.166,0,0.334-0.015,0.469-0.029v1.455c-0.455,0.046-0.879,0.09-1.366,0.09c-1.636,0-1.938-0.5-1.938-2.152v-4.669h-1.063v-1.424
			h1.063V86.329z"/>
		<path fill="#231815" d="M140.329,88.665h2.094v8.155h-2.094V88.665z M140.329,85.875h2.094v1.787h-2.094V85.875z"/>
		<path fill="#231815" d="M146.016,94.455v2.365h-2.001v-2.365H146.016z"/>
		<path fill="#231815" d="M147.531,88.665h2v1.091h0.029c0.427-0.788,1.019-1.305,1.881-1.305c0.121,0,0.258,0.016,0.38,0.03v2.002
			c-0.213-0.016-0.438-0.03-0.654-0.03c-0.726,0-1.545,0.379-1.545,1.469v4.898h-2.091V88.665z"/>
		<path fill="#231815" d="M154.367,91.818v-0.32c0-0.758,0.242-1.621,1.076-1.621c0.865,0,1.016,0.697,1.061,1.941H154.367z
			 M158.506,93.06v-0.47c0-2.502-0.546-4.14-2.984-4.14c-2.822,0-3.247,2.032-3.247,4.215c0,2.031,0.121,4.365,3.154,4.365
			c1.97,0,2.88-1.061,2.956-2.955h-1.881c-0.121,1-0.407,1.531-1.107,1.531c-0.771,0-1.029-0.941-1.029-1.895V93.06H158.506z"/>
		<path fill="#231815" d="M161.721,94.455v2.365h-2.002v-2.365H161.721z"/>
		<path fill="#231815" d="M165.404,85.996v5.715h0.029l2.106-3.046h2.306l-2.35,3.213l2.698,4.942h-2.304l-1.744-3.352l-0.742,0.971
			v2.381h-2.093V85.996H165.404z"/>
		<path fill="#231815" d="M170.813,88.665h2.003v1.091h0.029c0.426-0.788,1.017-1.305,1.883-1.305c0.119,0,0.256,0.016,0.377,0.03
			v2.002c-0.212-0.016-0.44-0.03-0.651-0.03c-0.729,0-1.547,0.379-1.547,1.469v4.898h-2.094V88.665z"/>
	</g>
</g>
</svg>
