<?xml version="1.0" encoding="UTF-8" standalone="no"?>
<!-- Created with Inkscape (http://www.inkscape.org/) -->

<svg
   width="41.740498mm"
   height="30.541485mm"
   viewBox="0 0 41.740498 30.541485"
   version="1.1"
   id="svg1"
   xml:space="preserve"
   inkscape:version="1.3 (0e150ed, 2023-07-21)"
   sodipodi:docname="nrf.svg"
   xmlns:inkscape="http://www.inkscape.org/namespaces/inkscape"
   xmlns:sodipodi="http://sodipodi.sourceforge.net/DTD/sodipodi-0.dtd"
   xmlns:xlink="http://www.w3.org/1999/xlink"
   xmlns="http://www.w3.org/2000/svg"
   xmlns:svg="http://www.w3.org/2000/svg"><sodipodi:namedview
     id="namedview1"
     pagecolor="#ffffff"
     bordercolor="#000000"
     borderopacity="0.25"
     inkscape:showpageshadow="2"
     inkscape:pageopacity="0.0"
     inkscape:pagecheckerboard="0"
     inkscape:deskcolor="#d1d1d1"
     inkscape:document-units="mm"
     showguides="true"
     inkscape:zoom="1.1048937"
     inkscape:cx="34.392447"
     inkscape:cy="-24.436739"
     inkscape:window-width="1512"
     inkscape:window-height="855"
     inkscape:window-x="0"
     inkscape:window-y="38"
     inkscape:window-maximized="1"
     inkscape:current-layer="layer1" /><defs
     id="defs1"><linearGradient
       id="linearGradient6"
       inkscape:collect="always"><stop
         style="stop-color:#103f95;stop-opacity:1"
         offset="0"
         id="stop7" /><stop
         style="stop-color:#0a96c1;stop-opacity:1"
         offset="1"
         id="stop8" /></linearGradient><linearGradient
       id="linearGradient4"
       inkscape:collect="always"><stop
         style="stop-color:#017d36;stop-opacity:1;"
         offset="0"
         id="stop4" /><stop
         style="stop-color:#4ca525;stop-opacity:1"
         offset="0.25536084"
         id="stop6" /><stop
         style="stop-color:#9cd113;stop-opacity:1"
         offset="1"
         id="stop5" /></linearGradient><linearGradient
       inkscape:collect="always"
       xlink:href="#linearGradient4"
       id="linearGradient5"
       x1="117.61566"
       y1="158.70453"
       x2="117.61566"
       y2="132.85741"
       gradientUnits="userSpaceOnUse" /><linearGradient
       inkscape:collect="always"
       xlink:href="#linearGradient6"
       id="linearGradient8"
       x1="98.432693"
       y1="135.10913"
       x2="112.80251"
       y2="135.10913"
       gradientUnits="userSpaceOnUse" /></defs><g
     inkscape:label="Layer 1"
     inkscape:groupmode="layer"
     id="layer1"
     style="display:inline"
     transform="translate(-83.64722,-128.62855)"><path
       style="opacity:1;fill:url(#linearGradient8);fill-opacity:1"
       d="m 113.75136,137.18417 c -0.11212,0.14889 -0.13331,0.56603 -0.14207,1.28284 -0.007,0.53552 -0.0494,0.97367 -0.0953,0.97367 -0.0459,0 -0.78881,-0.59143 -1.651,-1.31429 -3.94075,-3.30394 -8.01358,-5.1761 -11.30426,-5.19624 -1.2502,-0.008 -1.56855,0.0546 -2.422637,0.47403 -2.231549,1.09577 -3.26521,3.69616 -2.74349,6.90183 0.164305,1.00956 -0.143849,0.69777 -0.613975,-0.62121 -0.453315,-1.27181 -0.610264,-3.74803 -0.317333,-5.00663 0.487351,-2.09392 1.984334,-3.99013 3.809832,-4.82587 3.036283,-1.39006 7.367313,-1.01409 11.465493,0.99531 2.21508,1.31062 2.3054,1.15984 4.0071,2.25642"
       id="path4"
       sodipodi:nodetypes="sssssssscssc" /><path
       id="path3"
       style="fill:#0c2e8c;fill-opacity:1"
       d="m 95.562676,152.45383 c -0.04889,-0.1274 -0.06873,-2.63124 -0.04409,-5.56408 l 0.0448,-5.33244 3.217333,-0.0529 c 1.900921,-0.0312 3.567681,0.0227 4.073591,0.13181 2.18203,0.47059 3.38047,2.82565 2.46434,4.84267 -0.28546,0.62849 -0.50242,0.85299 -1.67384,1.73197 l -0.38524,0.28906 1.73991,1.91864 1.7399,1.91863 0.0858,-4.96663 c 0.0472,-2.73165 0.14665,-5.08967 0.22098,-5.24004 0.28474,-0.57602 0.91162,-0.65793 5.03515,-0.65793 h 4.05603 v 0.93133 c 0,1.55002 -0.12684,1.60867 -3.47941,1.60867 h -2.80208 l 0.0504,1.05833 0.0504,1.05834 2.83633,0.0464 2.83633,0.0464 v 0.97804 c 0,0.53792 -0.0914,1.06948 -0.2032,1.18124 -0.14089,0.1409 -1.02352,0.2032 -2.87866,0.2032 h -2.67547 v 1.86686 c 0,1.8583 -0.002,1.86763 -0.44366,2.03553 -0.25011,0.0951 -1.59827,0.14531 -3.09033,0.11511 -2.04375,-0.0414 -2.7624,-0.11623 -3.15468,-0.32862 -0.63142,-0.34188 -1.54602,-1.29653 -3.12854,-3.26555 -0.67367,-0.8382 -1.27404,-1.57736 -1.334155,-1.64257 -0.06011,-0.0652 -0.109299,0.9787 -0.109299,2.31982 0,1.75756 -0.06062,2.49903 -0.217118,2.65556 -0.318932,0.319 -2.715846,0.4147 -2.831598,0.11305 z m 6.412544,-6.42148 c 0.3236,-0.25455 0.44617,-0.50702 0.44617,-0.91904 0,-0.95128 -0.59038,-1.27009 -2.35117,-1.26961 l -1.458828,3.9e-4 v 1.26974 1.26975 l 1.458828,-1.4e-4 c 1.21933,-1.1e-4 1.53208,-0.0577 1.905,-0.35109 z" /><path
       style="fill:#0c2e8c;fill-opacity:1"
       d="m 83.697393,152.42273 c -0.04769,-0.12427 -0.06435,-2.48385 -0.03702,-5.24353 0.05779,-5.83673 -0.023,-5.56716 1.698572,-5.66709 l 1.060446,-0.0616 2.201333,2.96659 2.201333,2.96659 0.08467,-2.67623 c 0.06061,-1.91581 0.150701,-2.75559 0.317067,-2.95553 0.17746,-0.21327 0.527737,-0.2793 1.481667,-0.2793 h 1.249266 v 5.16467 c 0,4.8895 -0.01754,5.1822 -0.329222,5.49388 -0.351842,0.35185 -1.239787,0.58316 -1.880142,0.4898 -0.277189,-0.0404 -1.060243,-0.92579 -2.689182,-3.04057 l -2.298121,-2.98355 -0.04306,2.72955 c -0.04009,2.54084 -0.06772,2.75004 -0.39976,3.02589 -0.449519,0.37344 -2.480591,0.42806 -2.617842,0.0704 z"
       id="path2" /><path
       style="opacity:1;fill:url(#linearGradient5);fill-opacity:1"
       d="m 115.25922,159.07985 c -2.49982,-0.39192 -4.48188,-1.13343 -6.96781,-2.60675 -2.24154,-1.32848 -4.86346,-3.48575 -4.23654,-3.48575 0.0602,0 0.52122,0.2733 1.02447,0.60734 6.42675,4.26583 13.34594,4.66905 15.71526,0.9158 1.28943,-2.04259 1.01179,-5.39318 -0.75304,-9.08769 -1.36076,-2.84863 -3.06392,-5.23822 -5.15857,-7.46578 -1.12103,-1.19216 -1.72434,-1.73221 -3.51723,-2.95535 l 0.36665,-5.18307 c 0.002,-0.98318 0.0521,-1.22874 0.24273,-1.18534 0.47988,0.10928 3.7758,2.8635 5.26953,4.40345 2.75671,2.84202 4.36673,5.09384 5.85219,8.18507 4.10235,8.53697 2.57414,15.98316 -3.61614,17.61948 -1.20062,0.31737 -3.05171,0.42199 -4.2215,0.23859 z"
       id="path1"
       sodipodi:nodetypes="sssssssccsssss" /></g></svg>
