<?xml version="1.0" encoding="UTF-8" standalone="no"?>
<!-- Created with Inkscape (http://www.inkscape.org/) -->

<svg
   version="1.1"
   id="svg2"
   xml:space="preserve"
   width="585.24359"
   height="89.132401"
   viewBox="0 0 585.24359 89.132402"
   sodipodi:docname="0125-國科會標誌組合.svg"
   inkscape:version="1.1.1 (3bf5ae0d25, 2021-09-20)"
   xmlns:inkscape="http://www.inkscape.org/namespaces/inkscape"
   xmlns:sodipodi="http://sodipodi.sourceforge.net/DTD/sodipodi-0.dtd"
   xmlns="http://www.w3.org/2000/svg"
   xmlns:svg="http://www.w3.org/2000/svg"><defs
     id="defs6"><clipPath
       clipPathUnits="userSpaceOnUse"
       id="clipPath16"><path
         d="M 0,391.912 H 595.276 V 0 H 0 Z"
         id="path14" /></clipPath><linearGradient
       x1="0"
       y1="0"
       x2="1"
       y2="0"
       gradientUnits="userSpaceOnUse"
       gradientTransform="matrix(149.14154,0,0,-149.14154,78.624214,218.86378)"
       spreadMethod="pad"
       id="linearGradient162"><stop
         style="stop-opacity:1;stop-color:#de7403"
         offset="0"
         id="stop158" /><stop
         style="stop-opacity:1;stop-color:#ffda2a"
         offset="1"
         id="stop160" /></linearGradient><clipPath
       clipPathUnits="userSpaceOnUse"
       id="clipPath172"><path
         d="M 0,391.912 H 595.276 V 0 H 0 Z"
         id="path170" /></clipPath></defs><sodipodi:namedview
     id="namedview4"
     pagecolor="#ffffff"
     bordercolor="#666666"
     borderopacity="1.0"
     inkscape:pageshadow="2"
     inkscape:pageopacity="0.0"
     inkscape:pagecheckerboard="0"
     showgrid="false"
     fit-margin-top="0"
     fit-margin-left="0"
     fit-margin-right="0"
     fit-margin-bottom="0"
     inkscape:zoom="1.6706557"
     inkscape:cx="292.10088"
     inkscape:cy="61.652439"
     inkscape:window-width="3440"
     inkscape:window-height="1411"
     inkscape:window-x="1431"
     inkscape:window-y="-9"
     inkscape:window-maximized="1"
     inkscape:current-layer="g10" /><g
     id="g8"
     inkscape:groupmode="layer"
     inkscape:label="0125-國科會標誌組合"
     transform="matrix(1.3333333,0,0,-1.3333333,-104.832,323.24399)"><g
       id="g10"
       style="display:inline"><g
         id="g12"
         clip-path="url(#clipPath16)"><g
           id="g18"
           transform="translate(261.7812,197.4972)"><path
             d="m 0,0 h -14.327 c -1.08,0 -1.277,0.43 -1.277,1.278 v 17.577 c 0,1.09 0.468,1.304 1.277,1.304 H 0 c 0.955,0 1.277,-0.329 1.277,-1.304 V 1.278 C 1.277,0.204 0.828,0 0,0 m 1.11,21.543 h -16.547 c -2.151,0 -3.11,-0.894 -3.11,-2.899 V 1.489 c 0,-1.349 0.353,-2.899 3.11,-2.899 H 1.11 c 2.122,0 3.111,0.921 3.111,2.899 v 17.155 c 0,1.244 -0.323,2.899 -3.111,2.899"
             style="fill:#3e3a39;fill-opacity:1;fill-rule:nonzero;stroke:none"
             id="path20" /></g><g
           id="g22"
           transform="translate(249.9043,206.8805)"><path
             d="m 0,0 v 2.286 c 0,0.643 0.105,0.748 0.749,0.748 h 0.766 c 0.644,0 0.749,-0.105 0.749,-0.748 L 2.264,0 c 0,-0.598 -0.074,-0.749 -0.749,-0.749 H 0.749 C 0.074,-0.749 0,-0.598 0,0 m 2.546,-2.133 c 0.998,0 1.921,0.197 1.921,1.631 v 3.289 c 0,1.158 -0.556,1.63 -1.921,1.63 h -2.828 c -1.012,0 -1.948,-0.197 -1.948,-1.63 v -3.289 c 0,-1.159 0.564,-1.631 1.948,-1.631 z"
             style="fill:#3e3a39;fill-opacity:1;fill-rule:nonzero;stroke:none"
             id="path24" /></g><g
           id="g26"
           transform="translate(261.0674,210.3175)"><path
             d="m 0,0 c -0.964,0 -1.161,-0.527 -1.319,-0.95 l -0.015,-0.042 c -0.608,-1.774 -0.718,-2.083 -1.222,-3.122 -0.642,2.943 -0.735,5.106 -0.779,6.324 h 3.969 c 0.533,0 0.838,0.257 0.838,0.706 0,0.52 -0.433,0.705 -0.838,0.705 H 0.197 c 0.14,0.179 0.24,0.388 0.24,0.62 0,0.499 -0.322,0.738 -0.859,1.096 -0.623,0.413 -1.297,0.836 -1.583,0.836 -0.337,0 -0.621,-0.284 -0.621,-0.621 0,-0.111 0.043,-0.288 0.086,-0.33 0.115,-0.159 0.237,-0.32 0.352,-0.474 0.182,-0.243 0.354,-0.472 0.451,-0.625 0.133,-0.213 0.238,-0.371 0.334,-0.502 h -1.963 v 1.673 c 0,0.906 -0.52,1.446 -1.392,1.446 -0.535,0 -1.198,-0.362 -1.337,-0.949 -0.054,-0.244 -0.031,-1.653 -0.008,-2.17 h -7.377 c -0.406,0 -0.838,-0.185 -0.838,-0.705 0,-0.52 0.432,-0.706 0.838,-0.706 h 7.441 c 0.1,-1.71 0.339,-5.523 1.569,-9.372 -1.13,-1.407 -2.716,-2.814 -4.254,-3.772 -0.218,-0.146 -0.413,-0.303 -0.413,-0.635 0,-0.34 0.27,-0.705 0.705,-0.705 0.529,0 2.886,1.494 4.72,3.106 0.899,-2.122 2.02,-2.578 2.817,-2.578 h 0.024 c 1.332,0.016 2.073,0.928 2.245,1.538 0.1,0.355 0.033,0.648 -0.181,0.783 -0.307,0.194 -0.573,-0.015 -0.831,-0.216 -0.313,-0.243 -0.606,-0.472 -1.045,-0.215 -0.323,0.192 -0.852,1.684 -1.037,2.727 1.951,2.391 3.245,5.08 3.245,5.816 C 1.525,-0.682 0.942,0 0,0"
             style="fill:#3e3a39;fill-opacity:1;fill-rule:nonzero;stroke:none"
             id="path28" /></g><g
           id="g30"
           transform="translate(254.6265,202.4347)"><path
             d="m 0,0 c 0.179,0.059 0.597,0.196 0.597,0.718 0,0.414 -0.402,0.679 -0.679,0.679 -0.052,0 -0.171,-0.011 -0.257,-0.019 C -0.382,1.375 -0.416,1.371 -0.439,1.37 -2.637,1.055 -4.204,0.886 -6.154,0.807 L -6.187,0.805 c -0.349,-0.027 -1.167,-0.087 -1.167,-1.1 0,-0.546 0.442,-1.154 1.076,-1.154 0.119,0 4.153,0.837 6.253,1.441 z"
             style="fill:#3e3a39;fill-opacity:1;fill-rule:nonzero;stroke:none"
             id="path32" /></g><g
           id="g34"
           transform="translate(511.0996,202.0451)"><path
             d="M 0,0 V -0.947 H -10.847 V 0 c 0,0.943 0.153,1.121 0.956,1.121 h 8.935 C -0.135,1.121 0,0.963 0,0 m 0,-2.416 v -1.005 c 0,-0.942 -0.152,-1.12 -0.956,-1.12 h -8.935 c -0.821,0 -0.956,0.157 -0.956,1.12 v 1.005 z M 0.481,2.62 h -11.835 c -1.686,0 -2.406,-0.714 -2.406,-2.388 v -3.885 c 0,-1.239 0.291,-2.387 2.406,-2.387 H 0.481 c 1.706,0 2.432,0.714 2.432,2.387 v 3.885 c 0,1.674 -0.726,2.388 -2.432,2.388"
             style="fill:#3e3a39;fill-opacity:1;fill-rule:nonzero;stroke:none"
             id="path36" /></g><g
           id="g38"
           transform="translate(508.8467,209.2531)"><path
             d="m 0,0 c -0.039,-0.098 -0.161,-0.338 -0.29,-0.593 -0.327,-0.643 -0.436,-0.872 -0.436,-0.958 0,-0.209 0.122,-0.418 0.31,-0.544 h -1.4 V 1.843 H 1.072 C 0.669,1.65 0.442,1.125 0,0 m 3.01,0.683 c 0,0.553 -0.431,0.98 -0.938,1.16 h 1.073 c 0.821,0 0.956,-0.134 0.956,-0.955 V -1.14 c 0,-0.873 -0.169,-0.955 -0.956,-0.955 H 0.243 C 1.062,-1.668 3.01,-0.146 3.01,0.683 M -9.068,0.605 c 0,-0.805 1.906,-2.281 2.714,-2.7 h -3.105 c -0.787,0 -0.957,0.082 -0.957,0.955 v 2.028 c 0,0.821 0.135,0.955 0.957,0.955 h 1.364 C -8.638,1.671 -9.068,1.162 -9.068,0.605 m 3.659,-2.182 c 0,0.131 -0.035,0.249 -0.117,0.386 -0.363,0.573 -0.714,1.309 -1.045,2.189 L -6.572,1 c -0.192,0.47 -0.421,0.732 -0.742,0.843 h 2.789 v -3.938 h -1.173 c 0.163,0.107 0.289,0.281 0.289,0.518 m 10.016,4.77 h -15.478 c -2.054,0 -2.33,-1.048 -2.33,-2.074 v -2.49 c 0,-1.025 0.276,-2.074 2.33,-2.074 H 4.607 c 2.05,0 2.331,0.997 2.331,2.074 v 2.49 c 0,1.026 -0.277,2.074 -2.331,2.074"
             style="fill:#3e3a39;fill-opacity:1;fill-rule:nonzero;stroke:none"
             id="path40" /></g><g
           id="g42"
           transform="translate(510.8467,215.151)"><path
             d="m 0,0 h -10.371 c 2.725,1.039 3.906,1.874 4.977,2.632 l 0.078,0.058 c 0.155,0.115 0.203,0.148 0.299,0.148 0.119,0 0.17,-0.027 0.377,-0.205 1.446,-1.086 3.164,-1.972 4.8,-2.662 C 0.104,-0.021 0.064,0 0,0 m 6.1,-0.451 c -2.02,0.562 -5.846,1.943 -8.786,4.875 -0.858,0.887 -1.088,1.029 -2.356,1.029 -1.226,0 -1.509,-0.206 -1.94,-0.601 -1.723,-1.628 -3.866,-3.654 -9.327,-5.277 -0.094,-0.023 -0.56,-0.162 -0.56,-0.667 0,-0.384 0.335,-0.67 0.634,-0.67 0.387,0 1.889,0.442 2.752,0.705 0.93,0.285 1.742,0.556 2.459,0.814 -0.135,-0.16 -0.157,-0.357 -0.157,-0.445 0,-0.248 0.103,-0.662 0.788,-0.662 H 0 c 0.512,0 0.816,0.247 0.816,0.662 0,0.144 -0.067,0.338 -0.23,0.485 2.641,-1.068 4.978,-1.609 5.462,-1.609 0.277,0 0.662,0.233 0.662,0.67 0,0.345 -0.205,0.578 -0.61,0.691"
             style="fill:#3e3a39;fill-opacity:1;fill-rule:nonzero;stroke:none"
             id="path44" /></g><g
           id="g46"
           transform="translate(306.5391,197.1515)"><path
             d="M 0,0 V 10 C 0.542,9.249 2.184,7.055 2.863,7.055 c 0.383,0 0.706,0.321 0.706,0.701 0,0.255 -0.204,0.479 -0.259,0.535 -2.2,2.687 -3.086,5.611 -3.31,6.47 v 0.101 h 2.653 c 0.532,0 0.837,0.256 0.837,0.701 0,0.439 -0.312,0.702 -0.837,0.702 H 0 v 3.56 c 2.494,0.253 3.173,0.46 3.173,1.375 0,0.641 -0.584,1.358 -1.366,1.358 -0.256,0 -1.631,-0.5 -1.643,-0.504 -2.075,-0.712 -3.878,-0.918 -6.159,-1.179 l -0.452,-0.051 c -0.226,-0.019 -0.909,-0.075 -0.909,-0.727 0,-0.518 0.436,-0.702 0.811,-0.702 0.369,0 2.247,0.076 3.603,0.177 v -3.307 h -3.629 c -0.406,0 -0.838,-0.184 -0.838,-0.702 0,-0.439 0.313,-0.701 0.838,-0.701 h 3.45 C -4.027,10.131 -6.262,6.41 -7.517,4.897 -7.713,4.675 -7.832,4.522 -7.832,4.283 c 0,-0.387 0.328,-0.702 0.731,-0.702 0.469,0 2.457,1.917 4.159,4.687 V 0 c 0,-0.508 0,-1.857 1.471,-1.857 C 0,-1.857 0,-0.508 0,0"
             style="fill:#3e3a39;fill-opacity:1;fill-rule:nonzero;stroke:none"
             id="path48" /></g><g
           id="g50"
           transform="translate(313.2539,207.5666)"><path
             d="m 0,0 c 0.237,-0.521 0.563,-1.003 1.33,-1.003 0.904,0 1.604,0.872 1.604,1.622 0,0.935 -1.54,2.002 -2.371,2.577 -0.048,0.031 -0.118,0.076 -0.203,0.132 -0.974,0.635 -1.92,1.223 -2.228,1.223 -0.339,0 -0.704,-0.268 -0.704,-0.702 0,-0.218 0.124,-0.4 0.236,-0.538 C -1.303,2.182 -0.59,1.278 0,0"
             style="fill:#3e3a39;fill-opacity:1;fill-rule:nonzero;stroke:none"
             id="path52" /></g><g
           id="g54"
           transform="translate(313.1797,214.7257)"><path
             d="m 0,0 0.001,-0.001 c 0.955,-1.436 1.102,-1.619 1.721,-1.619 0.812,0 1.498,0.705 1.498,1.541 0,0.515 -0.159,0.982 -2.212,2.314 -0.186,0.123 -1.822,1.199 -2.274,1.199 -0.395,0 -0.704,-0.308 -0.704,-0.702 0,-0.185 0.115,-0.365 0.207,-0.457 C -1.065,1.466 -0.498,0.77 0,0"
             style="fill:#3e3a39;fill-opacity:1;fill-rule:nonzero;stroke:none"
             id="path56" /></g><g
           id="g58"
           transform="translate(323.9727,204.549)"><path
             d="M 0,0 C -0.018,0.377 -0.337,0.665 -0.721,0.654 L -3.529,0.221 v 13.187 c 0,0.494 0,1.804 -1.498,1.804 -1.445,0 -1.445,-1.358 -1.445,-1.804 v -13.64 l -7.312,-1.128 c -0.185,-0.008 -0.355,-0.088 -0.479,-0.224 -0.124,-0.136 -0.186,-0.311 -0.178,-0.493 0.017,-0.366 0.321,-0.653 0.695,-0.653 0.013,0 0.023,0 0.036,10e-4 l 7.238,1.115 v -5.81 c 0,-0.5 0,-1.83 1.471,-1.83 1.472,0 1.472,1.378 1.472,1.83 v 6.263 l 2.873,0.444 c 0.184,0.008 0.354,0.087 0.477,0.223 C -0.055,-0.359 0.009,-0.184 0,0"
             style="fill:#3e3a39;fill-opacity:1;fill-rule:nonzero;stroke:none"
             id="path60" /></g><g
           id="g62"
           transform="translate(474.6768,200.4919)"><path
             d="m 0,0 c -0.543,0 -0.765,-0.164 -1.367,-0.609 -0.574,-0.426 -2.177,-1.508 -4.671,-2.349 -1.173,-0.39 -1.451,-0.483 -1.451,-0.938 0,-0.333 0.275,-0.688 0.788,-0.688 0.301,0 2.472,0.321 5.083,1.03 2.544,0.696 3.28,1.16 3.28,2.071 C 1.662,-0.734 0.839,0 0,0"
             style="fill:#3e3a39;fill-opacity:1;fill-rule:nonzero;stroke:none"
             id="path64" /></g><g
           id="g66"
           transform="translate(472.1309,203.2687)"><path
             d="M 0,0 V 1.269 H 13.538 V 0 c 0,-0.687 -0.129,-0.901 -0.931,-0.901 H 0.93 C 0.122,-0.901 0,-0.698 0,0 M 0,4.603 H 13.538 V 2.637 H 0 Z m 0,1.376 v 0.95 c 0,0.732 0.115,0.93 0.93,0.93 h 11.677 c 0.796,0 0.931,-0.232 0.931,-0.93 v -0.95 z m -0.252,-8.257 h 14.168 c 1.823,0 2.636,0.736 2.636,2.385 v 6.725 c 0,1.685 -0.788,2.404 -2.636,2.404 H -0.252 c -1.849,0 -2.637,-0.719 -2.637,-2.404 V 0.107 c 0,-1.672 0.788,-2.385 2.637,-2.385"
             style="fill:#3e3a39;fill-opacity:1;fill-rule:nonzero;stroke:none"
             id="path68" /></g><g
           id="g70"
           transform="translate(472.8701,216.1095)"><path
             d="M 0,0 V 1.172 C 0,1.95 0.091,2.131 0.979,2.131 h 9.579 c 0.888,0 0.979,-0.181 0.979,-0.959 V 0 c 0,-0.766 -0.115,-0.959 -0.979,-0.959 H 0.979 C 0.091,-0.959 0,-0.778 0,0 M -0.455,-2.336 H 12.1 c 1.705,0 2.431,0.635 2.431,2.123 v 1.599 c 0,1.507 -0.704,2.122 -2.431,2.122 H -0.455 c -1.705,0 -2.432,-0.635 -2.432,-2.122 v -1.599 c 0,-1.05 0.288,-2.123 2.432,-2.123"
             style="fill:#3e3a39;fill-opacity:1;fill-rule:nonzero;stroke:none"
             id="path72" /></g><g
           id="g74"
           transform="translate(487.2812,199.1164)"><path
             d="m 0,0 c -2.132,0.595 -4.556,1.031 -5.006,1.031 -0.527,0 -0.842,-0.258 -0.842,-0.688 0,-0.34 0.235,-0.592 0.659,-0.709 1.86,-0.578 3.165,-1.079 4.725,-2.068 1.453,-0.934 1.693,-1.068 2.158,-1.068 0.843,0 1.612,0.683 1.612,1.432 C 3.306,-1.204 2.564,-0.74 0,0"
             style="fill:#3e3a39;fill-opacity:1;fill-rule:nonzero;stroke:none"
             id="path76" /></g><g
           id="g78"
           transform="translate(413.2256,197.7003)"><path
             d="m 0,0 c 0,-1.103 0.455,-1.663 1.354,-1.663 0.899,0 1.355,0.56 1.355,1.663 v 12.444 c 0.504,0.707 1.514,2.132 1.514,2.805 0,0.934 -0.912,1.355 -1.56,1.355 -0.873,0 -1.158,-0.729 -1.387,-1.313 L 1.263,15.258 C 0.233,12.59 -0.761,11.098 -2.598,8.765 -2.722,8.616 -2.85,8.463 -2.85,8.214 c 0,-0.372 0.315,-0.687 0.687,-0.687 0.403,0 1.272,0.815 2.163,1.71 z"
             style="fill:#3e3a39;fill-opacity:1;fill-rule:nonzero;stroke:none"
             id="path80" /></g><g
           id="g82"
           transform="translate(411.3711,212.7233)"><path
             d="M 0,0 C 0.731,0 5.539,4.495 5.539,5.873 5.539,6.678 4.742,7.177 4.005,7.177 3.466,7.177 3.04,7.019 2.709,6.246 1.74,4.036 1.194,2.971 -0.326,1.321 -0.501,1.146 -0.662,0.948 -0.662,0.687 -0.662,0.302 -0.372,0 0,0"
             style="fill:#3e3a39;fill-opacity:1;fill-rule:nonzero;stroke:none"
             id="path84" /></g><g
           id="g86"
           transform="translate(419.3291,210.6647)"><path
             d="m 0,0 c -0.771,0 -1.078,-0.437 -1.13,-1.232 -0.102,-2.234 -0.257,-4.493 -0.796,-6.649 -0.077,-0.359 -0.616,-2.131 -0.616,-2.26 0,-0.282 0.231,-0.59 0.59,-0.59 0.36,0 0.54,0.205 1.053,1.284 1.412,3.054 2.182,7.188 2.182,8.291 C 1.283,-0.334 0.539,0 0,0"
             style="fill:#3e3a39;fill-opacity:1;fill-rule:nonzero;stroke:none"
             id="path88" /></g><g
           id="g90"
           transform="translate(418.5332,213.2106)"><path
             d="m 0,0 h 2.598 v -15.536 c 0,-0.399 0,-1.611 1.355,-1.611 0.618,0 1.354,0.274 1.354,1.585 V 0 H 8.11 c 0.512,0 0.817,0.257 0.817,0.687 0,0.508 -0.422,0.688 -0.817,0.688 H 5.307 v 3.703 c 0,1.037 -0.477,1.586 -1.379,1.586 -0.608,0 -1.33,-0.275 -1.33,-1.586 V 1.375 H 0 C -0.511,1.375 -0.815,1.118 -0.815,0.687 -0.815,0.257 -0.511,0 0,0"
             style="fill:#3e3a39;fill-opacity:1;fill-rule:nonzero;stroke:none"
             id="path92" /></g><g
           id="g94"
           transform="translate(425.2637,216.3854)"><path
             d="m 0,0 c 0.433,-1.107 0.507,-1.249 0.994,-1.249 0.477,0 1.01,0.432 1.01,1.008 0,0.862 -1.902,2.408 -2.198,2.466 -0.464,0.091 -0.594,-0.15 -0.594,-0.387 0,-0.186 0.34,-0.887 0.542,-1.306 C -0.13,0.292 -0.039,0.103 0,0"
             style="fill:#3e3a39;fill-opacity:1;fill-rule:nonzero;stroke:none"
             id="path96" /></g><g
           id="g98"
           transform="translate(433.833,212.5324)"><path
             d="m 0,0 h -5.802 c -0.511,0 -0.815,-0.257 -0.815,-0.687 0,-0.42 0.297,-0.662 0.815,-0.662 h 1.855 v -12.688 c 0,-0.774 -0.091,-0.954 -0.982,-0.954 h -0.925 c -0.575,0 -0.867,-0.232 -0.867,-0.688 0,-0.456 0.292,-0.687 0.867,-0.687 h 2.259 c 2.094,0 2.382,1.058 2.382,2.202 V -1.349 H 0 c 0.519,0 0.815,0.251 0.815,0.688 C 0.815,-0.414 0.71,0 0,0"
             style="fill:#3e3a39;fill-opacity:1;fill-rule:nonzero;stroke:none"
             id="path100" /></g><g
           id="g102"
           transform="translate(428.6973,216.9591)"><path
             d="m 0,0 h 4.827 c 0.495,0 0.79,0.258 0.79,0.688 0,0.43 -0.295,0.687 -0.79,0.687 H 0 C -0.51,1.375 -0.814,1.118 -0.814,0.688 -0.814,0.181 -0.394,0 0,0"
             style="fill:#3e3a39;fill-opacity:1;fill-rule:nonzero;stroke:none"
             id="path104" /></g><g
           id="g106"
           transform="translate(429.1729,201.4543)"><path
             d="m 0,0 c 0.277,0.162 0.274,0.587 0.017,0.767 -0.311,0.217 -0.823,0.135 -1.176,0.24 -0.443,0.132 -0.945,0.375 -1.063,0.866 -0.301,2.076 -0.043,3.619 -0.059,6.106 -0.006,0.798 -0.407,1.218 -1.177,1.188 -0.539,-0.02 -1.27,-0.383 -1.238,-1.204 0.069,-1.788 0.136,-3.582 0.395,-5.355 0.163,-1.113 0.48,-2.19 1.57,-2.707 C -1.88,-0.503 -0.81,-0.474 0,0"
             style="fill:#3e3a39;fill-opacity:1;fill-rule:nonzero;stroke:none"
             id="path108" /></g><g
           id="g110"
           transform="translate(369.9902,215.1374)"><path
             d="m 0,0 c -0.682,-1.245 -1.326,-2.42 -1.326,-2.829 0,-0.563 0.273,-1.505 2.105,-1.505 H 2.59 c 0.798,0 1.029,-0.017 1.029,-0.386 C 3.6,-4.959 2.453,-8.756 -0.282,-12.038 -3.65,-8.162 -4.561,-3.191 -5.042,1.601 L -5.07,2.598 h 5.494 c 0.137,0 0.456,0 0.594,-0.147 C 1.072,2.394 1.095,2.317 1.087,2.217 1.065,1.944 0.523,0.956 0,0 m -1.677,-13.549 c -1.995,-1.969 -3.375,-2.979 -6.584,-4.073 -0.322,-0.104 -0.513,-0.349 -0.513,-0.655 0,-0.412 0.333,-0.689 0.642,-0.689 0.086,0 0.163,0.016 0.293,0.041 0.055,0.01 0.119,0.024 0.206,0.04 3.99,0.998 6.227,2.811 7.302,3.682 0.109,0.088 0.205,0.166 0.288,0.231 3.351,-2.586 7.508,-3.965 7.974,-3.965 0.282,0 0.672,0.236 0.672,0.68 0,0.415 -0.327,0.608 -0.613,0.729 l -0.033,0.015 c -1.84,0.843 -4.608,2.11 -6.55,3.812 3.9,3.749 5.653,8.369 5.653,9.134 0,0.765 -0.528,1.582 -2.007,1.582 H 2.53 c -0.456,0 -0.634,0.117 -0.634,0.418 0,0.322 0.583,1.294 1.144,2.234 0.685,1.142 1.329,2.221 1.329,2.698 0,1.051 -0.762,1.583 -2.265,1.583 H -12.82 c -0.686,0 -0.829,-0.36 -0.829,-0.661 0,-0.639 0.612,-0.689 0.8,-0.689 h 4.78 c 0.024,-7.303 -0.815,-14.713 -6.946,-19.524 -0.141,-0.1 -0.405,-0.288 -0.405,-0.642 0,-0.362 0.314,-0.679 0.671,-0.679 0.433,0 6.886,3.411 8.597,12.233 2.119,-4.526 3.115,-6.202 4.475,-7.535"
             style="fill:#3e3a39;fill-opacity:1;fill-rule:nonzero;stroke:none"
             id="path112" /></g><g
           id="g114"
           transform="translate(272.8789,212.4518)"><path
             d="M 0,0 C 1.472,0 1.472,1.346 1.472,1.789 V 2.82 c 0,0.807 0.099,1.013 1.013,1.013 H 17.63 c 0.89,0 0.988,-0.206 0.988,-1.013 V 1.789 c 0,-0.49 0,-1.789 1.523,-1.789 1.029,0 1.55,0.602 1.55,1.789 v 1.242 c 0,1.531 -0.748,2.185 -2.502,2.185 h -7.621 v 1.278 c 0,1.494 -1.047,1.656 -1.497,1.656 C 8.745,8.15 8.546,7.112 8.546,6.494 V 5.216 H 1.004 c -1.754,0 -2.502,-0.654 -2.502,-2.185 V 1.789 C -1.498,0.602 -0.994,0 0,0"
             style="fill:#3e3a39;fill-opacity:1;fill-rule:nonzero;stroke:none"
             id="path116" /></g><g
           id="g118"
           transform="translate(286.6421,204.8966)"><path
             d="m 0,0 c 1.221,-1.822 2.713,-3.359 4.439,-4.568 1.822,-1.259 3.753,-1.968 4.211,-1.869 0.365,0.083 0.594,0.467 0.51,0.854 -0.064,0.294 -0.269,0.439 -0.48,0.552 L 8.678,-5.03 C 6.5,-3.944 4.365,-2.533 2.158,1.38 4.079,2.76 5.251,4.079 5.15,4.752 5.087,5.177 4.856,5.555 4.5,5.817 4.164,6.063 3.752,6.17 3.377,6.111 2.898,6.036 2.646,5.786 2.417,5.435 1.919,4.707 0.113,2.469 -1.112,1.58 -1.805,3.305 -2.869,4.768 -4.28,5.934 c 0.702,0.584 1.018,0.926 1.448,1.394 l 0.027,0.028 h 5.791 c 0.524,0 0.836,0.27 0.836,0.721 0,0.458 -0.304,0.721 -0.836,0.721 h -13.502 c -0.525,0 -0.838,-0.27 -0.838,-0.721 0,-0.532 0.433,-0.721 0.838,-0.721 h 3.799 C -7.63,6.187 -9.699,4.128 -13.831,2.413 c -0.213,-0.098 -0.611,-0.28 -0.611,-0.74 0,-0.445 0.352,-0.721 0.678,-0.721 0.384,0 2.279,0.718 3.369,1.203 1.301,0.571 3.257,1.604 4.887,2.803 l 0.029,-0.037 c 0.168,-0.215 0.329,-0.419 0.557,-0.796 -2.591,-2.963 -6.494,-5.095 -9.058,-6.023 -0.416,-0.143 -0.594,-0.357 -0.594,-0.716 0,-0.391 0.323,-0.721 0.705,-0.721 0.459,0 6.258,1.737 10.082,5.007 0.114,-0.308 0.188,-0.577 0.303,-0.989 l 0.027,-0.097 c -2.735,-3.006 -6.667,-5.459 -11.078,-6.906 -0.378,-0.13 -0.726,-0.313 -0.726,-0.771 0,-0.452 0.379,-0.694 0.652,-0.694 0.329,0 6.625,1.507 11.509,5.405 0.044,-2.557 -0.225,-4.091 -0.821,-4.686 -0.374,-0.373 -0.833,-0.363 -1.32,-0.351 -0.084,0.003 -0.171,0.009 -0.242,0.004 l -1.936,0.129 c -0.533,0 -0.838,-0.263 -0.838,-0.722 0,-0.665 1.974,-1.409 4.617,-1.409 3.052,0 3.507,3.411 3.507,5.444 0,1.305 -0.131,2.539 -0.388,3.668 0.136,0.076 0.266,0.153 0.396,0.23 z"
             style="fill:#3e3a39;fill-opacity:1;fill-rule:nonzero;stroke:none"
             id="path120" /></g><g
           id="g122"
           transform="translate(340.2451,210.6984)"><path
             d="m 0,0 c 0.265,-0.291 0.316,-0.37 0.817,-1.055 0.048,-0.062 0.1,-0.121 0.158,-0.175 h -3.77 C -1.947,-0.924 -0.731,-0.393 0,0 m -10.968,-6.624 c 0.963,0 1.278,0.582 1.278,1.683 v 1.429 c 0,0.766 0.127,0.891 0.909,0.891 H 7.688 c 0.763,0 0.907,-0.141 0.907,-0.891 v -1.404 c 0,-1.101 0.291,-1.708 1.24,-1.708 0.962,0 1.47,0.591 1.47,1.708 v 1.717 c 0,1.894 -1.505,1.966 -2.399,1.969 L 9.35,6.49 C 9.386,7.022 9.229,7.491 8.898,7.845 8.524,8.245 7.966,8.465 7.324,8.465 H 4.02 C 3.495,8.465 3.184,8.206 3.184,7.771 3.184,7.329 3.487,7.076 4.02,7.076 h 1.849 c 0.2,0 0.371,-0.065 0.482,-0.181 C 6.449,6.79 6.497,6.645 6.487,6.476 L 6.412,5.112 H 3.967 C 3.389,5.112 3.184,4.753 3.184,4.417 3.184,3.975 3.487,3.721 4.02,3.721 H 6.322 L 6.227,1.915 H 3.888 C 3.492,1.915 3.184,1.609 3.184,1.22 3.184,0.794 3.487,0.55 4.02,0.55 H 6.138 L 6.042,-1.23 H 2.313 c 0.281,0.225 0.483,0.557 0.483,0.913 0,0.502 -0.343,0.765 -1.082,1.292 0.686,0.476 1.108,0.765 1.108,1.319 0,0.607 -0.553,1.16 -1.239,1.16 C 1.346,3.454 1.135,3.375 0.924,3.191 0.791,3.032 0.105,2.294 -0.053,2.136 c -0.395,0.237 -1.292,0.791 -1.609,0.791 -0.368,0 -0.606,-0.343 -0.606,-0.633 0,-0.184 0.106,-0.343 0.184,-0.421 0.106,-0.106 0.739,-0.581 0.871,-0.686 -0.713,-0.528 -0.924,-0.634 -2.69,-1.53 -0.211,-0.105 -0.343,-0.264 -0.343,-0.527 0,-0.14 0.056,-0.259 0.133,-0.36 H -7.069 L -7.14,0.55 h 2.2 c 0.388,0 0.704,0.301 0.704,0.67 0,0.442 -0.306,0.695 -0.837,0.695 h -2.128 l -0.096,1.703 h 2.276 c 0.62,0 0.785,0.437 0.785,0.695 0,0.513 -0.433,0.695 -0.837,0.695 H -7.36 l -0.075,1.26 c -0.019,0.358 -0.02,0.365 1.48,0.465 l 0.066,0.005 c 1.425,0.075 2.366,0.126 2.366,1.162 0,0.55 -0.463,1.163 -1.127,1.163 -0.215,0 -0.777,-0.192 -1.434,-0.424 C -6.315,8.557 -6.516,8.486 -6.604,8.462 -7.476,8.242 -8.176,8.185 -8.794,8.135 L -8.886,8.127 C -9.813,8.071 -10.354,7.385 -10.298,6.336 l 0.391,-7.566 c -1.047,-0.002 -2.531,-0.063 -2.531,-1.969 v -1.742 c 0,-1.085 0.522,-1.683 1.47,-1.683"
             style="fill:#3e3a39;fill-opacity:1;fill-rule:nonzero;stroke:none"
             id="path124" /></g><g
           id="g126"
           transform="translate(341.0225,197.2799)"><path
             d="M 0,0 C 0.001,0 0.001,0.001 0.001,0.002 0.042,0.12 0.068,0.253 0.092,0.388 0.1,0.437 0.111,0.485 0.117,0.535 0.121,0.569 0.131,0.6 0.134,0.634 H 0.123 c 0.013,0.132 0.026,0.262 0.026,0.409 v 2.469 h 9.144 c 0.264,0 0.74,0.078 0.74,0.597 0,0.547 -0.476,0.599 -0.74,0.599 H 0.149 v 0.546 c 0,0.13 -0.026,0.208 -0.052,0.311 4.651,2.028 4.651,2.288 4.651,2.783 0,0.026 -0.026,0.857 -1.083,0.857 H -7.357 c -0.265,0 -0.74,-0.078 -0.74,-0.598 0,-0.572 0.554,-0.598 0.74,-0.598 h 7.348 c 0.158,0 0.264,-0.103 0.264,-0.234 0,-0.285 -0.925,-1.066 -0.951,-1.091 -0.132,0.051 -0.291,0.103 -0.556,0.103 -0.95,0 -1.427,-0.598 -1.427,-1.533 V 4.708 h -9.508 c -0.29,0 -0.739,-0.078 -0.739,-0.599 0,-0.519 0.476,-0.597 0.739,-0.597 h 9.508 V 1.043 c 0,-0.158 -0.084,-1.012 -0.808,-1.105 -1.165,-0.149 -3.118,0.029 -3.118,0.029 -0.239,0 -0.741,-0.052 -0.741,-0.598 0,-0.52 1.816,-1.257 4.52,-1.257 1.46,0 2.474,0.797 2.826,1.888"
             style="fill:#3e3a39;fill-opacity:1;fill-rule:nonzero;stroke:none"
             id="path128" /></g><g
           id="g130"
           transform="translate(446.9502,202.2765)"><path
             d="M 0,0 C 0,0.077 0.041,0.155 0.128,0.242 0.384,0.521 1.502,1.785 1.796,2.136 H 7.854 C 7.636,1.52 7.051,0.208 5.698,-1.077 3.807,-0.732 2.031,-0.458 0.277,-0.238 0.094,-0.208 0,-0.127 0,0 m 5.852,7.573 v 2.684 c 3.305,-3.38 9.377,-5.245 9.838,-5.245 0.331,0 0.686,0.262 0.686,0.686 0,0.359 -0.208,0.594 -0.679,0.76 -4.099,1.553 -6.833,3.957 -7.726,4.945 h 7 c 0.518,0 0.816,0.251 0.816,0.688 0,0.414 -0.305,0.661 -0.816,0.661 H 5.852 v 2.095 c 2.904,0.131 5.133,0.382 5.981,0.563 0.533,0.106 1.078,0.311 1.078,1.019 0,0.64 -0.579,1.355 -1.354,1.355 -0.222,0 -0.921,-0.178 -1.679,-0.376 C 9.68,17.356 9.517,17.313 9.431,17.293 4.33,16.197 -2.779,16.141 -4.153,16.141 c -0.806,0 -0.893,-0.481 -0.893,-0.687 0,-0.364 0.269,-0.594 0.534,-0.659 0.35,-0.093 2.571,-0.106 4.697,-0.106 1.185,0 2.266,0.022 2.727,0.045 v -1.982 h -9.016 c -0.519,0 -0.816,-0.251 -0.816,-0.688 0,-0.247 0.106,-0.661 0.816,-0.661 H 0.71 C -0.714,9.883 -3.569,7.826 -6.94,6.506 -7.256,6.374 -7.613,6.224 -7.613,5.75 c 0,-0.451 0.332,-0.688 0.661,-0.688 0.47,0 6.221,1.782 9.864,5.136 V 7.573 C 2.912,7.097 2.996,6.72 3.154,6.433 2.933,6.545 2.679,6.617 2.393,6.617 1.877,6.617 1.476,6.383 1.13,5.88 0.759,5.315 0.06,4.262 -0.506,3.485 h -6.266 c -0.518,0 -0.815,-0.25 -0.815,-0.688 0,-0.42 0.297,-0.661 0.815,-0.661 h 5.149 L -2.942,0.656 C -3.005,0.586 -3.063,0.518 -3.106,0.459 L -3.371,0.194 C -3.59,-0.024 -3.71,-0.314 -3.71,-0.623 c 0,-0.308 0.12,-0.598 0.339,-0.816 l 0.059,-0.06 c 0.217,-0.218 0.508,-0.338 0.816,-0.338 h 10e-4 c 0.308,0 0.599,0.12 0.816,0.338 l 0.055,0.054 c 2.026,-0.306 3.648,-0.552 5.516,-1.007 -3.096,-1.854 -9.071,-2.2 -10.253,-2.252 -0.29,0 -0.97,0 -0.97,-0.688 0,-0.455 0.3,-0.686 0.893,-0.686 1.795,0 4.292,0.19 6.072,0.463 4.441,0.645 6.348,1.936 7.01,2.401 1.713,-0.59 3.564,-1.277 5.682,-2.567 0.367,-0.226 0.632,-0.349 0.976,-0.349 0.762,0 1.51,0.71 1.51,1.432 0,0.461 -0.261,0.858 -0.697,1.063 -1.554,0.738 -3.89,1.436 -5.576,1.911 0.844,0.812 1.857,1.979 2.523,3.86 h 4.422 c 0.519,0 0.817,0.251 0.817,0.687 0,0.421 -0.298,0.662 -0.817,0.662 H 11.21 C 11.07,4.129 10.498,4.612 9.813,4.612 H 9.602 C 8.916,4.612 8.344,4.129 8.204,3.485 H 2.988 c 0.798,0.936 1.016,1.202 1.016,1.675 0,0.248 -0.085,0.501 -0.232,0.727 0.18,-0.069 0.386,-0.106 0.623,-0.106 0.966,0 1.457,0.603 1.457,1.792"
             style="fill:#3e3a39;fill-opacity:1;fill-rule:nonzero;stroke:none"
             id="path132" /></g><g
           id="g134"
           transform="translate(392.5752,214.7731)"><path
             d="M 0,0 H 5.025 V -4.193 H 0.551 c -0.525,0 -0.826,-0.254 -0.826,-0.696 0,-0.513 0.427,-0.696 0.826,-0.696 h 8.261 c 0.24,0 0.525,-0.064 0.525,-0.369 0,-0.137 -0.032,-0.325 -0.059,-0.476 L 9.261,-6.535 c -0.531,-3.051 -1.99,-4.918 -2.575,-5.626 -1.048,1.41 -1.741,2.938 -2.118,4.675 -0.107,0.478 -0.306,1.37 -1.549,1.37 -0.883,0 -1.657,-0.665 -1.657,-1.424 0,-0.737 1.084,-3.687 3.644,-6.331 -2.438,-2.079 -4.667,-2.76 -6.836,-3.424 -0.164,-0.056 -0.549,-0.186 -0.549,-0.687 0,-0.371 0.313,-0.696 0.67,-0.696 0.301,0 4.669,0.818 8.258,3.405 3.295,-2.596 7.142,-3.462 7.17,-3.462 0.322,0 0.669,0.266 0.669,0.696 0,0.429 -0.278,0.564 -0.444,0.646 l -0.055,0.025 c -2.17,0.905 -3.826,1.669 -5.688,3.437 2.173,2.065 3.504,4.314 4.188,7.073 l 0.043,0.194 c 0.078,0.345 0.166,0.735 0.166,1.046 0,0.866 -0.681,1.425 -1.735,1.425 L 8,-4.193 V 0 h 5.176 c 0.399,0 0.825,0.183 0.825,0.696 0,0.442 -0.3,0.696 -0.825,0.696 H 8 V 3.761 C 8,4.878 7.48,5.47 6.499,5.47 5.548,5.47 5.025,4.863 5.025,3.761 V 1.392 H 0 C -0.524,1.392 -0.824,1.138 -0.824,0.696 -0.824,0.26 -0.517,0 0,0"
             style="fill:#3e3a39;fill-opacity:1;fill-rule:nonzero;stroke:none"
             id="path136" /></g><g
           id="g138"
           transform="translate(388.8447,206.1129)"><path
             d="M 0,0 C 0.816,0.356 1.62,0.716 2.391,1.078 2.84,1.289 2.884,1.598 2.731,1.93 2.579,2.262 2.298,2.432 1.853,2.228 1.251,1.951 0.629,1.674 0,1.399 v 5.774 h 2.026 c 0.381,0 0.691,0.31 0.691,0.691 0,0.382 -0.31,0.691 -0.691,0.691 H 0 v 4.139 c 0,0.807 -0.654,1.462 -1.461,1.462 -0.808,0 -1.462,-0.655 -1.462,-1.462 V 8.555 h -2.75 c -0.382,0 -0.691,-0.309 -0.691,-0.691 0,-0.381 0.309,-0.691 0.691,-0.691 h 2.75 V 0.166 c -1.199,-0.49 -2.399,-0.964 -3.553,-1.396 -0.459,-0.172 -0.537,-0.493 -0.414,-0.833 0.123,-0.34 0.376,-0.534 0.842,-0.365 1.017,0.37 2.069,0.781 3.125,1.205 v -6.225 c 0,-0.008 -0.015,-0.74 -0.583,-0.813 -0.918,-0.118 -1.992,0.022 -2.015,0.024 -0.428,0 -0.673,-0.203 -0.673,-0.559 0,-0.516 1.59,-1.092 3.718,-1.092 1.134,0 2.034,0.6 2.349,1.566 L -0.12,-8.3 c 0.034,0.1 0.054,0.209 0.072,0.311 l 0.007,0.038 c 0.005,0.028 0.011,0.056 0.015,0.085 10e-4,0.01 0.003,0.02 0.005,0.03 0.003,0.017 0.006,0.034 0.008,0.052 l -0.002,0.076 C -0.007,-7.626 0,-7.541 0,-7.448 Z"
             style="fill:#3e3a39;fill-opacity:1;fill-rule:nonzero;stroke:none"
             id="path140" /></g><g
           id="g142"
           transform="translate(338.7422,216.9347)"><path
             d="m 0,0 c -0.475,-0.527 -0.659,-0.659 -2.189,-1.899 -0.052,-0.052 -0.237,-0.211 -0.237,-0.5 0,-0.344 0.263,-0.581 0.579,-0.581 0.369,0 1.9,1.002 2.954,1.793 0.106,-0.105 0.501,-0.632 0.607,-0.738 0.132,-0.185 0.369,-0.474 0.844,-0.474 0.632,0 1.213,0.632 1.213,1.266 0,0.552 -0.37,0.79 -1.029,1.265 1.029,0.923 1.292,1.186 1.292,1.688 0,0.659 -0.659,1.186 -1.265,1.186 C 2.373,3.006 2.03,2.823 1.846,2.558 1.741,2.374 1.187,1.451 1.028,1.24 0.58,1.503 -0.501,2.136 -0.818,2.136 c -0.369,0 -0.607,-0.342 -0.607,-0.607 0,-0.105 0.054,-0.289 0.212,-0.448 C -1.082,0.976 -0.026,0.026 0,0"
             style="fill:#3e3a39;fill-opacity:1;fill-rule:nonzero;stroke:none"
             id="path144" /></g></g></g><g
       id="g146"><g
         id="g148"><g
           id="g154"><g
             id="g156"><path
               d="m 182.825,230.052 c -0.94,13.907 -43.096,20.655 -104.201,-34.757 v 0 h 12.925 c 39.862,45.806 96.824,50.557 88.051,26.29 v 0 c 0,0 18.238,26.434 47.69,16.555 v 0 c 0.208,-0.066 0.382,-0.012 0.444,0.114 v 0 c 0.146,0.298 -0.263,0.449 -0.263,0.449 v 0 c -4.768,2.555 -8.732,3.73 -13.995,3.73 v 0 c -19.227,0 -30.651,-12.381 -30.651,-12.381"
               style="fill:url(#linearGradient162);stroke:none"
               id="path164" /></g></g></g></g><g
       id="g166"
       style="display:inline"><g
         id="g168"
         clip-path="url(#clipPath172)"><g
           id="g174"
           transform="translate(145.1719,218.8356)"><path
             d="m 0,0 c -3.01,0 -3.252,-3.185 -3.252,-3.185 l -2.063,-10.836 -1.609,2.631 -5.864,9.553 c -0.959,1.562 -2.664,2.512 -4.497,2.507 -2.517,-0.008 -4.676,-1.799 -5.149,-4.272 l -3.76,-19.682 h 5.04 c 3.011,0 3.253,3.185 3.253,3.185 l 2.064,10.836 1.608,-2.631 5.865,-9.554 c 0.959,-1.561 2.662,-2.51 4.495,-2.506 2.518,0.007 4.678,1.798 5.15,4.272 L 5.041,0 Z"
             style="fill:#004097;fill-opacity:1;fill-rule:nonzero;stroke:none"
             id="path176" /></g><g
           id="g178"
           transform="translate(183.4146,213.0246)"><path
             d="m 0,0 -2.648,-13.89 c 0,0 -1.15,-3.601 2.562,-3.601 h 4.42 L 7.666,0.003 7.66,0 13.673,0.003 c 1.334,0 2.204,0.533 2.755,1.101 0.505,0.521 0.819,1.197 0.953,1.909 l 0.536,2.852 h -40.663 c -0.26,0 -6.661,-0.468 -8.092,-7.398 -1.583,-7.667 6.075,-7.422 6.085,-7.42 h 7.89 c 1.211,0 2.161,-0.193 1.946,-1.316 -0.212,-1.121 -1.218,-1.357 -2.455,-1.357 l -12.423,-0.016 c -1.334,0 -2.205,-0.525 -2.757,-1.094 -0.504,-0.52 -0.819,-1.195 -0.953,-1.908 l -0.535,-2.852 18.484,0.005 c 5.587,0 7.334,4.527 7.836,6.861 1.648,7.657 -5.019,7.562 -5.293,7.557 h -8.539 c -1.193,0 -2.063,0.507 -1.852,1.604 0.208,1.098 1.266,1.487 2.568,1.487 z"
             style="fill:#004097;fill-opacity:1;fill-rule:nonzero;stroke:none"
             id="path180" /></g><g
           id="g182"
           transform="translate(224.3271,218.6154)"><path
             d="m 0,0 c -1.475,0.783 -3.717,1.174 -6.727,1.174 -1.141,0 -2.259,-0.045 -3.352,-0.134 -3.768,-0.247 -6.634,-1.034 -8.602,-2.365 -1.968,-1.33 -3.306,-3.36 -4.013,-6.087 l -1.081,-4.294 -0.091,-0.402 -0.654,-3.723 c -0.164,-0.918 -0.189,-1.745 -0.071,-2.482 0.567,-3.556 4.016,-5.333 10.347,-5.333 0.693,0 1.33,0.012 1.915,0.033 0.585,0.023 1.149,0.068 1.692,0.135 3.479,0.312 6.146,1.112 8,2.397 1.854,1.287 3.14,3.26 3.858,5.92 0.101,0.449 0.446,1.968 0.501,2.35 h -6.289 c -0.884,0 -1.689,-0.535 -2.007,-1.359 -0.186,-0.482 -0.359,-0.678 -0.588,-1.09 0,0 -1.305,-2.652 -5.387,-2.525 -1.195,0.036 -2.724,0.258 -3.443,1.35 -0.522,0.793 -0.366,2.008 -0.223,2.899 0.112,0.705 0.055,0.565 0.578,2.935 0.36,1.637 0.901,3.371 2.19,4.546 1.237,1.128 2.911,1.56 4.556,1.518 0.886,-0.023 1.835,-0.145 2.608,-0.609 0.438,-0.264 0.796,-0.649 0.97,-1.135 0.066,-0.187 0.116,-0.396 0.118,-0.597 0.038,-0.761 0.666,-1.357 1.427,-1.358 l 6.114,-10e-4 0.133,0.825 C 2.73,-5.959 2.777,-4.729 2.617,-3.723 2.346,-2.024 1.474,-0.782 0,0"
             style="fill:#004097;fill-opacity:1;fill-rule:nonzero;stroke:none"
             id="path184" /></g><g
           id="g186"
           transform="translate(154.5713,189.3791)"><path
             d="m 0,0 h -1.568 c -0.165,0 -0.299,-0.134 -0.299,-0.299 v -0.757 c 0,-0.165 0.134,-0.298 0.299,-0.298 H 0 c 0.165,0 0.299,0.133 0.299,0.298 v 0.757 C 0.299,-0.134 0.165,0 0,0"
             style="fill:#3e3a39;fill-opacity:1;fill-rule:nonzero;stroke:none"
             id="path188" /></g><g
           id="g190"
           transform="translate(233.1489,189.3791)"><path
             d="m 0,0 h -1.567 c -0.166,0 -0.3,-0.134 -0.3,-0.299 v -0.757 c 0,-0.165 0.134,-0.298 0.3,-0.298 H 0 c 0.165,0 0.299,0.133 0.299,0.298 v 0.757 C 0.299,-0.134 0.165,0 0,0"
             style="fill:#3e3a39;fill-opacity:1;fill-rule:nonzero;stroke:none"
             id="path192" /></g><g
           id="g194"
           transform="translate(508.2529,189.3791)"><path
             d="m 0,0 h -1.568 c -0.165,0 -0.299,-0.134 -0.299,-0.299 v -0.757 c 0,-0.165 0.134,-0.298 0.299,-0.298 H 0 c 0.165,0 0.299,0.133 0.299,0.298 v 0.757 C 0.299,-0.134 0.165,0 0,0"
             style="fill:#3e3a39;fill-opacity:1;fill-rule:nonzero;stroke:none"
             id="path196" /></g><g
           id="g198"
           transform="translate(194.5806,189.3791)"><path
             d="m 0,0 h -1.535 c -0.164,0 -0.297,-0.133 -0.297,-0.297 v -10.498 c 0,-0.164 0.133,-0.298 0.297,-0.298 H 0 c 0.164,0 0.297,0.134 0.297,0.298 V -0.297 C 0.297,-0.133 0.164,0 0,0"
             style="fill:#3e3a39;fill-opacity:1;fill-rule:nonzero;stroke:none"
             id="path200" /></g><g
           id="g202"
           transform="translate(129.1851,188.9201)"><path
             d="m 0,0 h -1.436 c -0.185,0 -0.335,-0.151 -0.335,-0.336 v -7.56 l -5.138,7.343 c -0.302,0.419 -0.788,0.667 -1.304,0.667 -0.89,0 -1.61,-0.376 -1.61,-1.265 v -9.146 c 0,-0.186 0.15,-0.337 0.336,-0.337 h 1.435 c 0.186,0 0.336,0.151 0.336,0.337 v 7.327 l 5.137,-7.097 c 0.303,-0.418 0.788,-0.666 1.304,-0.666 h 0.002 c 0.888,0 1.609,0.721 1.609,1.61 v 8.787 C 0.336,-0.151 0.186,0 0,0"
             style="fill:#3e3a39;fill-opacity:1;fill-rule:nonzero;stroke:none"
             id="path204" /></g><g
           id="g206"
           transform="translate(138.6621,181.1964)"><path
             d="m 0,0 c 0,-0.543 -0.156,-0.958 -0.463,-1.232 -0.307,-0.273 -0.784,-0.406 -1.459,-0.406 -1.331,0 -1.611,0.659 -1.611,1.21 0,0.536 0.286,1.176 1.65,1.176 H 0 Z M 1.136,4.742 C 0.479,5.232 -0.485,5.48 -1.729,5.48 -2.832,5.48 -3.718,5.253 -4.363,4.805 -4.935,4.407 -5.244,3.895 -5.302,3.245 -5.307,3.193 -5.288,3.087 -5.142,3.087 h 1.621 c 0.103,0 0.177,0.11 0.189,0.162 0.055,0.251 0.198,0.461 0.428,0.628 0.288,0.209 0.677,0.315 1.157,0.315 C -0.304,4.192 0,3.373 0,2.686 V 1.872 h -2.271 c -1.05,0 -1.877,-0.215 -2.458,-0.64 -0.575,-0.421 -0.854,-0.981 -0.854,-1.71 0,-0.798 0.262,-1.405 0.803,-1.855 0.541,-0.448 1.32,-0.676 2.316,-0.676 0.523,0 0.96,0.063 1.298,0.189 0.338,0.125 0.672,0.333 0.994,0.616 L 0.058,-2 v -0.655 c 0,0 -0.029,-0.255 0.317,-0.255 h 1.484 c 0.137,0 0.248,0.111 0.248,0.248 v 5.249 c 0,0.962 -0.317,1.667 -0.971,2.155"
             style="fill:#3e3a39;fill-opacity:1;fill-rule:nonzero;stroke:none"
             id="path208" /></g><g
           id="g210"
           transform="translate(186.834,181.1964)"><path
             d="m 0,0 c 0,-0.543 -0.156,-0.958 -0.463,-1.232 -0.306,-0.273 -0.784,-0.406 -1.458,-0.406 -1.332,0 -1.612,0.659 -1.612,1.21 0,0.536 0.286,1.176 1.65,1.176 H 0 Z m 1.136,4.742 c -0.657,0.49 -1.621,0.738 -2.864,0.738 -1.103,0 -1.99,-0.227 -2.634,-0.675 -0.573,-0.398 -0.882,-0.91 -0.94,-1.56 -0.005,-0.052 0.014,-0.158 0.16,-0.158 h 1.621 c 0.103,0 0.178,0.11 0.189,0.162 0.056,0.251 0.199,0.461 0.428,0.628 0.288,0.209 0.677,0.315 1.157,0.315 C -0.303,4.192 0,3.373 0,2.686 V 1.872 h -2.27 c -1.05,0 -1.878,-0.215 -2.459,-0.64 -0.575,-0.421 -0.854,-0.981 -0.854,-1.71 0,-0.798 0.263,-1.405 0.803,-1.855 0.541,-0.448 1.32,-0.676 2.316,-0.676 0.524,0 0.961,0.063 1.299,0.189 0.338,0.125 0.671,0.333 0.993,0.616 L 0.058,-2 v -0.655 c 0,0 -0.029,-0.255 0.317,-0.255 h 1.484 c 0.138,0 0.249,0.111 0.249,0.248 v 5.249 c 0,0.962 -0.318,1.667 -0.972,2.155"
             style="fill:#3e3a39;fill-opacity:1;fill-rule:nonzero;stroke:none"
             id="path212" /></g><g
           id="g214"
           transform="translate(295.6504,181.1964)"><path
             d="m 0,0 c 0,-0.543 -0.156,-0.958 -0.463,-1.232 -0.307,-0.273 -0.784,-0.406 -1.459,-0.406 -1.331,0 -1.611,0.659 -1.611,1.21 0,0.536 0.286,1.176 1.65,1.176 H 0 Z M 1.136,4.742 C 0.479,5.232 -0.485,5.48 -1.729,5.48 -2.832,5.48 -3.718,5.253 -4.363,4.805 -4.936,4.407 -5.244,3.895 -5.302,3.245 -5.307,3.193 -5.288,3.087 -5.142,3.087 h 1.621 c 0.103,0 0.177,0.11 0.189,0.162 0.055,0.251 0.198,0.461 0.428,0.628 0.288,0.209 0.677,0.315 1.157,0.315 C -0.304,4.192 0,3.373 0,2.686 V 1.872 h -2.271 c -1.05,0 -1.877,-0.215 -2.458,-0.64 -0.575,-0.421 -0.854,-0.981 -0.854,-1.71 0,-0.798 0.262,-1.405 0.803,-1.855 0.541,-0.448 1.32,-0.676 2.316,-0.676 0.523,0 0.96,0.063 1.298,0.189 0.338,0.125 0.672,0.333 0.994,0.616 L 0.058,-2 v -0.655 c 0,0 -0.029,-0.255 0.317,-0.255 h 1.484 c 0.137,0 0.248,0.111 0.248,0.248 v 5.249 c 0,0.962 -0.317,1.667 -0.971,2.155"
             style="fill:#3e3a39;fill-opacity:1;fill-rule:nonzero;stroke:none"
             id="path216" /></g><g
           id="g218"
           transform="translate(164.3374,181.6579)"><path
             d="m 0,0 c 0,-1.265 -0.625,-1.934 -1.805,-1.934 -1.206,0 -1.844,0.669 -1.844,1.934 v 1.548 c 0,1.266 0.638,1.935 1.844,1.935 C -0.625,3.483 0,2.814 0,1.548 Z M -1.805,5.019 C -3.034,5.019 -4.012,4.736 -4.714,4.176 -5.406,3.624 -5.757,2.75 -5.757,1.582 v -1.599 c 0,-1.18 0.351,-2.059 1.043,-2.61 0.701,-0.56 1.68,-0.844 2.909,-0.844 1.215,0 2.184,0.284 2.88,0.844 0.685,0.551 1.033,1.43 1.033,2.61 v 1.599 c 0,1.168 -0.348,2.042 -1.033,2.594 -0.696,0.56 -1.665,0.843 -2.88,0.843"
             style="fill:#3e3a39;fill-opacity:1;fill-rule:nonzero;stroke:none"
             id="path220" /></g><g
           id="g222"
           transform="translate(174.6714,186.6769)"><path
             d="m 0,0 c -0.434,0 -0.859,-0.072 -1.262,-0.215 -0.4,-0.141 -0.745,-0.349 -1.027,-0.62 L -2.522,-1.06 v 0.723 c 0,0.262 -0.216,0.238 -0.216,0.238 h -1.653 c -0.11,0 -0.2,-0.089 -0.2,-0.199 V -8.19 c 0,-0.111 0.09,-0.201 0.2,-0.201 h 1.726 c 0.111,0 0.201,0.09 0.201,0.201 v 5 c 0,0.522 0.169,0.934 0.503,1.224 0.329,0.286 0.748,0.43 1.244,0.43 0.512,0 0.928,-0.146 1.237,-0.432 0.313,-0.291 0.47,-0.702 0.47,-1.222 v -5 c 0,-0.111 0.09,-0.201 0.2,-0.201 h 1.73 c 0.11,0 0.2,0.09 0.2,0.201 v 5.247 c 0,0.911 -0.274,1.637 -0.812,2.158 C 1.769,-0.265 0.992,0 0,0"
             style="fill:#3e3a39;fill-opacity:1;fill-rule:nonzero;stroke:none"
             id="path224" /></g><g
           id="g226"
           transform="translate(305.9834,186.6769)"><path
             d="m 0,0 c -0.435,0 -0.859,-0.072 -1.263,-0.215 -0.399,-0.141 -0.745,-0.349 -1.026,-0.62 L -2.522,-1.06 v 0.723 c 0,0.262 -0.216,0.238 -0.216,0.238 h -1.654 c -0.11,0 -0.2,-0.089 -0.2,-0.199 V -8.19 c 0,-0.111 0.09,-0.201 0.2,-0.201 h 1.727 c 0.11,0 0.2,0.09 0.2,0.201 v 5 c 0,0.522 0.169,0.934 0.503,1.224 0.33,0.286 0.748,0.43 1.245,0.43 0.512,0 0.928,-0.146 1.237,-0.432 0.312,-0.291 0.47,-0.702 0.47,-1.222 v -5 c 0,-0.111 0.089,-0.201 0.2,-0.201 h 1.729 c 0.111,0 0.2,0.09 0.2,0.201 v 5.247 c 0,0.911 -0.273,1.637 -0.811,2.158 C 1.769,-0.265 0.991,0 0,0"
             style="fill:#3e3a39;fill-opacity:1;fill-rule:nonzero;stroke:none"
             id="path228" /></g><g
           id="g230"
           transform="translate(382.5439,186.6769)"><path
             d="m 0,0 c -0.434,0 -0.858,-0.072 -1.262,-0.215 -0.399,-0.141 -0.745,-0.349 -1.026,-0.62 L -2.521,-1.06 v 0.723 c 0,0.262 -0.217,0.238 -0.217,0.238 h -1.653 c -0.11,0 -0.2,-0.089 -0.2,-0.199 V -8.19 c 0,-0.111 0.09,-0.201 0.2,-0.201 h 1.727 c 0.11,0 0.2,0.09 0.2,0.201 v 5 c 0,0.522 0.169,0.934 0.503,1.224 0.33,0.286 0.748,0.43 1.245,0.43 0.512,0 0.928,-0.146 1.237,-0.432 0.312,-0.291 0.47,-0.702 0.47,-1.222 v -5 c 0,-0.111 0.089,-0.201 0.199,-0.201 h 1.73 c 0.11,0 0.2,0.09 0.2,0.201 v 5.247 c 0,0.911 -0.273,1.637 -0.811,2.158 C 1.769,-0.265 0.992,0 0,0"
             style="fill:#3e3a39;fill-opacity:1;fill-rule:nonzero;stroke:none"
             id="path232" /></g><g
           id="g234"
           transform="translate(488.1484,186.6769)"><path
             d="m 0,0 c -0.435,0 -0.859,-0.072 -1.263,-0.215 -0.399,-0.141 -0.745,-0.349 -1.026,-0.62 L -2.522,-1.06 v 0.723 c 0,0.262 -0.216,0.238 -0.216,0.238 h -1.654 c -0.11,0 -0.199,-0.089 -0.199,-0.199 V -8.19 c 0,-0.111 0.089,-0.201 0.199,-0.201 h 1.727 c 0.11,0 0.2,0.09 0.2,0.201 v 5 c 0,0.522 0.169,0.934 0.503,1.224 0.33,0.286 0.749,0.43 1.245,0.43 0.512,0 0.928,-0.146 1.237,-0.432 0.312,-0.291 0.47,-0.702 0.47,-1.222 v -5 c 0,-0.111 0.09,-0.201 0.2,-0.201 h 1.73 c 0.11,0 0.199,0.09 0.199,0.201 v 5.247 c 0,0.911 -0.273,1.637 -0.811,2.158 C 1.769,-0.265 0.991,0 0,0"
             style="fill:#3e3a39;fill-opacity:1;fill-rule:nonzero;stroke:none"
             id="path236" /></g><g
           id="g238"
           transform="translate(253.0781,186.6769)"><path
             d="m 0,0 c -0.434,0 -0.859,-0.072 -1.262,-0.215 -0.4,-0.141 -0.745,-0.349 -1.027,-0.62 L -2.522,-1.06 v 0.723 c 0,0.262 -0.216,0.238 -0.216,0.238 h -1.653 c -0.11,0 -0.2,-0.089 -0.2,-0.199 V -8.19 c 0,-0.111 0.09,-0.201 0.2,-0.201 h 1.727 c 0.11,0 0.2,0.09 0.2,0.201 v 5 c 0,0.522 0.169,0.934 0.503,1.224 0.329,0.286 0.748,0.43 1.244,0.43 0.512,0 0.928,-0.146 1.237,-0.432 0.313,-0.291 0.47,-0.702 0.47,-1.222 v -5 c 0,-0.111 0.09,-0.201 0.2,-0.201 h 1.73 c 0.11,0 0.2,0.09 0.2,0.201 v 5.247 c 0,0.911 -0.274,1.637 -0.812,2.158 C 1.769,-0.265 0.992,0 0,0"
             style="fill:#3e3a39;fill-opacity:1;fill-rule:nonzero;stroke:none"
             id="path240" /></g><g
           id="g242"
           transform="translate(217.3965,183.3376)"><path
             d="M 0,0 C -0.177,0.237 -0.377,0.44 -0.605,0.609 -0.831,0.778 -1.07,0.917 -1.321,1.029 -1.573,1.14 -1.826,1.222 -2.08,1.275 -2.333,1.327 -2.574,1.356 -2.801,1.361 h -0.016 -2.181 c -0.399,0 -0.712,0.11 -0.936,0.329 -0.224,0.22 -0.336,0.518 -0.336,0.896 0,0.374 0.112,0.673 0.336,0.9 0.224,0.227 0.537,0.341 0.936,0.341 h 4.33 c 0.196,0 0.177,0.216 0.177,0.216 v 1.561 c 0,0 -0.002,0.189 -0.182,0.189 H -4.998 C -5.338,5.793 -5.705,5.736 -6.1,5.623 -6.494,5.509 -6.86,5.325 -7.197,5.071 -7.536,4.816 -7.816,4.486 -8.04,4.08 -8.265,3.674 -8.377,3.176 -8.377,2.586 c 0,-0.589 0.112,-1.088 0.337,-1.497 0.224,-0.408 0.504,-0.738 0.843,-0.991 0.337,-0.252 0.703,-0.434 1.097,-0.548 0.395,-0.113 0.762,-0.17 1.102,-0.17 h 2.181 c 0.195,0 0.372,-0.03 0.531,-0.09 0.159,-0.061 0.294,-0.147 0.405,-0.258 0.11,-0.111 0.196,-0.242 0.256,-0.393 0.059,-0.151 0.089,-0.318 0.089,-0.499 0,-0.373 -0.112,-0.671 -0.337,-0.892 -0.224,-0.222 -0.539,-0.333 -0.944,-0.333 H -7.98 c -0.301,0 -0.3,-0.333 -0.3,-0.333 v -1.317 c 0,0 0.032,-0.316 0.289,-0.316 h 5.174 c 0.227,0 0.468,0.025 0.726,0.075 0.256,0.051 0.508,0.129 0.757,0.235 0.249,0.106 0.489,0.241 0.721,0.408 0.233,0.167 0.435,0.368 0.608,0.605 0.173,0.237 0.312,0.511 0.418,0.82 0.105,0.311 0.158,0.66 0.158,1.048 0,0.388 -0.052,0.736 -0.154,1.044 C 0.314,-0.509 0.175,-0.237 0,0"
             style="fill:#3e3a39;fill-opacity:1;fill-rule:nonzero;stroke:none"
             id="path244" /></g><g
           id="g246"
           transform="translate(224.6309,185.1408)"><path
             d="m 0,0 c 0.533,0 0.962,-0.127 1.278,-0.375 0.253,-0.202 0.408,-0.464 0.464,-0.784 0,-0.258 0.235,-0.241 0.235,-0.241 h 1.622 c 0,0 0.177,-0.014 0.177,0.151 C 3.748,-0.392 3.421,0.266 2.783,0.758 2.114,1.274 1.165,1.536 -0.039,1.536 -1.267,1.536 -2.246,1.253 -2.948,0.693 -3.64,0.14 -3.992,-0.732 -3.992,-1.901 V -3.5 c 0,-1.179 0.352,-2.058 1.044,-2.61 0.702,-0.559 1.68,-0.844 2.909,-0.844 1.203,0 2.152,0.265 2.822,0.787 0.609,0.474 0.934,1.092 0.988,1.884 0.004,0.071 0.006,0.217 -0.195,0.217 H 1.958 C 1.779,-4.066 1.76,-4.17 1.754,-4.22 1.712,-4.568 1.552,-4.851 1.275,-5.06 0.961,-5.297 0.533,-5.417 0,-5.417 c -0.589,0 -1.055,0.15 -1.382,0.447 -0.332,0.302 -0.501,0.802 -0.501,1.487 v 1.548 C -1.883,-0.669 -1.233,0 0,0"
             style="fill:#3e3a39;fill-opacity:1;fill-rule:nonzero;stroke:none"
             id="path248" /></g><g
           id="g250"
           transform="translate(263.8232,185.1408)"><path
             d="m 0,0 c 0.533,0 0.963,-0.127 1.278,-0.375 0.253,-0.202 0.409,-0.464 0.464,-0.784 0,-0.258 0.235,-0.241 0.235,-0.241 h 1.622 c 0,0 0.177,-0.014 0.177,0.151 C 3.748,-0.392 3.421,0.266 2.783,0.758 2.114,1.274 1.165,1.536 -0.039,1.536 -1.266,1.536 -2.245,1.253 -2.948,0.693 -3.64,0.14 -3.992,-0.732 -3.992,-1.901 V -3.5 c 0,-1.179 0.352,-2.058 1.044,-2.61 0.703,-0.559 1.68,-0.844 2.909,-0.844 1.203,0 2.152,0.265 2.822,0.787 0.61,0.474 0.934,1.092 0.988,1.884 0.004,0.071 0.006,0.217 -0.194,0.217 H 1.958 C 1.779,-4.066 1.76,-4.17 1.754,-4.22 1.712,-4.568 1.552,-4.851 1.276,-5.06 0.961,-5.297 0.533,-5.417 0,-5.417 c -0.589,0 -1.055,0.15 -1.382,0.447 -0.332,0.302 -0.5,0.802 -0.5,1.487 v 1.548 C -1.882,-0.669 -1.232,0 0,0"
             style="fill:#3e3a39;fill-opacity:1;fill-rule:nonzero;stroke:none"
             id="path252" /></g><g
           id="g254"
           transform="translate(359.0254,185.1408)"><path
             d="m 0,0 c 0.532,0 0.963,-0.127 1.278,-0.375 0.253,-0.202 0.408,-0.464 0.464,-0.784 0,-0.258 0.235,-0.241 0.235,-0.241 h 1.622 c 0,0 0.177,-0.014 0.177,0.151 C 3.747,-0.392 3.421,0.266 2.783,0.758 2.114,1.274 1.165,1.536 -0.039,1.536 -1.267,1.536 -2.246,1.253 -2.948,0.693 -3.64,0.14 -3.992,-0.732 -3.992,-1.901 V -3.5 c 0,-1.179 0.352,-2.058 1.044,-2.61 0.702,-0.559 1.68,-0.844 2.909,-0.844 1.202,0 2.151,0.265 2.822,0.787 0.609,0.474 0.934,1.092 0.988,1.884 0.004,0.071 0.006,0.217 -0.195,0.217 H 1.957 C 1.778,-4.066 1.76,-4.17 1.754,-4.22 1.712,-4.568 1.552,-4.851 1.275,-5.06 0.961,-5.297 0.532,-5.417 0,-5.417 c -0.59,0 -1.055,0.15 -1.383,0.447 -0.331,0.302 -0.5,0.802 -0.5,1.487 v 1.548 C -1.883,-0.669 -1.232,0 0,0"
             style="fill:#3e3a39;fill-opacity:1;fill-rule:nonzero;stroke:none"
             id="path256" /></g><g
           id="g258"
           transform="translate(498.8936,185.1408)"><path
             d="m 0,0 c 0.532,0 0.963,-0.127 1.278,-0.375 0.253,-0.202 0.409,-0.464 0.464,-0.784 0,-0.258 0.235,-0.241 0.235,-0.241 h 1.622 c 0,0 0.177,-0.014 0.177,0.151 C 3.747,-0.392 3.421,0.266 2.783,0.758 2.114,1.274 1.165,1.536 -0.039,1.536 -1.267,1.536 -2.245,1.253 -2.948,0.693 -3.64,0.14 -3.992,-0.732 -3.992,-1.901 V -3.5 c 0,-1.179 0.352,-2.058 1.044,-2.61 0.703,-0.559 1.68,-0.844 2.909,-0.844 1.202,0 2.152,0.265 2.822,0.787 0.609,0.474 0.934,1.092 0.988,1.884 0.004,0.071 0.006,0.217 -0.195,0.217 H 1.957 C 1.778,-4.066 1.76,-4.17 1.754,-4.22 1.712,-4.568 1.552,-4.851 1.275,-5.06 0.961,-5.297 0.532,-5.417 0,-5.417 c -0.59,0 -1.055,0.15 -1.383,0.447 -0.331,0.302 -0.5,0.802 -0.5,1.487 v 1.548 C -1.883,-0.669 -1.232,0 0,0"
             style="fill:#3e3a39;fill-opacity:1;fill-rule:nonzero;stroke:none"
             id="path260" /></g><g
           id="g262"
           transform="translate(242.7256,183.0851)"><path
             d="m 0,0 h -3.765 v 0.187 c 0,0.686 0.169,1.187 0.5,1.487 0.329,0.297 0.8,0.448 1.402,0.448 C -0.645,2.122 0,1.51 0,0.352 Z M -1.863,3.592 C -3.115,3.592 -4.108,3.279 -4.816,2.663 -5.518,2.05 -5.874,1.112 -5.874,-0.125 v -1.039 c 0,-1.269 0.368,-2.217 1.094,-2.817 0.734,-0.609 1.741,-0.917 2.995,-0.917 1.193,0 2.144,0.242 2.829,0.717 0.616,0.429 0.945,0.969 0.998,1.646 0.003,0.048 -0.01,0.145 -0.155,0.145 H 0.173 c -0.173,0 -0.177,-0.077 -0.186,-0.114 -0.067,-0.261 -0.228,-0.473 -0.478,-0.63 -0.292,-0.184 -0.694,-0.277 -1.197,-0.277 -0.65,0 -1.163,0.149 -1.522,0.443 -0.369,0.301 -0.555,0.798 -0.555,1.474 v 0.37 h 5.513 c 0,0 0.38,-0.021 0.38,0.287 v 0.712 C 2.128,1.1 1.768,2.036 1.06,2.654 0.347,3.276 -0.636,3.592 -1.863,3.592"
             style="fill:#3e3a39;fill-opacity:1;fill-rule:nonzero;stroke:none"
             id="path264" /></g><g
           id="g266"
           transform="translate(276.7563,183.0851)"><path
             d="m 0,0 h -3.765 v 0.187 c 0,0.686 0.169,1.187 0.5,1.487 0.329,0.297 0.8,0.448 1.401,0.448 C -0.645,2.122 0,1.51 0,0.352 Z M -1.864,3.592 C -3.115,3.592 -4.109,3.279 -4.817,2.663 -5.518,2.05 -5.874,1.112 -5.874,-0.125 v -1.039 c 0,-1.269 0.368,-2.217 1.094,-2.817 0.733,-0.609 1.74,-0.917 2.995,-0.917 1.193,0 2.144,0.242 2.829,0.717 0.616,0.429 0.944,0.969 0.998,1.646 0.003,0.048 -0.01,0.145 -0.155,0.145 H 0.173 c -0.173,0 -0.177,-0.077 -0.187,-0.114 -0.066,-0.261 -0.227,-0.473 -0.477,-0.63 -0.292,-0.184 -0.694,-0.277 -1.197,-0.277 -0.65,0 -1.163,0.149 -1.523,0.443 -0.368,0.301 -0.554,0.798 -0.554,1.474 v 0.37 h 5.512 c 0,0 0.381,-0.021 0.381,0.287 v 0.712 C 2.128,1.1 1.768,2.036 1.06,2.654 0.347,3.276 -0.636,3.592 -1.864,3.592"
             style="fill:#3e3a39;fill-opacity:1;fill-rule:nonzero;stroke:none"
             id="path268" /></g><g
           id="g270"
           transform="translate(349.4453,183.0851)"><path
             d="m 0,0 h -3.765 v 0.187 c 0,0.686 0.169,1.187 0.5,1.487 0.329,0.297 0.8,0.448 1.402,0.448 C -0.645,2.122 0,1.51 0,0.352 Z M -1.863,3.592 C -3.114,3.592 -4.108,3.279 -4.816,2.663 -5.518,2.05 -5.874,1.112 -5.874,-0.125 v -1.039 c 0,-1.269 0.368,-2.217 1.094,-2.817 0.733,-0.609 1.741,-0.917 2.995,-0.917 1.193,0 2.144,0.242 2.829,0.717 0.616,0.429 0.945,0.969 0.998,1.646 0.003,0.048 -0.01,0.145 -0.155,0.145 H 0.174 C 0,-2.39 -0.004,-2.467 -0.013,-2.504 -0.08,-2.765 -0.24,-2.977 -0.49,-3.134 c -0.293,-0.184 -0.695,-0.277 -1.197,-0.277 -0.651,0 -1.164,0.149 -1.523,0.443 -0.368,0.301 -0.555,0.798 -0.555,1.474 v 0.37 h 5.513 c 0,0 0.38,-0.021 0.38,0.287 v 0.712 C 2.128,1.1 1.769,2.036 1.061,2.654 0.347,3.276 -0.636,3.592 -1.863,3.592"
             style="fill:#3e3a39;fill-opacity:1;fill-rule:nonzero;stroke:none"
             id="path272" /></g><g
           id="g274"
           transform="translate(318.3955,181.6579)"><path
             d="m 0,0 c 0,-0.617 -0.161,-1.098 -0.482,-1.43 -0.324,-0.335 -0.783,-0.504 -1.361,-0.504 -0.77,0 -1.688,0.336 -1.688,1.934 v 1.548 c 0,1.266 0.603,1.935 1.746,1.935 0.555,0 0.995,-0.17 1.312,-0.504 C -0.159,2.647 0,2.166 0,1.548 Z M 1.837,7.721 H 0.272 C 0.122,7.721 0,7.6 0,7.449 V 3.811 l -0.242,0.284 c -0.525,0.613 -1.279,0.924 -2.24,0.924 -0.942,0 -1.714,-0.281 -2.299,-0.835 C -5.364,3.632 -5.659,2.773 -5.659,1.631 v -1.697 c 0,-1.142 0.302,-2.003 0.896,-2.56 0.598,-0.561 1.371,-0.845 2.3,-0.845 0.976,0 1.737,0.285 2.264,0.846 l 0.238,0.255 v -0.747 c 0,0 -0.008,-0.255 0.26,-0.255 h 1.52 c 0.16,0 0.29,0.13 0.29,0.29 V 7.449 c 0,0.151 -0.122,0.272 -0.272,0.272"
             style="fill:#3e3a39;fill-opacity:1;fill-rule:nonzero;stroke:none"
             id="path276" /></g><g
           id="g278"
           transform="translate(402.6758,189.3791)"><path
             d="m 0,0 h -1.627 c -0.139,0 -0.251,-0.112 -0.251,-0.251 v -10.591 c 0,-0.138 0.112,-0.251 0.251,-0.251 H 0 c 0.139,0 0.251,0.113 0.251,0.251 V -0.251 C 0.251,-0.112 0.139,0 0,0"
             style="fill:#3e3a39;fill-opacity:1;fill-rule:nonzero;stroke:none"
             id="path280" /></g><g
           id="g282"
           transform="translate(514.1465,189.3791)"><path
             d="m 0,0 h -1.627 c -0.139,0 -0.251,-0.112 -0.251,-0.251 v -10.591 c 0,-0.138 0.112,-0.251 0.251,-0.251 H 0 c 0.139,0 0.251,0.113 0.251,0.251 V -0.251 C 0.251,-0.112 0.139,0 0,0"
             style="fill:#3e3a39;fill-opacity:1;fill-rule:nonzero;stroke:none"
             id="path284" /></g><g
           id="g286"
           transform="translate(371.0273,186.6769)"><path
             d="m 0,0 c -0.435,0 -0.85,-0.07 -1.234,-0.207 -0.38,-0.134 -0.715,-0.341 -0.996,-0.611 l -0.234,-0.226 v 3.556 c 0,0.105 -0.086,0.19 -0.19,0.19 h -1.749 c -0.105,0 -0.191,-0.085 -0.191,-0.19 V -8.2 c 0,-0.105 0.086,-0.191 0.191,-0.191 h 1.749 c 0.104,0 0.19,0.086 0.19,0.191 v 5.01 c 0,0.523 0.168,0.935 0.503,1.225 0.327,0.285 0.747,0.429 1.243,0.429 0.511,0 0.928,-0.142 1.237,-0.423 0.313,-0.284 0.47,-0.698 0.47,-1.231 V -8.2 c 0,-0.105 0.085,-0.191 0.191,-0.191 h 1.748 c 0.105,0 0.19,0.086 0.19,0.191 v 5.257 c 0,0.923 -0.273,1.651 -0.811,2.165 C 1.769,-0.262 0.992,0 0,0"
             style="fill:#3e3a39;fill-opacity:1;fill-rule:nonzero;stroke:none"
             id="path288" /></g><g
           id="g290"
           transform="translate(395.0547,181.6579)"><path
             d="m 0,0 c 0,-1.265 -0.623,-1.934 -1.805,-1.934 -1.207,0 -1.843,0.669 -1.843,1.934 v 1.548 c 0,1.266 0.636,1.935 1.843,1.935 C -0.623,3.483 0,2.814 0,1.548 Z M -1.805,5.019 C -3.032,5.019 -4.011,4.736 -4.713,4.176 -5.405,3.623 -5.757,2.75 -5.757,1.582 v -1.599 c 0,-1.179 0.352,-2.058 1.044,-2.61 0.702,-0.56 1.68,-0.844 2.908,-0.844 1.217,0 2.185,0.284 2.879,0.843 0.687,0.552 1.034,1.43 1.034,2.611 v 1.599 c 0,1.169 -0.347,2.043 -1.034,2.594 -0.694,0.56 -1.664,0.843 -2.879,0.843"
             style="fill:#3e3a39;fill-opacity:1;fill-rule:nonzero;stroke:none"
             id="path292" /></g><g
           id="g294"
           transform="translate(412.4668,181.6579)"><path
             d="m 0,0 c 0,-1.265 -0.623,-1.934 -1.805,-1.934 -1.206,0 -1.842,0.669 -1.842,1.934 v 1.548 c 0,1.266 0.636,1.935 1.842,1.935 C -0.623,3.483 0,2.814 0,1.548 Z M -1.805,5.019 C -3.031,5.019 -4.011,4.736 -4.713,4.176 -5.404,3.623 -5.757,2.75 -5.757,1.582 v -1.599 c 0,-1.179 0.353,-2.058 1.044,-2.61 0.702,-0.56 1.68,-0.844 2.908,-0.844 1.217,0 2.185,0.284 2.879,0.843 0.687,0.552 1.035,1.43 1.035,2.611 v 1.599 c 0,1.169 -0.348,2.043 -1.035,2.594 -0.694,0.56 -1.663,0.843 -2.879,0.843"
             style="fill:#3e3a39;fill-opacity:1;fill-rule:nonzero;stroke:none"
             id="path296" /></g><g
           id="g298"
           transform="translate(423.6953,182.4157)"><path
             d="m 0,0 c 0,-0.616 -0.161,-1.098 -0.482,-1.43 -0.324,-0.335 -0.783,-0.504 -1.361,-0.504 -0.77,0 -1.688,0.336 -1.688,1.934 v 0.791 c 0,1.265 0.604,1.934 1.746,1.934 0.555,0 0.995,-0.17 1.312,-0.504 C -0.159,1.889 0,1.408 0,0.791 Z M 1.866,4.163 H 0.267 C 0,4.163 0,3.926 0,3.926 V 3.053 L -0.242,3.337 C -0.767,3.95 -1.521,4.261 -2.482,4.261 -3.424,4.261 -4.196,3.98 -4.781,3.426 -5.364,2.874 -5.659,2.015 -5.659,0.873 v -0.938 c 0,-1.143 0.302,-2.004 0.896,-2.561 0.598,-0.56 1.371,-0.844 2.3,-0.844 0.978,0 1.739,0.284 2.264,0.845 l 0.238,0.255 v -1.403 c 0,-1.125 -0.617,-1.72 -1.785,-1.72 -0.475,0 -0.865,0.086 -1.164,0.257 -0.205,0.118 -0.36,0.264 -0.462,0.436 -0.034,0.057 -0.071,0.18 -0.301,0.18 H -5.28 c -0.221,0 -0.202,-0.154 -0.186,-0.228 0.129,-0.56 0.445,-1.004 0.957,-1.348 0.627,-0.422 1.524,-0.636 2.666,-0.636 1.24,0 2.222,0.291 2.918,0.867 0.687,0.568 1.034,1.35 1.034,2.324 v 7.5 c 0,0 0.017,0.304 -0.243,0.304"
             style="fill:#3e3a39;fill-opacity:1;fill-rule:nonzero;stroke:none"
             id="path300" /></g><g
           id="g302"
           transform="translate(436.8809,186.5783)"><path
             d="m 0,0 h -1.696 c -0.246,0 -0.351,-0.286 -0.351,-0.286 l -2.006,-5.361 -1.984,5.405 c 0,0 -0.036,0.242 -0.316,0.242 h -1.674 c -0.324,0 -0.209,-0.309 -0.209,-0.309 l 3.225,-7.885 -0.053,-0.164 c -0.131,-0.356 -0.3,-0.593 -0.514,-0.725 -0.213,-0.13 -0.518,-0.194 -0.937,-0.194 h -0.348 c -0.301,0 -0.27,-0.304 -0.27,-0.304 v -1.004 c 0,-0.244 0.203,-0.244 0.203,-0.244 h 0.494 c 0.774,0 1.399,0.138 1.858,0.409 0.456,0.269 0.812,0.707 1.057,1.301 l 3.603,8.785 C 0.082,-0.334 0.269,0 0,0"
             style="fill:#3e3a39;fill-opacity:1;fill-rule:nonzero;stroke:none"
             id="path304" /></g><g
           id="g306"
           transform="translate(456.0283,188.5836)"><path
             d="m 0,0 c -0.836,0.637 -1.982,0.96 -3.405,0.96 -3.206,0 -4.767,-1.437 -4.767,-4.393 v -2.603 c 0,-2.957 1.547,-4.393 4.728,-4.393 1.447,0 2.6,0.32 3.425,0.952 0.765,0.587 1.175,1.427 1.22,2.499 0.003,0.059 0.017,0.177 -0.179,0.177 h -1.864 c -0.162,0 -0.179,-0.1 -0.182,-0.149 -0.033,-0.538 -0.239,-0.975 -0.615,-1.3 -0.405,-0.35 -0.993,-0.527 -1.747,-0.527 -0.851,0 -1.489,0.225 -1.896,0.671 -0.404,0.442 -0.607,1.149 -0.607,2.103 v 2.455 c 0,1.006 0.197,1.747 0.585,2.199 0.396,0.458 1.027,0.691 1.879,0.691 0.754,0 1.349,-0.184 1.768,-0.545 0.376,-0.325 0.588,-0.755 0.63,-1.282 0.005,-0.055 0.006,-0.167 0.224,-0.167 h 1.854 c 0.15,0 0.191,0.135 0.188,0.201 C 1.189,-1.399 0.783,-0.597 0,0"
             style="fill:#3e3a39;fill-opacity:1;fill-rule:nonzero;stroke:none"
             id="path308" /></g><g
           id="g310"
           transform="translate(466.2959,181.6579)"><path
             d="m 0,0 c 0,-1.265 -0.623,-1.934 -1.805,-1.934 -1.207,0 -1.842,0.669 -1.842,1.934 v 1.548 c 0,1.266 0.635,1.935 1.842,1.935 C -0.623,3.483 0,2.814 0,1.548 Z M -1.805,5.019 C -3.031,5.019 -4.011,4.736 -4.713,4.176 -5.405,3.623 -5.757,2.75 -5.757,1.582 v -1.599 c 0,-1.179 0.352,-2.058 1.044,-2.61 0.702,-0.56 1.68,-0.844 2.908,-0.844 1.217,0 2.185,0.284 2.879,0.843 0.687,0.552 1.035,1.43 1.035,2.611 v 1.599 c 0,1.169 -0.348,2.043 -1.035,2.594 -0.694,0.56 -1.662,0.843 -2.879,0.843"
             style="fill:#3e3a39;fill-opacity:1;fill-rule:nonzero;stroke:none"
             id="path312" /></g><g
           id="g314"
           transform="translate(479.4785,186.5783)"><path
             d="m 0,0 h -1.587 c -0.149,0 -0.271,-0.121 -0.271,-0.271 v -4.601 c 0,-0.672 -0.112,-1.156 -0.345,-1.48 -0.239,-0.333 -0.704,-0.502 -1.381,-0.502 -0.68,0 -1.145,0.178 -1.385,0.53 -0.228,0.334 -0.343,0.823 -0.343,1.452 v 4.601 C -5.312,-0.121 -5.433,0 -5.583,0 H -7.17 C -7.319,0 -7.44,-0.121 -7.44,-0.271 V -4.97 c 0,-2.302 1.261,-3.421 3.856,-3.421 1.303,0 2.281,0.287 2.912,0.854 0.625,0.565 0.943,1.428 0.943,2.567 v 4.699 C 0.271,-0.121 0.149,0 0,0"
             style="fill:#3e3a39;fill-opacity:1;fill-rule:nonzero;stroke:none"
             id="path316" /></g><g
           id="g318"
           transform="translate(154.5698,186.5783)"><path
             d="m 0,0 h -1.546 c -0.155,0 -0.281,-0.125 -0.281,-0.281 v -7.73 c 0,-0.156 0.126,-0.281 0.281,-0.281 H 0 c 0.155,0 0.281,0.125 0.281,0.281 v 7.73 C 0.281,-0.125 0.155,0 0,0"
             style="fill:#3e3a39;fill-opacity:1;fill-rule:nonzero;stroke:none"
             id="path320" /></g><g
           id="g322"
           transform="translate(233.1387,186.5783)"><path
             d="m 0,0 h -1.547 c -0.155,0 -0.28,-0.125 -0.28,-0.281 v -7.73 c 0,-0.156 0.125,-0.281 0.28,-0.281 H 0 c 0.155,0 0.28,0.125 0.28,0.281 v 7.73 C 0.28,-0.125 0.155,0 0,0"
             style="fill:#3e3a39;fill-opacity:1;fill-rule:nonzero;stroke:none"
             id="path324" /></g><g
           id="g326"
           transform="translate(508.252,186.5783)"><path
             d="m 0,0 h -1.547 c -0.155,0 -0.28,-0.125 -0.28,-0.281 v -7.73 c 0,-0.156 0.125,-0.281 0.28,-0.281 H 0 c 0.154,0 0.28,0.125 0.28,0.281 v 7.73 C 0.28,-0.125 0.154,0 0,0"
             style="fill:#3e3a39;fill-opacity:1;fill-rule:nonzero;stroke:none"
             id="path328" /></g><g
           id="g330"
           transform="translate(149.1763,186.5783)"><path
             d="m 0,0 h -1.753 v 2.142 c 0,0.11 -0.09,0.2 -0.2,0.2 h -1.708 c -0.11,0 -0.2,-0.09 -0.2,-0.2 V 0 h -1.21 c -0.103,0 -0.185,-0.083 -0.185,-0.185 v -0.788 c 0,-0.102 0.082,-0.185 0.185,-0.185 h 1.21 v -4.8 c 0,-0.722 0.247,-1.277 0.755,-1.698 0.507,-0.422 1.211,-0.636 2.092,-0.636 h 0.761 c 0,0 0.245,-0.027 0.245,0.255 v 0.947 c 0,0.247 -0.245,0.252 -0.245,0.252 h -0.373 c -0.932,0 -1.127,0.55 -1.127,1.011 v 4.669 H 0 c 0.103,0 0.185,0.083 0.185,0.185 v 0.788 C 0.185,-0.083 0.103,0 0,0"
             style="fill:#3e3a39;fill-opacity:1;fill-rule:nonzero;stroke:none"
             id="path332" /></g><g
           id="g334"
           transform="translate(341.9004,189.3791)"><path
             d="M 0,0 H -8.572 C -8.721,0 -8.84,-0.12 -8.84,-0.268 v -1.066 c 0,-0.148 0.119,-0.268 0.268,-0.268 h 3.143 v -9.26 c 0,-0.127 0.104,-0.231 0.231,-0.231 h 1.806 c 0.127,0 0.231,0.104 0.231,0.231 v 9.26 H 0 c 0.147,0 0.268,0.12 0.268,0.268 v 1.066 C 0.268,-0.12 0.147,0 0,0"
             style="fill:#3e3a39;fill-opacity:1;fill-rule:nonzero;stroke:none"
             id="path336" /></g></g></g></g></svg>
