<?xml version="1.0" encoding="UTF-8" standalone="no"?>
<!-- Created with Inkscape (http://www.inkscape.org/) -->

<svg
   width="52.451191mm"
   height="52.04903mm"
   viewBox="0 0 52.451191 52.04903"
   version="1.1"
   id="svg1"
   xml:space="preserve"
   inkscape:version="1.3 (0e150ed, 2023-07-21)"
   sodipodi:docname="royalsociety.svg"
   xmlns:inkscape="http://www.inkscape.org/namespaces/inkscape"
   xmlns:sodipodi="http://sodipodi.sourceforge.net/DTD/sodipodi-0.dtd"
   xmlns="http://www.w3.org/2000/svg"
   xmlns:svg="http://www.w3.org/2000/svg"><sodipodi:namedview
     id="namedview1"
     pagecolor="#ffffff"
     bordercolor="#000000"
     borderopacity="0.25"
     inkscape:showpageshadow="2"
     inkscape:pageopacity="0.0"
     inkscape:pagecheckerboard="0"
     inkscape:deskcolor="#d1d1d1"
     inkscape:document-units="mm"
     inkscape:zoom="1.0579733"
     inkscape:cx="-36.862933"
     inkscape:cy="-48.205375"
     inkscape:window-width="1512"
     inkscape:window-height="855"
     inkscape:window-x="0"
     inkscape:window-y="38"
     inkscape:window-maximized="1"
     inkscape:current-layer="layer1" /><defs
     id="defs1"><clipPath
       clipPathUnits="userSpaceOnUse"
       id="clipPath4"><path
         d="M 0,0 H 595.275 V 841.89 H 0 Z"
         transform="translate(-73.382802,-26.291101)"
         id="path4" /></clipPath><clipPath
       clipPathUnits="userSpaceOnUse"
       id="clipPath6"><path
         d="M 0,0 H 595.275 V 841.89 H 0 Z"
         transform="translate(-97.808605,-34.503976)"
         id="path6" /></clipPath><clipPath
       clipPathUnits="userSpaceOnUse"
       id="clipPath8"><path
         d="M 0,0 H 595.275 V 841.89 H 0 Z"
         transform="translate(-39.317401,-18.445125)"
         id="path8" /></clipPath><clipPath
       clipPathUnits="userSpaceOnUse"
       id="clipPath10"><path
         d="M 0,0 H 595.275 V 841.89 H 0 Z"
         transform="translate(-59.112301,-33.746026)"
         id="path10" /></clipPath><clipPath
       clipPathUnits="userSpaceOnUse"
       id="clipPath12"><path
         d="M 0,0 H 595.275 V 841.89 H 0 Z"
         transform="translate(-28.1143,-22.449076)"
         id="path12" /></clipPath><clipPath
       clipPathUnits="userSpaceOnUse"
       id="clipPath14"><path
         d="M 0,0 H 595.275 V 841.89 H 0 Z"
         transform="translate(-78.306602,-34.503976)"
         id="path14" /></clipPath><clipPath
       clipPathUnits="userSpaceOnUse"
       id="clipPath16"><path
         d="M 0,0 H 595.275 V 841.89 H 0 Z"
         transform="translate(-120.033,-34.503976)"
         id="path16" /></clipPath><clipPath
       clipPathUnits="userSpaceOnUse"
       id="clipPath18"><path
         d="M 0,0 H 595.275 V 841.89 H 0 Z"
         transform="translate(-21.835,-49.308826)"
         id="path18" /></clipPath><clipPath
       clipPathUnits="userSpaceOnUse"
       id="clipPath20"><path
         d="M 0,0 H 595.275 V 841.89 H 0 Z"
         transform="translate(-41.917001,-56.656426)"
         id="path20" /></clipPath><clipPath
       clipPathUnits="userSpaceOnUse"
       id="clipPath22"><path
         d="M 0,0 H 595.275 V 841.89 H 0 Z"
         transform="translate(-53.722702,-54.765676)"
         id="path22" /></clipPath><clipPath
       clipPathUnits="userSpaceOnUse"
       id="clipPath24"><path
         d="M 0,0 H 595.275 V 841.89 H 0 Z"
         transform="translate(-76.549802,-46.632901)"
         id="path24" /></clipPath><clipPath
       clipPathUnits="userSpaceOnUse"
       id="clipPath26"><path
         d="M 0,0 H 595.275 V 841.89 H 0 Z"
         transform="translate(-90.494102,-40.625026)"
         id="path26" /></clipPath><clipPath
       clipPathUnits="userSpaceOnUse"
       id="clipPath28"><path
         d="M 0,0 H 595.275 V 841.89 H 0 Z"
         transform="translate(-29.630901,-63.965027)"
         id="path28" /></clipPath><clipPath
       clipPathUnits="userSpaceOnUse"
       id="clipPath30"><path
         d="M 0,0 H 595.275 V 841.89 H 0 Z"
         transform="translate(-19.1025,-72.065027)"
         id="path30" /></clipPath><clipPath
       clipPathUnits="userSpaceOnUse"
       id="clipPath32"><path
         d="M 0,0 H 595.275 V 841.89 H 0 Z"
         transform="translate(-38.252901,-71.343377)"
         id="path32" /></clipPath></defs><g
     inkscape:label="Layer 1"
     inkscape:groupmode="layer"
     id="layer1"
     transform="translate(-27.038913,-213.46192)"><path
       id="path2"
       d="M 27.038913,265.51095 H 79.490104 V 213.46192 H 27.038913 Z"
       style="fill:#d31245;fill-opacity:1;fill-rule:nonzero;stroke:none;stroke-width:0.352777"
       sodipodi:nodetypes="ccccc" /><path
       id="path3"
       d="M 0,0 V 5.658 C 0,7.641 1.126,7.791 1.861,7.791 V 8.213 H 0.259 -4.679 V 7.791 c 0.737,0 1.861,-0.15 1.861,-2.133 V 0 -0.471 -6.125 c 0,-1.986 -1.124,-2.135 -1.861,-2.135 v -0.422 h 6.54 V -8.26 C 1.126,-8.26 0,-8.111 0,-6.127 v 5.656 z"
       style="fill:#ffffff;fill-opacity:1;fill-rule:nonzero;stroke:none"
       transform="matrix(0.35277776,0,0,-0.35277776,52.926734,256.23603)"
       clip-path="url(#clipPath4)" /><path
       id="path5"
       d="m 0,0 h -5.419 v -3.295 h 0.421 c 0.309,0.861 0.409,2.102 2.844,2.102 h 2.25 v -13.145 c 0,-1.986 -1.127,-2.135 -1.863,-2.135 v -0.422 h 6.539 v 0.422 c -0.735,0 -1.859,0.149 -1.859,2.133 V -1.193 H 5.16 c 2.434,0 2.536,-1.241 2.844,-2.102 H 8.425 V 0 H 1.538 Z"
       style="fill:#ffffff;fill-opacity:1;fill-rule:nonzero;stroke:none"
       transform="matrix(0.35277776,0,0,-0.35277776,61.543614,253.33871)"
       clip-path="url(#clipPath6)" /><path
       id="path7"
       d="m 0,0 c -3.532,-0.183 -5.843,3.102 -6.043,7.295 -0.2,4.198 1.786,7.715 5.319,7.897 C 2.81,15.373 5.119,12.09 5.319,7.897 5.52,3.7 3.534,0.182 0,0 m 8.443,7.596 c 0,4.861 -3.325,8.803 -8.804,8.803 -5.481,0 -8.806,-3.942 -8.806,-8.803 0,-4.863 3.325,-8.803 8.806,-8.803 5.479,0 8.804,3.94 8.804,8.803"
       style="fill:#ffffff;fill-opacity:1;fill-rule:nonzero;stroke:none"
       transform="matrix(0.35277776,0,0,-0.35277776,40.909218,259.00392)"
       clip-path="url(#clipPath8)" /><path
       id="path9"
       d="M 0,0 C 2.775,0 4.795,-1.377 5.641,-3.9 H 6.058 L 6.051,-0.015 C 5.03,0.315 2.591,1.1 0.271,1.1 c -3.349,0 -5.298,-0.899 -6.914,-2.379 -2.158,-1.981 -2.626,-4.883 -2.626,-6.41 0,-1.528 0.468,-4.432 2.626,-6.41 1.616,-1.481 3.565,-2.381 6.914,-2.381 2.32,0 4.759,0.789 5.78,1.117 l 0.007,3.887 H 5.641 C 4.795,-14.002 2.775,-15.377 0,-15.377 c -2.56,0 -6.104,1.508 -6.104,7.688 C -6.104,-1.51 -2.56,0 0,0"
       style="fill:#ffffff;fill-opacity:1;fill-rule:nonzero;stroke:none"
       transform="matrix(0.35277776,0,0,-0.35277776,47.892419,253.6061)"
       clip-path="url(#clipPath10)" /><path
       id="path11"
       d="m 0,0 c -0.025,2.666 -2.094,3.897 -4.225,5.153 -1.576,0.927 -4.089,1.826 -4.089,3.636 0,1.703 1.455,2.586 3.086,2.586 2.399,0 3.524,-1.545 3.856,-3.359 h 0.565 v 3.398 c -0.897,0.448 -2.313,0.998 -4.223,0.998 -2.793,0 -5.435,-1.681 -5.509,-4.507 -0.05,-2.487 1.445,-3.403 4.34,-5.002 1.912,-1.057 3.902,-2.45 3.902,-4.03 0,-1.75 -1.559,-2.884 -3.56,-2.884 -3.407,0 -4.231,2.65 -4.339,4.162 h -0.542 l -0.011,-3.932 c 1.094,-0.732 2.817,-1.426 4.794,-1.404 C -2.225,-5.185 0,-2.898 0,0"
       style="fill:#ffffff;fill-opacity:1;fill-rule:nonzero;stroke:none"
       transform="matrix(0.35277776,0,0,-0.35277776,36.957013,257.59141)"
       clip-path="url(#clipPath12)" /><path
       id="path13"
       d="m 0,0 v -0.422 c 0.733,0 1.859,-0.15 1.859,-2.133 v -6.129 -5.654 c 0,-1.986 -1.126,-2.135 -1.859,-2.135 v -0.422 h 4.58 0.097 7.422 v 3.356 h -0.426 c -0.254,-1.162 -0.605,-2.162 -2.13,-2.162 H 4.677 v 7.017 0.446 h 2.894 c 1.636,0 1.845,-1.061 1.817,-1.862 h 0.424 l 0.516,3.055 0.083,0.502 H 10.014 C 9.657,-6.99 9.307,-7.045 8.488,-7.045 H 4.677 v 5.852 h 4.09 c 1.523,0 2.021,-1.059 2.131,-1.862 h 0.423 V 0 H 6.428 3.804 Z"
       style="fill:#ffffff;fill-opacity:1;fill-rule:nonzero;stroke:none"
       transform="matrix(0.35277776,0,0,-0.35277776,54.663741,253.33871)"
       clip-path="url(#clipPath14)" /><path
       id="path15"
       d="M 0,0 V -0.422 C 0.333,-0.521 1.085,-0.93 0.411,-2.207 l -3.381,-5.975 -3.614,6.313 c -0.502,0.883 -0.195,1.447 0.374,1.447 V 0 h -5.513 v -0.422 c 1.15,0 1.859,-0.959 2.694,-2.332 l 4.151,-6.912 v -4.672 c 0,-1.986 -1.125,-2.135 -1.863,-2.135 v -0.422 H -0.2 v 0.422 c -0.737,0 -1.861,0.149 -1.861,2.133 v 4.961 l 4.358,7.291 c 0.704,1.061 1.212,1.465 2.089,1.666 V 0 Z"
       style="fill:#ffffff;fill-opacity:1;fill-rule:nonzero;stroke:none"
       transform="matrix(0.35277776,0,0,-0.35277776,69.383887,253.33871)"
       clip-path="url(#clipPath16)" /><path
       id="path17"
       d="m 0,0 v 7.174 h 1.346 c 2.275,0 3.413,-1.694 3.413,-3.879 0,-2.186 -1.138,-3.879 -3.413,-3.879 H 0 v 0.111 z M 1.86,-8.264 C 1.125,-8.264 0,-8.114 0,-6.129 v 4.371 h 1.441 0.895 l 2.859,-3.9 c 1.525,-2.104 4.094,-4.526 7.532,-3.075 l -0.073,0.387 c -1.041,-0.217 -2.449,0.607 -3.949,2.301 l -4.222,5.227 c 1.599,1.066 2.939,2.734 2.939,4.966 0,2.735 -1.864,4.061 -5.562,4.061 H -4.678 V 7.791 c 0.737,0 1.861,-0.15 1.861,-2.137 V 0 -0.473 -6.127 c 0,-1.985 -1.124,-2.137 -1.861,-2.137 v -0.42 H 1.86 Z"
       style="fill:#ffffff;fill-opacity:1;fill-rule:nonzero;stroke:none"
       transform="matrix(0.35277776,0,0,-0.35277776,34.741816,248.11589)"
       clip-path="url(#clipPath18)" /><path
       id="path19"
       d="m 0,0 c 3.533,0.184 5.842,-3.1 6.042,-7.293 0.2,-4.197 -1.784,-7.714 -5.317,-7.896 -3.534,-0.182 -5.844,3.099 -6.044,7.297 C -5.52,-3.699 -3.533,-0.182 0,0 m 0.361,-16.396 c 5.481,0 8.806,3.941 8.806,8.802 0,4.862 -3.325,8.801 -8.806,8.801 -5.479,0 -8.804,-3.939 -8.804,-8.801 0,-4.861 3.325,-8.802 8.804,-8.802"
       style="fill:#ffffff;fill-opacity:1;fill-rule:nonzero;stroke:none"
       transform="matrix(0.35277776,0,0,-0.35277776,41.826299,245.52382)"
       clip-path="url(#clipPath20)" /><path
       id="path21"
       d="m 0,0 4.15,-6.91 v -4.674 c 0,-1.985 -1.125,-2.137 -1.861,-2.137 v -0.42 h 6.539 v 0.42 c -0.737,0 -1.861,0.15 -1.861,2.137 v 4.959 l 4.357,7.291 c 0.707,1.059 2.061,1.668 2.737,1.668 V 2.752 H 8.882 V 2.334 c 0.399,0 1.5,-0.039 0.557,-1.787 L 6.101,-5.502 2.443,0.885 C 1.941,1.766 2.248,2.334 2.817,2.334 v 0.418 h -5.88 V 2.334 C -1.914,2.334 -0.837,1.373 0,0"
       style="fill:#ffffff;fill-opacity:1;fill-rule:nonzero;stroke:none"
       transform="matrix(0.35277776,0,0,-0.35277776,45.991088,246.19083)"
       clip-path="url(#clipPath22)" /><path
       id="path23"
       d="m 0,0 h -5.179 l 2.547,6.949 z m -10.722,-5.588 v -0.42 h 5.115 v 0.418 c -1.166,0 -1.329,0.635 -1.077,1.487 l 1.091,2.982 h 6.019 l 1.146,-3.027 c 0.401,-1.085 0.257,-1.44 -0.552,-1.44 v -0.42 h 5.924 v 0.42 c -1.15,0 -1.892,0.373 -2.752,2.334 l -5.74,14.123 H -2.346 L -8.227,-3.484 c -0.83,-1.999 -1.619,-2.104 -2.495,-2.104"
       style="fill:#ffffff;fill-opacity:1;fill-rule:nonzero;stroke:none"
       transform="matrix(0.35277776,0,0,-0.35277776,54.043981,249.05989)"
       clip-path="url(#clipPath24)" /><path
       id="path25"
       d="M 0,0 H 7.531 V 3.356 H 7.108 C 6.852,2.193 6.503,1.193 4.979,1.193 H 0 v 7.018 0.473 5.656 c 0,1.984 1.123,2.135 1.861,2.135 v 0.418 H -4.68 v -0.418 c 0.738,0 1.862,-0.151 1.862,-2.137 V 8.684 8.211 2.557 C -2.818,0.572 -3.942,0.42 -4.68,0.42 V 0 h 4.584 z"
       style="fill:#ffffff;fill-opacity:1;fill-rule:nonzero;stroke:none"
       transform="matrix(0.35277776,0,0,-0.35277776,58.96322,251.17934)"
       clip-path="url(#clipPath26)" /><path
       id="path27"
       d="M 0,0 C -0.391,0 -0.986,0.08 -0.986,1.133 V 4.131 4.18 H 3.586 V 4.131 1.133 C 3.586,0.08 2.991,0 2.6,0 V -0.221 H 6.065 V 0 C 5.676,0 5.08,0.08 5.08,1.133 v 2.998 0.25 2.997 c 0,1.052 0.596,1.131 0.985,1.131 V 8.732 H 2.6 V 8.509 c 0.391,0 0.986,-0.079 0.986,-1.131 V 4.863 h -4.572 v 2.515 c 0,1.052 0.595,1.131 0.986,1.131 V 8.732 H -3.466 V 8.509 c 0.391,0 0.987,-0.079 0.987,-1.131 V 4.381 4.131 1.133 C -2.479,0.08 -3.075,0 -3.466,0 V -0.221 H 0 Z"
       style="fill:#ffffff;fill-opacity:1;fill-rule:nonzero;stroke:none"
       transform="matrix(0.35277776,0,0,-0.35277776,37.492036,242.94551)"
       clip-path="url(#clipPath28)" /><path
       id="path29"
       d="M 0,0 H 1.192 V -6.967 C 1.192,-8.02 0.597,-8.1 0.206,-8.1 V -8.321 H 3.671 V -8.1 c -0.39,0 -0.985,0.08 -0.985,1.133 V 0 H 3.877 C 5.167,0 5.22,-0.658 5.383,-1.113 H 5.607 V 0.632 H 1.956 1.142 -1.729 v -1.745 h 0.222 C -1.344,-0.658 -1.29,0 0,0"
       style="fill:#ffffff;fill-opacity:1;fill-rule:nonzero;stroke:none"
       transform="matrix(0.35277776,0,0,-0.35277776,33.77785,240.08801)"
       clip-path="url(#clipPath30)" /><path
       id="path31"
       d="m 0,0 v -3.248 -2.998 c 0,-1.052 -0.596,-1.132 -0.986,-1.132 v -0.221 h 2.429 0.05 3.956 v 1.777 H 5.224 C 5.088,-6.437 4.904,-6.968 4.096,-6.968 H 1.493 v 3.72 0.235 H 3.05 c 0.866,0 0.976,-0.561 0.962,-0.985 H 4.237 L 4.51,-2.38 4.555,-2.113 H 4.344 C 4.154,-2.351 3.97,-2.38 3.534,-2.38 H 1.493 v 3.102 h 2.191 c 0.807,0 1.071,-0.561 1.128,-0.987 H 5.036 V 1.354 H 2.443 1.031 -0.986 V 1.131 C -0.596,1.131 0,1.052 0,0"
       style="fill:#ffffff;fill-opacity:1;fill-rule:nonzero;stroke:none"
       transform="matrix(0.35277776,0,0,-0.35277776,40.533686,240.34259)"
       clip-path="url(#clipPath32)" /></g></svg>
