<?xml version="1.0" encoding="UTF-8" standalone="no"?>
<!-- Created with Inkscape (http://www.inkscape.org/) -->

<svg
   width="218.99139mm"
   height="56.265232mm"
   viewBox="0 0 218.99139 56.265232"
   version="1.1"
   id="svg5"
   sodipodi:docname="stfc.svg"
   inkscape:version="1.1.1 (c3084ef, 2021-09-22)"
   xmlns:inkscape="http://www.inkscape.org/namespaces/inkscape"
   xmlns:sodipodi="http://sodipodi.sourceforge.net/DTD/sodipodi-0.dtd"
   xmlns="http://www.w3.org/2000/svg"
   xmlns:svg="http://www.w3.org/2000/svg">
  <sodipodi:namedview
     id="namedview7"
     pagecolor="#ffffff"
     bordercolor="#666666"
     borderopacity="1.0"
     inkscape:pageshadow="2"
     inkscape:pageopacity="0.0"
     inkscape:pagecheckerboard="true"
     inkscape:document-units="mm"
     showgrid="false"
     inkscape:zoom="0.69470957"
     inkscape:cx="413.12228"
     inkscape:cy="105.79961"
     inkscape:window-width="1514"
     inkscape:window-height="1093"
     inkscape:window-x="0"
     inkscape:window-y="25"
     inkscape:window-maximized="0"
     inkscape:current-layer="layer1" />
  <defs
     id="defs2">
    <clipPath
       clipPathUnits="userSpaceOnUse"
       id="clipPath39">
      <path
         d="M 0,159.492 H 620.763 V 0 H 0 Z"
         id="path37" />
    </clipPath>
  </defs>
  <g
     inkscape:label="Layer 1"
     inkscape:groupmode="layer"
     id="layer1"
     transform="translate(42.134869,-65.764288)">
    <path
       d="m 72.278511,87.533393 c -2.169936,0 -3.673828,-1.418519 -3.673828,-3.2766 h 1.84397 c 0.170391,1.234017 1.191683,1.51765 1.815747,1.51765 0.482247,0 1.446742,-0.170039 1.446742,-1.0922 0,-0.836789 -0.808567,-1.177219 -1.616781,-1.489075 -1.3335,-0.524933 -3.219803,-1.163461 -3.219803,-3.049764 0,-1.673577 1.460853,-2.694869 3.233914,-2.694869 2.056342,0 3.205339,1.375833 3.205339,2.638072 h -1.815394 c -0.09948,-0.553155 -0.709084,-0.907697 -1.41852,-0.907697 -0.680861,0 -1.248128,0.34043 -1.248128,0.964494 0,0.609953 0.553156,0.8509 1.51765,1.290814 1.035403,0.468136 3.248378,1.021292 3.248378,3.262136 0,1.858433 -1.518003,2.837039 -3.319286,2.837039"
       style="fill:#2e2d62;fill-opacity:1;fill-rule:nonzero;stroke:none;stroke-width:0.352778"
       id="path43" />
    <path
       d="m 80.080756,87.533393 c -1.971675,0 -3.588455,-1.51765 -3.588455,-3.602919 0,-2.113492 1.673577,-3.631142 3.659363,-3.631142 1.617134,0 2.992967,1.007181 3.390195,2.666647 H 81.61287 c -0.298097,-0.581378 -0.822678,-0.950383 -1.503892,-0.950383 -0.992716,0 -1.786819,0.794455 -1.786819,1.900767 0,1.106311 0.794103,1.900766 1.786819,1.900766 0.638528,0 1.134886,-0.326319 1.447095,-0.851253 h 1.9431 c -0.454025,1.688042 -1.914878,2.567517 -3.418417,2.567517"
       style="fill:#2e2d62;fill-opacity:1;fill-rule:nonzero;stroke:none;stroke-width:0.352778"
       id="path47" />
    <path
       d="m 86.762367,87.46259 h -1.815394 v -7.092244 h 1.815394 z m -2.127603,-9.07803 c 0,-0.680861 0.553509,-1.205442 1.219906,-1.205442 0.652639,0 1.19133,0.524581 1.19133,1.205442 0,0.638175 -0.538691,1.191683 -1.19133,1.191683 -0.666397,0 -1.219906,-0.553508 -1.219906,-1.191683"
       style="fill:#2e2d62;fill-opacity:1;fill-rule:nonzero;stroke:none;stroke-width:0.352778"
       id="path49" />
    <path
       d="m 89.983016,83.022741 h 3.191228 c -0.212725,-0.836789 -0.794103,-1.177219 -1.503539,-1.177219 -0.779992,0 -1.404056,0.439913 -1.687689,1.177219 m 5.063772,1.432631 h -5.177366 c 0.212725,1.078088 1.091847,1.475316 1.85808,1.475316 0.964494,0 1.375833,-0.595841 1.375833,-0.595841 h 1.787173 c -0.538692,1.418519 -1.829506,2.198511 -3.219803,2.198511 -1.914878,0 -3.588456,-1.460853 -3.588456,-3.673475 0,-2.198864 1.659467,-3.560586 3.531659,-3.560586 1.815747,0 3.659716,1.262591 3.43288,4.156075"
       style="fill:#2e2d62;fill-opacity:1;fill-rule:nonzero;stroke:none;stroke-width:0.352778"
       id="path53" />
    <path
       d="m 103.07608,83.618547 v 3.843867 h -1.88666 v -3.418417 c 0,-0.2413 0.1704,-2.028119 -1.191679,-2.099381 -0.666397,-0.04233 -1.857728,0.32632 -1.857728,2.1844 v 3.333398 h -1.872544 v -7.092245 h 1.447094 l 0.240595,0.865364 h 0.2413 c 0.298097,-0.354541 0.964494,-0.936272 2.156182,-0.936272 1.82985,0 2.72344,1.361722 2.72344,3.319286"
       style="fill:#2e2d62;fill-opacity:1;fill-rule:nonzero;stroke:none;stroke-width:0.352778"
       id="path57" />
    <path
       d="m 107.88476,87.533393 c -1.97167,0 -3.58846,-1.51765 -3.58846,-3.602919 0,-2.113492 1.67358,-3.631142 3.65937,-3.631142 1.61713,0 2.99296,1.007181 3.39019,2.666647 h -1.92899 c -0.29809,-0.581378 -0.82267,-0.950383 -1.50389,-0.950383 -0.99271,0 -1.78682,0.794455 -1.78682,1.900767 0,1.106311 0.79411,1.900766 1.78682,1.900766 0.63853,0 1.13489,-0.326319 1.4471,-0.851253 h 1.9431 c -0.45403,1.688042 -1.91488,2.567517 -3.41842,2.567517"
       style="fill:#2e2d62;fill-opacity:1;fill-rule:nonzero;stroke:none;stroke-width:0.352778"
       id="path61" />
    <path
       d="m 114.18378,83.022741 h 3.19123 c -0.21273,-0.836789 -0.79411,-1.177219 -1.50354,-1.177219 -0.77999,0 -1.40406,0.439913 -1.68769,1.177219 m 5.06377,1.432631 h -5.17736 c 0.21272,1.078088 1.09184,1.475316 1.85808,1.475316 0.96449,0 1.37583,-0.595841 1.37583,-0.595841 h 1.78717 c -0.53869,1.418519 -1.8295,2.198511 -3.2198,2.198511 -1.91488,0 -3.58846,-1.460853 -3.58846,-3.673475 0,-2.198864 1.65947,-3.560586 3.53166,-3.560586 1.81575,0 3.65972,1.262591 3.43288,4.156075"
       style="fill:#2e2d62;fill-opacity:1;fill-rule:nonzero;stroke:none;stroke-width:0.352778"
       id="path65" />
    <path
       d="m 128.53947,84.483805 v -0.141817 c -1.29046,0.141817 -2.56716,0.297745 -2.56716,1.035403 0,1.078089 2.45392,0.99307 2.56716,-0.893586 m 2.58163,1.616781 v 1.361722 h -0.42581 c -0.82232,0 -1.40405,-0.297745 -1.645,-0.907697 -0.4258,0.58173 -1.13488,0.978958 -2.24119,0.978958 -1.60267,0 -2.62397,-0.823031 -2.62397,-2.099381 0,-2.212975 3.02119,-2.411589 4.38291,-2.482144 -0.0286,-0.822678 -0.48224,-1.120775 -1.20579,-1.120775 -1.00683,0 -1.07809,0.609953 -1.07809,0.609953 h -1.77271 c 0.12736,-1.262239 1.16311,-2.141714 2.89349,-2.141714 1.68769,0 2.87937,0.836789 2.87937,2.893483 v 1.886303 c 0,0.82303 0.29774,1.021292 0.83679,1.021292"
       style="fill:#2e2d62;fill-opacity:1;fill-rule:nonzero;stroke:none;stroke-width:0.352778"
       id="path69" />
    <path
       d="m 138.98018,83.618547 v 3.843867 h -1.88666 v -3.418417 c 0,-0.2413 0.1704,-2.028119 -1.19168,-2.099381 -0.6664,-0.04233 -1.85773,0.32632 -1.85773,2.1844 v 3.333398 h -1.87254 v -7.092245 h 1.44709 l 0.2406,0.865364 h 0.2413 c 0.2981,-0.354541 0.96449,-0.936272 2.15618,-0.936272 1.82985,0 2.72344,1.361722 2.72344,3.319286"
       style="fill:#2e2d62;fill-opacity:1;fill-rule:nonzero;stroke:none;stroke-width:0.352778"
       id="path73" />
    <path
       d="m 145.33501,83.916398 c 0,-1.177219 -0.63853,-1.872192 -1.56034,-1.872192 -0.86536,0 -1.73037,0.624064 -1.73037,1.872192 0,1.248128 0.86501,1.872192 1.73037,1.872192 0.92181,0 1.56034,-0.694973 1.56034,-1.872192 m 1.77271,-6.524625 V 87.46252 h -1.38995 l -0.19861,-0.680861 h -0.21272 c -0.43957,0.482247 -1.03541,0.751769 -1.80129,0.751769 -1.80128,0 -3.30482,-1.475316 -3.30482,-3.61703 0,-2.141714 1.50354,-3.61703 3.30482,-3.61703 0.73766,0 1.37584,0.255411 1.82986,0.76588 v -3.673475 z"
       style="fill:#2e2d62;fill-opacity:1;fill-rule:nonzero;stroke:none;stroke-width:0.352778"
       id="path77" />
    <path
       d="m 75.441623,93.824302 h -2.680758 v 8.169978 H 70.860098 V 93.824302 H 68.17934 v -1.75895 h 7.262283 z"
       style="fill:#2e2d62;fill-opacity:1;fill-rule:nonzero;stroke:none;stroke-width:0.352778"
       id="path81" />
    <path
       d="m 76.761435,97.55468 h 3.191228 c -0.212725,-0.836789 -0.794103,-1.177219 -1.503539,-1.177219 -0.779992,0 -1.404056,0.439913 -1.687689,1.177219 m 5.063772,1.432983 h -5.177366 c 0.212725,1.077737 1.091847,1.474607 1.85808,1.474607 0.964494,0 1.375833,-0.595484 1.375833,-0.595484 h 1.787173 c -0.538692,1.418164 -1.829506,2.198514 -3.219803,2.198514 -1.914878,0 -3.588456,-1.46086 -3.588456,-3.673831 0,-2.198511 1.659467,-3.560233 3.531659,-3.560233 1.815747,0 3.659716,1.262591 3.43288,4.156427"
       style="fill:#2e2d62;fill-opacity:1;fill-rule:nonzero;stroke:none;stroke-width:0.352778"
       id="path85" />
    <path
       d="m 86.407684,102.06533 c -1.971675,0 -3.588455,-1.518 -3.588455,-3.602919 0,-2.113492 1.673577,-3.631142 3.659363,-3.631142 1.617134,0 2.992967,1.007181 3.390195,2.667 h -1.928989 c -0.298097,-0.581731 -0.822678,-0.950736 -1.503892,-0.950736 -0.992716,0 -1.786819,0.794455 -1.786819,1.900767 0,1.106311 0.794103,1.90077 1.786819,1.90077 0.638528,0 1.134886,-0.32632 1.447095,-0.850904 h 1.942747 c -0.453672,1.687694 -1.914525,2.567164 -3.418064,2.567164"
       style="fill:#2e2d62;fill-opacity:1;fill-rule:nonzero;stroke:none;stroke-width:0.352778"
       id="path89" />
    <path
       d="m 97.798914,98.15031 v 3.84387 h -1.900767 v -3.418067 c 0,-0.695325 0.113948,-2.099381 -1.163108,-2.099381 -0.623711,0 -1.829505,0.32632 -1.829505,2.1844 v 3.333048 H 91.004767 V 91.923782 h 1.801636 v 3.716161 h 0.240947 c 0.340431,-0.354894 0.99307,-0.808566 2.042584,-0.808566 1.829858,0 2.70898,1.361722 2.70898,3.318933"
       style="fill:#2e2d62;fill-opacity:1;fill-rule:nonzero;stroke:none;stroke-width:0.352778"
       id="path93" />
    <path
       d="m 106.28209,98.15031 v 3.84387 h -1.88666 v -3.418067 c 0,-0.2413 0.1704,-2.028472 -1.19168,-2.099381 -0.6664,-0.04269 -1.85773,0.32632 -1.85773,2.1844 v 3.333048 h -1.872541 v -7.091895 h 1.447091 l 0.2406,0.865364 h 0.2413 c 0.2981,-0.354894 0.96449,-0.936272 2.15618,-0.936272 1.82985,0 2.72344,1.361722 2.72344,3.318933"
       style="fill:#2e2d62;fill-opacity:1;fill-rule:nonzero;stroke:none;stroke-width:0.352778"
       id="path97" />
    <path
       d="m 112.89255,98.448337 c 0,-1.106311 -0.65264,-1.971675 -1.73037,-1.971675 -1.07809,0 -1.80164,0.865364 -1.80164,1.971675 0,1.106311 0.72355,1.971673 1.80164,1.971673 1.07773,0 1.73037,-0.865362 1.73037,-1.971673 m -5.38974,0.01411 c 0,-2.269419 1.7586,-3.631141 3.65937,-3.631141 1.91452,0 3.58845,1.375833 3.58845,3.602919 0,2.255305 -1.73073,3.631145 -3.64525,3.631145 -1.92899,0 -3.60257,-1.37584 -3.60257,-3.602923"
       style="fill:#2e2d62;fill-opacity:1;fill-rule:nonzero;stroke:none;stroke-width:0.352778"
       id="path101" />
    <path
       d="m 117.81528,101.99421 h -1.84397 V 91.923465 h 1.84397 z"
       style="fill:#2e2d62;fill-opacity:1;fill-rule:nonzero;stroke:none;stroke-width:0.352778"
       id="path103" />
    <path
       d="m 124.43981,98.448337 c 0,-1.106311 -0.65264,-1.971675 -1.73037,-1.971675 -1.07809,0 -1.80164,0.865364 -1.80164,1.971675 0,1.106311 0.72355,1.971673 1.80164,1.971673 1.07773,0 1.73037,-0.865362 1.73037,-1.971673 m -5.38974,0.01411 c 0,-2.269419 1.7586,-3.631141 3.65937,-3.631141 1.91452,0 3.58845,1.375833 3.58845,3.602919 0,2.255305 -1.73073,3.631145 -3.64525,3.631145 -1.92899,0 -3.60257,-1.37584 -3.60257,-3.602923"
       style="fill:#2e2d62;fill-opacity:1;fill-rule:nonzero;stroke:none;stroke-width:0.352778"
       id="path107" />
    <path
       d="m 129.06487,97.214285 c 0,0.539044 0.38312,0.935919 1.20579,0.935919 0.80857,0 1.20545,-0.396875 1.20545,-0.935919 0,-0.524933 -0.39688,-0.893586 -1.20545,-0.893586 -0.80856,0 -1.20579,0.354542 -1.20579,0.893586 m 2.68111,5.290605 c 0,-0.38276 -0.31221,-0.68086 -1.10666,-0.68086 -0.39723,0 -0.95003,0 -1.36137,-0.0141 l -0.4826,0.51082 c -0.085,0.35419 0.26952,0.93592 1.51765,0.93592 0.92216,0 1.43298,-0.29774 1.43298,-0.75177 m 1.74449,0.0568 c -0.0568,1.60267 -1.51801,2.34033 -3.20569,2.34033 -2.19852,0 -3.46111,-1.26224 -3.13479,-2.79435 l 0.80857,-0.65264 c -0.45403,-0.28328 -0.75177,-0.72285 -0.75177,-1.24813 0,-0.581379 0.36865,-0.992718 0.87947,-1.26224 -0.48224,-0.439561 -0.72319,-1.035403 -0.72319,-1.7018 0,-1.361722 1.04916,-2.4257 2.83669,-2.4257 0.62406,0 1.17722,0.127706 1.61713,0.354542 0.76588,-0.354542 1.20544,-0.921809 1.20544,-0.921809 l 0.87948,1.17722 c 0,0 -0.48225,0.326319 -1.13489,0.524933 0.26952,0.368653 0.41134,0.808214 0.41134,1.27635 0,1.347611 -1.23402,2.4257 -3.02119,2.4257 -0.36865,0 -0.70908,-0.04269 -1.00718,-0.127705 -0.11324,0.07091 -0.21237,0.18415 -0.21237,0.354541 0,0.510818 0.77999,0.425798 1.26224,0.425798 h 0.99271 c 1.56034,0 2.34033,1.06328 2.298,2.25496"
       style="fill:#2e2d62;fill-opacity:1;fill-rule:nonzero;stroke:none;stroke-width:0.352778"
       id="path111" />
    <path
       d="m 142.07252,94.902285 -2.46803,7.361415 c -0.39723,1.17757 -0.86537,2.63842 -3.00708,2.63842 -1.2767,0 -1.9431,-0.51082 -2.15618,-0.77999 l 0.89359,-1.26259 c 0.0713,0.0709 0.51082,0.43991 1.10666,0.43991 0.59584,0 0.99307,-0.2413 1.149,-0.72354 l 0.19826,-0.58138 h -0.95038 l -2.43946,-7.092245 h 1.97167 l 1.78682,5.163255 h 0.28399 l 1.73037,-5.163255 z"
       style="fill:#2e2d62;fill-opacity:1;fill-rule:nonzero;stroke:none;stroke-width:0.352778"
       id="path115" />
    <path
       d="m 70.789189,108.39879 v 2.21227 h 3.787069 v 1.74484 h -3.787069 v 4.17018 h -1.900767 v -5.91502 -4.01355 h 6.539089 v 1.80128 z"
       style="fill:#2e2d62;fill-opacity:1;fill-rule:nonzero;stroke:none;stroke-width:0.352778"
       id="path119" />
    <path
       d="m 80.137271,113.54751 v -0.14182 c -1.290461,0.14182 -2.567164,0.29775 -2.567164,1.03541 0,1.07808 2.453922,0.99307 2.567164,-0.89359 m 2.581628,1.61678 v 1.36172 h -0.425803 c -0.822325,0 -1.404056,-0.29774 -1.645003,-0.90769 -0.425803,0.58173 -1.134886,0.97895 -2.241197,0.97895 -1.602669,0 -2.623961,-0.82303 -2.623961,-2.09973 0,-2.21227 3.021189,-2.41124 4.382911,-2.48214 -0.02858,-0.82268 -0.482247,-1.12043 -1.205794,-1.12043 -1.006828,0 -1.078089,0.60996 -1.078089,0.60996 h -1.772709 c 0.127353,-1.26224 1.163109,-2.14172 2.893484,-2.14172 1.687689,0 2.879372,0.83679 2.879372,2.89349 v 1.8863 c 0,0.82303 0.297744,1.02129 0.836789,1.02129"
       style="fill:#2e2d62;fill-opacity:1;fill-rule:nonzero;stroke:none;stroke-width:0.352778"
       id="path123" />
    <path
       d="m 86.91826,116.5971 c -1.971675,0 -3.588455,-1.518 -3.588455,-3.60292 0,-2.11314 1.673577,-3.63114 3.659363,-3.63114 1.617134,0 2.992967,1.00718 3.390195,2.667 h -1.928989 c -0.298097,-0.58208 -0.822678,-0.95074 -1.503892,-0.95074 -0.992716,0 -1.786819,0.79446 -1.786819,1.90077 0,1.10631 0.794103,1.90077 1.786819,1.90077 0.638528,0 1.134886,-0.32632 1.447095,-0.8509 h 1.942747 c -0.453672,1.68769 -1.914525,2.56716 -3.418064,2.56716"
       style="fill:#2e2d62;fill-opacity:1;fill-rule:nonzero;stroke:none;stroke-width:0.352778"
       id="path127" />
    <path
       d="m 93.600259,116.52619 h -1.815395 v -7.09225 h 1.815395 z m -2.127603,-9.07803 c 0,-0.68051 0.553155,-1.2058 1.219905,-1.2058 0.652639,0 1.191331,0.52529 1.191331,1.2058 0,0.63852 -0.538692,1.19133 -1.191331,1.19133 -0.66675,0 -1.219905,-0.55281 -1.219905,-1.19133"
       style="fill:#2e2d62;fill-opacity:1;fill-rule:nonzero;stroke:none;stroke-width:0.352778"
       id="path129" />
    <path
       d="m 97.004917,116.52619 h -1.84397 v -10.07075 h 1.84397 z"
       style="fill:#2e2d62;fill-opacity:1;fill-rule:nonzero;stroke:none;stroke-width:0.352778"
       id="path131" />
    <path
       d="m 100.49424,116.52619 h -1.815393 v -7.09225 h 1.815393 z m -2.127601,-9.07803 c 0,-0.68051 0.553156,-1.2058 1.219906,-1.2058 0.652635,0 1.191335,0.52529 1.191335,1.2058 0,0.63852 -0.5387,1.19133 -1.191335,1.19133 -0.66675,0 -1.219906,-0.55281 -1.219906,-1.19133"
       style="fill:#2e2d62;fill-opacity:1;fill-rule:nonzero;stroke:none;stroke-width:0.352778"
       id="path133" />
    <path
       d="m 107.14717,116.00143 c 0,0 -0.59549,0.59549 -1.68769,0.59549 -1.36207,0 -2.53894,-0.92181 -2.53894,-2.35444 v -3.29071 h -1.41852 v -1.38995 h 0.70908 c 0.48225,0 0.80857,-0.32631 0.80857,-0.83714 v -1.41816 h 1.71626 v 2.1276 h 1.78682 v 1.51765 h -1.78682 v 3.17712 c 0,0.4826 0.39723,0.8509 0.9077,0.8509 0.42545,0 0.82268,-0.24095 0.82268,-0.24095 z"
       style="fill:#2e2d62;fill-opacity:1;fill-rule:nonzero;stroke:none;stroke-width:0.352778"
       id="path137" />
    <path
       d="m 109.74372,116.52619 h -1.81539 v -7.09225 h 1.81539 z m -2.1276,-9.07803 c 0,-0.68051 0.55315,-1.2058 1.2199,-1.2058 0.65229,0 1.19134,0.52529 1.19134,1.2058 0,0.63852 -0.53905,1.19133 -1.19134,1.19133 -0.66675,0 -1.2199,-0.55281 -1.2199,-1.19133"
       style="fill:#2e2d62;fill-opacity:1;fill-rule:nonzero;stroke:none;stroke-width:0.352778"
       id="path139" />
    <path
       d="m 112.96388,112.08641 h 3.19123 c -0.21273,-0.83679 -0.79411,-1.17722 -1.50354,-1.17722 -0.77999,0 -1.40406,0.43956 -1.68769,1.17722 m 5.06377,1.43298 h -5.17736 c 0.21272,1.07774 1.09184,1.47461 1.85808,1.47461 0.96449,0 1.37583,-0.59548 1.37583,-0.59548 h 1.78717 c -0.53869,1.41816 -1.8295,2.19851 -3.2198,2.19851 -1.91488,0 -3.58846,-1.46086 -3.58846,-3.67383 0,-2.19816 1.65947,-3.56023 3.53166,-3.56023 1.81575,0 3.65972,1.26259 3.43288,4.15642"
       style="fill:#2e2d62;fill-opacity:1;fill-rule:nonzero;stroke:none;stroke-width:0.352778"
       id="path143" />
    <path
       d="m 121.9008,110.8665 c -0.59549,0 -0.8509,0.2981 -0.8509,0.59584 0,0.48225 0.63818,0.62407 1.06398,0.70908 1.26224,0.26988 2.53894,0.65264 2.53894,2.15618 0,1.46086 -1.2058,2.26942 -2.667,2.26942 -1.63089,0 -2.89348,-0.99271 -2.9785,-2.49625 h 1.74448 c 0.0427,0.42545 0.32632,0.97825 1.19169,0.97825 0.72354,0 0.89358,-0.38276 0.89358,-0.68051 0,-0.52493 -0.49636,-0.68086 -0.9786,-0.7941 -0.83679,-0.18486 -2.63843,-0.52529 -2.63843,-2.14207 0,-1.38994 1.3335,-2.09938 2.70933,-2.09938 1.58856,0 2.63843,0.96485 2.72345,2.15618 h -1.74484 c -0.0568,-0.2413 -0.28363,-0.65264 -1.00718,-0.65264"
       style="fill:#2e2d62;fill-opacity:1;fill-rule:nonzero;stroke:none;stroke-width:0.352778"
       id="path147" />
    <path
       d="m 137.44782,113.54751 c -0.56727,1.90077 -2.15582,3.04976 -4.0707,3.04976 -2.59574,0 -4.48204,-2.12795 -4.48204,-5.03555 0,-2.90759 1.87219,-5.03519 4.46793,-5.03519 1.90076,0 3.51754,1.14864 4.08481,3.04941 h -2.14171 c -0.36866,-0.79446 -1.03541,-1.17722 -1.91488,-1.17722 -1.61713,0 -2.53894,1.31903 -2.53894,3.163 0,1.84397 0.93627,3.16301 2.56716,3.16301 0.87948,0 1.518,-0.38276 1.88666,-1.17722 z"
       style="fill:#2e2d62;fill-opacity:1;fill-rule:nonzero;stroke:none;stroke-width:0.352778"
       id="path151" />
    <path
       d="m 143.619,112.9801 c 0,-1.10631 -0.65264,-1.97167 -1.73037,-1.97167 -1.07809,0 -1.80164,0.86536 -1.80164,1.97167 0,1.10631 0.72355,1.97167 1.80164,1.97167 1.07773,0 1.73037,-0.86536 1.73037,-1.97167 m -5.38974,0.0141 c 0,-2.26942 1.7586,-3.63114 3.65937,-3.63114 1.91452,0 3.58845,1.37583 3.58845,3.60292 0,2.25531 -1.73073,3.63114 -3.64525,3.63114 -1.92899,0 -3.60257,-1.37583 -3.60257,-3.60292"
       style="fill:#2e2d62;fill-opacity:1;fill-rule:nonzero;stroke:none;stroke-width:0.352778"
       id="path155" />
    <path
       d="m 153.47783,109.43405 v 7.09224 h -1.41852 l -0.25506,-0.79445 h -0.1845 c -0.28363,0.35454 -0.9077,0.86536 -2.07081,0.86536 -1.8863,0 -2.85115,-1.3335 -2.85115,-3.31928 v -3.84387 h 1.92899 v 3.41806 c 0,0.87983 0.0709,2.09974 1.29082,2.09974 0.62441,0 1.64535,-0.32632 1.64535,-2.18476 v -3.33304 z"
       style="fill:#2e2d62;fill-opacity:1;fill-rule:nonzero;stroke:none;stroke-width:0.352778"
       id="path159" />
    <path
       d="m 161.96104,112.68207 v 3.84387 h -1.88666 v -3.41807 c 0,-0.2413 0.1704,-2.02847 -1.19168,-2.09938 -0.6664,-0.0423 -1.85773,0.32632 -1.85773,2.1844 v 3.33305 h -1.87254 v -7.09189 h 1.44709 l 0.2406,0.86536 h 0.2413 c 0.2981,-0.3549 0.96449,-0.93627 2.15618,-0.93627 1.82985,0 2.72344,1.36172 2.72344,3.31893"
       style="fill:#2e2d62;fill-opacity:1;fill-rule:nonzero;stroke:none;stroke-width:0.352778"
       id="path163" />
    <path
       d="m 166.77004,116.5971 c -1.97167,0 -3.58846,-1.518 -3.58846,-3.60292 0,-2.11314 1.67358,-3.63114 3.65937,-3.63114 1.61713,0 2.99296,1.00718 3.39019,2.667 h -1.92899 c -0.29809,-0.58208 -0.82267,-0.95074 -1.50389,-0.95074 -0.99271,0 -1.78682,0.79446 -1.78682,1.90077 0,1.10631 0.79411,1.90077 1.78682,1.90077 0.63853,0 1.13489,-0.32632 1.4471,-0.8509 h 1.94274 c -0.45367,1.68769 -1.91452,2.56716 -3.41806,2.56716"
       style="fill:#2e2d62;fill-opacity:1;fill-rule:nonzero;stroke:none;stroke-width:0.352778"
       id="path167" />
    <path
       d="m 173.45221,116.52619 h -1.81539 v -7.09225 h 1.81539 z m -2.1276,-9.07803 c 0,-0.68051 0.55316,-1.2058 1.21991,-1.2058 0.65228,0 1.19133,0.52529 1.19133,1.2058 0,0.63852 -0.53905,1.19133 -1.19133,1.19133 -0.66675,0 -1.21991,-0.55281 -1.21991,-1.19133"
       style="fill:#2e2d62;fill-opacity:1;fill-rule:nonzero;stroke:none;stroke-width:0.352778"
       id="path169" />
    <path
       d="m 176.85652,116.52619 h -1.84397 v -10.07075 h 1.84397 z"
       style="fill:#2e2d62;fill-opacity:1;fill-rule:nonzero;stroke:none;stroke-width:0.352778"
       id="path171" />
    <path
       d="M 7.8650299,122.02952 H -42.134869 V 72.029621 H 7.8650299 Z"
       style="fill:#2e2d62;fill-opacity:1;fill-rule:nonzero;stroke:none;stroke-width:0.352778"
       id="path173" />
    <path
       d="m -3.4674621,97.029465 h -7.8373109 v -8.3693 z M -10.30112,112.58873 h -6.833658 v 2.73226 l -4.810125,-6.30378 c 3.662186,-0.67416 5.553427,-2.56787 5.553427,-5.86564 0,-0.81386 -0.116064,-1.53987 -0.344664,-2.18369 h 6.43502 z m -20.501328,-11.62085 h 5.334353 c 2.192867,0 3.081514,0.84984 3.081514,2.18369 0,1.33421 -0.888647,2.21156 -3.081514,2.21156 h -5.334353 z m 13.66767,-9.903182 v 9.045572 c -1.241425,-2.095849 -4.096456,-3.069516 -8.333317,-3.080099 3.780719,-0.383823 7.276042,-2.423937 8.333317,-5.965473 M 2.3625433,77.532143 h -5.8300054 l -7.8373109,8.346017 v -8.346017 h -11.325578 v 11.079339 c 0,2.372078 -1.756127,3.748969 -4.085872,3.748969 -2.329744,0 -4.086225,-1.376891 -4.086225,-3.748969 V 77.532143 h -5.830005 v 11.164006 c 0,4.999919 4.036836,7.868355 8.590491,8.333316 h -8.590491 v 19.497325 h 5.830005 v -7.2256 h 2.546703 l 5.387269,7.2256 H 2.3625433 v -3.93806 h -6.8336582 v -11.62085 h 6.8336582 v -5.143857 l -8.3565998,-8.556624 8.3565998,-8.529461 z"
       style="fill:#ffffff;fill-opacity:1;fill-rule:nonzero;stroke:none;stroke-width:0.352778"
       id="path177" />
    <path
       d="M 12.620298,72.037876 43.763167,112.96327 V 92.418201 H 57.859108 V 72.037876 Z"
       style="fill:#003088;fill-opacity:1;fill-rule:nonzero;stroke:none;stroke-width:0.352778"
       id="path181" />
    <path
       d="M 43.763272,92.418377 V 112.9631 L 12.620403,72.038052 7.8653117,65.764253 v 6.273799 49.991788 H 57.859213 V 92.418377 Z"
       style="fill:#1e5df8;fill-opacity:1;fill-rule:nonzero;stroke:none;stroke-width:0.352778"
       id="path185" />
  </g>
</svg>
