<?xml version="1.0" encoding="UTF-8" standalone="no"?>
<svg
   id="github"
   class="custom-icon"
   version="1.1"
   viewBox="0 0 49 49"
   width="49"
   height="49"
   xmlns="http://www.w3.org/2000/svg"
   xmlns:svg="http://www.w3.org/2000/svg">
  <path
     class="inner-shape"
     style="opacity:1;stroke-width:0.5"
     d="M 24.5,0 C 10.969,0 0,10.969 0,24.5 0,38.031 10.969,49 24.5,49 38.031,49 49,38.031 49,24.5 49,10.969 38.031,0 24.5,0 Z m 14.5495,39.0495 c -1.891,1.891 -4.092,3.375 -6.5415,4.4115 -0.6225,0.263 -1.2545,0.4945 -1.895,0.6935 v -3.672 c 0,-1.93 -0.662,-3.3495 -1.986,-4.2585 0.8295,-0.08 1.591,-0.1915 2.285,-0.335 0.694,-0.1435 1.4275,-0.351 2.201,-0.6225 0.7735,-0.2715 1.4675,-0.5945 2.0815,-0.969 0.614,-0.375 1.2045,-0.8615 1.7705,-1.4595 0.566,-0.598 1.041,-1.276 1.4235,-2.0335 0.3825,-0.7575 0.686,-1.667 0.909,-2.7275 0.223,-1.0605 0.335,-2.229 0.335,-3.505 0,-2.4725 -0.8055,-4.5775 -2.4165,-6.3165 0.7335,-1.914 0.654,-3.9955 -0.239,-6.2445 l -0.5985,-0.0715 c -0.4145,-0.048 -1.1605,0.1275 -2.237,0.5265 -1.0765,0.399 -2.285,1.0525 -3.6245,1.962 -1.8985,-0.5265 -3.868,-0.7895 -5.91,-0.7895 -2.0575,0 -4.0195,0.263 -5.886,0.7895 -0.845,-0.5745 -1.647,-1.0485 -2.4045,-1.4235 -0.7575,-0.375 -1.3635,-0.63 -1.8185,-0.766 -0.4545,-0.1355 -0.877,-0.2195 -1.268,-0.2515 -0.391,-0.032 -0.642,-0.0395 -0.7535,-0.024 -0.1115,0.0155 -0.1915,0.032 -0.239,0.048 -0.8935,2.265 -0.973,4.347 -0.239,6.2445 -1.611,1.7385 -2.4165,3.844 -2.4165,6.3165 0,1.276 0.1115,2.4445 0.335,3.505 0.2235,1.0605 0.5265,1.97 0.909,2.7275 0.3825,0.7575 0.8575,1.4355 1.4235,2.0335 0.566,0.598 1.1565,1.0845 1.7705,1.4595 0.614,0.3755 1.308,0.698 2.0815,0.969 0.7735,0.2715 1.507,0.4785 2.201,0.6225 0.694,0.1435 1.4555,0.2555 2.285,0.335 -1.308,0.8935 -1.962,2.313 -1.962,4.2585 V 44.226 C 17.903,44.011 17.191,43.757 16.4915,43.461 14.042,42.4245 11.841,40.9405 9.95,39.0495 8.059,37.1585 6.575,34.9575 5.5385,32.508 4.467,29.974 3.9235,27.28 3.9235,24.5 c 0,-2.78 0.5435,-5.474 1.6155,-8.008 1.0365,-2.4495 2.5205,-4.6505 4.4115,-6.5415 1.891,-1.891 4.092,-3.375 6.5415,-4.4115 2.534,-1.072 5.228,-1.6155 8.008,-1.6155 2.78,0 5.474,0.5435 8.008,1.6155 2.45,1.0365 4.6505,2.5205 6.5415,4.4115 1.891,1.891 3.375,4.092 4.4115,6.5415 1.0715,2.5345 1.615,5.2285 1.615,8.008 0,2.7795 -0.5435,5.474 -1.6155,8.008 -1.0365,2.4495 -2.5205,4.6505 -4.411,6.5415 z"
     id="path1" />
</svg>
