<?xml version="1.0" encoding="UTF-8" standalone="no"?>
<!-- Created with Inkscape (http://www.inkscape.org/) -->

<svg
   width="52.05471mm"
   height="29.976471mm"
   viewBox="0 0 52.05471 29.976471"
   version="1.1"
   id="svg1"
   xml:space="preserve"
   inkscape:version="1.3 (0e150ed, 2023-07-21)"
   sodipodi:docname="telos-logo-white.svg"
   xmlns:inkscape="http://www.inkscape.org/namespaces/inkscape"
   xmlns:sodipodi="http://sodipodi.sourceforge.net/DTD/sodipodi-0.dtd"
   xmlns="http://www.w3.org/2000/svg"
   xmlns:svg="http://www.w3.org/2000/svg"><sodipodi:namedview
     id="namedview1"
     pagecolor="#ffffff"
     bordercolor="#000000"
     borderopacity="0.25"
     inkscape:showpageshadow="2"
     inkscape:pageopacity="0.0"
     inkscape:pagecheckerboard="0"
     inkscape:deskcolor="#d1d1d1"
     inkscape:document-units="mm"
     inkscape:zoom="1.0590326"
     inkscape:cx="40.603093"
     inkscape:cy="79.317671"
     inkscape:window-width="1512"
     inkscape:window-height="857"
     inkscape:window-x="204"
     inkscape:window-y="25"
     inkscape:window-maximized="0"
     inkscape:current-layer="layer1" /><defs
     id="defs1" /><g
     inkscape:label="Layer 1"
     inkscape:groupmode="layer"
     id="layer1"
     transform="translate(-146.31458,-165.09948)"><path
       id="path34"
       style="color:#000000;fill:#8abbe4;fill-opacity:1;stroke-linecap:round;-inkscape-stroke:none"
       d="m 148.31446,165.09948 a 2,2 0 0 0 -1.99988,1.99988 2,2 0 0 0 1.99988,2.0004 h 2.99982 v 12.86898 c 0,2.56581 -0.0653,5.2206 0.72657,7.6171 0.39594,1.19825 1.05969,2.37574 2.15232,3.22875 1.09262,0.85302 2.53787,1.28519 4.1212,1.28519 h 12.0003 c 1.33334,0 2.42315,-0.96437 2.89026,-1.8402 0.46711,-0.87584 0.60927,-1.76811 0.60927,-2.65978 0,-0.89167 -0.14216,-1.78447 -0.60927,-2.66031 -0.46711,-0.87583 -1.55692,-1.83968 -2.89026,-1.83968 -5.03204,-1e-5 -1.99928,0.12031 -6.97684,0.0605 -0.9179,-0.011 -1.41984,-0.2487 -1.6247,-0.40462 -0.0978,-0.0744 -0.13451,-0.11646 -0.1478,-0.13798 0.0115,-0.018 0.043,-0.0542 0.13798,-0.12557 0.19799,-0.14867 0.69453,-0.37996 1.60714,-0.38292 1.2507,0.002 1.93775,0.002 2.27169,0.002 0.0835,-1.2e-4 0.14585,2.4e-4 0.1912,0 0.0453,-2.5e-4 -0.10818,0.0124 0.17984,-0.006 0.004,-2e-4 0.0109,-0.001 0.0176,-0.002 l 2.34352,-0.005 h 0.004 v -5.2e-4 a 2,2 0 0 0 1.41025,-0.58498 l 2.7621,-2.76262 c 0.34576,1.03105 0.79758,2.39485 1.40974,4.27002 1.2575,3.85207 1.7455,5.92303 3.31814,7.51169 0.78632,0.79433 1.87451,1.24334 2.87889,1.4025 1.00136,0.15867 1.99539,0.14067 3.23857,0.14056 l 3.94136,0.0186 a 2,2 0 0 0 0.0372,0.005 h 0.99013 4.00957 c 1.83333,0 3.29867,-1.27645 4.01578,-2.62103 0.7171,-1.34459 0.98443,-2.8624 0.98443,-4.37906 0,-1.51667 -0.26733,-3.03447 -0.98443,-4.37906 -0.71711,-1.34458 -2.18245,-2.62103 -4.01578,-2.62103 -0.044,0 -0.0671,0.001 -0.0832,0.003 7.2e-4,-0.002 3.4e-4,-0.006 -0.003,-0.009 -0.0247,-0.0318 -0.11105,-0.22726 -0.10749,-0.4625 0.004,-0.23524 0.0988,-0.46001 0.14263,-0.51573 0.008,-0.0106 0.007,-0.015 0.006,-0.0196 a 2,2 0 0 0 0.0444,0.004 h 3.02359 a 2,2 0 0 0 1.99988,-1.99988 2,2 0 0 0 -1.99988,-2.00039 h -3.02359 c -1.29722,0 -2.50516,0.66541 -3.19722,1.54719 -0.69206,0.88179 -0.98043,1.9091 -0.99581,2.92385 -0.0154,1.01476 0.24353,2.06678 0.94517,2.97243 0.70163,0.90564 1.94231,1.5565 3.24786,1.5565 0.16667,0 0.20339,-0.026 0.48627,0.50436 0.28289,0.53041 0.51367,1.51264 0.51367,2.49597 0,0.98333 -0.23078,1.96556 -0.51367,2.49597 -0.28288,0.53042 -0.3196,0.50385 -0.48627,0.50385 h -3.98994 l -4.97489,-0.0233 h -0.004 c -1.25154,0 -2.13694,-0.015 -2.62309,-0.092 -0.48615,-0.077 -0.49994,-0.10349 -0.66043,-0.26562 -0.32098,-0.32425 -1.10338,-2.09125 -2.35902,-5.93762 -1.25908,-3.8569 -1.88268,-5.68746 -2.20349,-6.58771 -0.11241,-0.31545 -0.17981,-0.49462 -0.24184,-0.64906 -0.0372,-0.24683 -0.098,-0.54836 -0.20154,-0.85886 -0.24058,-0.72173 -0.7175,-1.63941 -1.5782,-2.50011 -1.72141,-1.7214 -4.8304,-3.0856 -10.16372,-3.0856 a 2,2 0 0 0 -1.99988,1.99988 2,2 0 0 0 1.99988,1.99988 c 4.66666,0 6.5574,1.13551 7.33599,1.9141 0.23177,0.23177 0.26731,0.37992 0.36328,0.55862 l -3.52692,3.52691 h -0.17259 -1.99988 v 0.005 c -0.43231,-0.003 -0.99012,-0.006 -0.99012,-0.006 a 2,2 0 0 0 -0.009,0.009 l -0.75447,0.002 c -0.0905,-2e-5 -0.10857,2.3e-4 -0.24288,0 -0.91669,-0.002 -1.414,-0.23509 -1.61334,-0.38499 -0.0883,-0.0664 -0.12188,-0.1024 -0.13643,-0.12247 0.0146,-0.0195 0.0475,-0.0542 0.13436,-0.11937 0.19824,-0.14871 0.69459,-0.38292 1.61127,-0.38292 h 3.00034 a 2,2 0 0 0 1.99987,-1.99988 2,2 0 0 0 -1.99987,-2.0004 l -2.99982,5.2e-4 c -1.58331,0 -2.95988,0.39283 -4.01164,1.18184 -1.05176,0.78901 -1.7384,2.02858 -1.7384,3.32021 0,0.9089 0.34064,1.79083 0.90796,2.50941 -0.56547,0.71842 -0.90796,1.59708 -0.90796,2.50424 0,1.29154 0.68137,2.52679 1.72651,3.32228 1.04514,0.79548 2.41766,1.20364 3.99976,1.22266 4.60201,0.0553 2.99855,-0.0383 6.43578,-0.0548 0.0399,0.15136 0.0879,0.26679 0.0879,0.49455 0,0.23054 -0.0496,0.3484 -0.0899,0.49971 h -11.41015 c -0.91666,0 -1.34675,-0.19285 -1.66037,-0.4377 -0.31363,-0.24485 -0.58691,-0.6385 -0.81597,-1.3317 -0.45811,-1.3864 -0.52348,-3.79556 -0.52348,-6.36137 v -12.86898 h 23.00015 a 2,2 0 0 0 1.99988,-2.0004 2,2 0 0 0 -1.99988,-1.99988 z m 35.4614,10.0304 c -0.15087,6.2e-4 -0.30329,0.003 -0.46147,0.003 -0.6327,0 -1.16346,-0.0326 -1.87482,0.12092 -0.71136,0.15349 -1.70594,0.80103 -2.09961,1.59164 -0.78733,1.58123 -0.49402,2.71426 -0.49403,5.1232 v 0.16381 c 0,2.5 -0.27212,3.69643 0.53279,5.28133 0.40244,0.79246 1.3918,1.43624 2.11149,1.5937 0.7197,0.15746 1.25964,0.12506 1.89446,0.12506 0.63482,0 1.17014,0.0348 1.89291,-0.12661 0.72278,-0.16146 1.71658,-0.8418 2.09548,-1.63711 0.7578,-1.5906 0.47284,-2.74685 0.47284,-5.23637 0,-2.5 0.27038,-3.69352 -0.53124,-5.2772 -0.4008,-0.79183 -1.38833,-1.43936 -2.10788,-1.59731 -0.53966,-0.11847 -0.9783,-0.13002 -1.43092,-0.12816 z m -0.46147,4.00286 c 0.271,0 0.26956,0.007 0.44339,0.0139 -0.0519,0.0991 0.0879,0.83528 0.0879,2.98638 0,2.13392 -0.11866,2.8576 -0.0724,2.98793 -0.1648,0.006 -0.14659,0.0119 -0.38861,0.0119 -0.27632,0 -0.27753,-0.007 -0.4532,-0.014 0.0527,-0.0968 -0.0858,-0.83407 -0.0858,-2.98638 v -0.16381 c 10e-6,-2.05142 0.119,-2.71661 0.0646,-2.82412 0.16764,-0.006 0.15607,-0.0119 0.40411,-0.0119 z m -21.75629,0.44906 c 0.001,0.001 0.003,0.007 0.004,0.0119 -0.006,-0.01 -0.007,-0.0141 -0.004,-0.0119 z m 0.004,0.0279 c -0.004,0.0113 -0.009,0.0144 0,0 z m -0.003,4.98987 c 0.002,7.5e-4 0.006,0.006 0.006,0.0155 l -5.2e-4,5.1e-4 c -0.007,-0.0113 -0.007,-0.0168 -0.005,-0.016 z" /><path
       id="path34-4"
       style="color:#000000;fill:#ffffff;fill-opacity:1;stroke-linecap:round;-inkscape-stroke:none"
       d="m 149.34592,166.07617 a 2,2 0 0 0 -2.00039,1.99988 2,2 0 0 0 2.00039,1.99987 h 2.99982 v 12.8695 c 0,2.56581 -0.0674,5.2206 0.7245,7.61711 0.39595,1.19825 1.06176,2.37572 2.15439,3.22874 1.09262,0.85301 2.53787,1.28468 4.1212,1.28468 h 11.99978 c 1.33334,0 2.42161,-0.96385 2.88872,-1.83968 0.46712,-0.87583 0.61133,-1.76864 0.61133,-2.66031 0,-0.89165 -0.14421,-1.78395 -0.61133,-2.65978 -0.46711,-0.87584 -1.55538,-1.8402 -2.88872,-1.8402 -5.03203,-10e-6 -1.99876,0.12073 -6.97631,0.061 -0.9179,-0.011 -1.42037,-0.2487 -1.62523,-0.40463 -0.0978,-0.0744 -0.13399,-0.11645 -0.14728,-0.13797 0.0115,-0.018 0.0425,-0.0543 0.13746,-0.12558 0.19799,-0.14865 0.69505,-0.37997 1.60766,-0.38292 1.25071,0.002 1.93724,0.002 2.27118,0.002 0.0835,-1.1e-4 0.14431,2.5e-4 0.18965,0 0.0454,-2.5e-4 -0.10664,0.0119 0.18138,-0.006 0.003,-1.4e-4 0.008,-7e-4 0.0124,-0.001 l 2.34921,-0.005 h 0.004 v -5.2e-4 a 2,2 0 0 0 1.40973,-0.58549 l 2.76211,-2.76159 c 0.34621,1.03101 0.79818,2.3946 1.41025,4.26951 1.2575,3.85206 1.7455,5.92302 3.31814,7.51169 0.78632,0.79432 1.87451,1.24333 2.8789,1.40249 1.00196,0.15877 1.99381,0.14065 3.23804,0.14056 l 3.94188,0.0186 a 2,2 0 0 0 0.0367,0.005 h 0.99064 4.00957 c 1.83333,0 3.2966,-1.27645 4.01371,-2.62103 0.71712,-1.34458 0.98599,-2.86188 0.98599,-4.37854 0,-1.51666 -0.26887,-3.03449 -0.98599,-4.37907 -0.71711,-1.34458 -2.18038,-2.62102 -4.01371,-2.62102 -0.044,0 -0.0671,0.001 -0.0832,0.003 9.1e-4,-0.002 4.9e-4,-0.005 -0.003,-0.009 -0.0247,-0.0319 -0.11105,-0.22778 -0.10749,-0.46302 0.004,-0.23524 0.0988,-0.45949 0.14263,-0.51521 0.008,-0.0104 0.007,-0.015 0.006,-0.0196 a 2,2 0 0 0 0.0444,0.004 h 3.02307 a 2,2 0 0 0 2.0004,-2.0004 2,2 0 0 0 -2.0004,-1.99988 h -3.02307 c -1.29722,0 -2.50516,0.66542 -3.19722,1.5472 -0.69206,0.88178 -0.98093,1.9091 -0.99632,2.92385 -0.0154,1.01476 0.24352,2.06678 0.94516,2.97243 0.70163,0.90565 1.94283,1.55649 3.24838,1.55649 0.16667,0 0.20132,-0.0266 0.48421,0.50385 0.28289,0.53041 0.51573,1.51316 0.51573,2.49649 0,0.98332 -0.23284,1.96555 -0.51573,2.49597 -0.28289,0.53041 -0.31754,0.50384 -0.48421,0.50384 h -3.99045 l -4.97438,-0.0232 h -0.006 c -1.25156,0 -2.13488,-0.015 -2.62103,-0.092 -0.48616,-0.077 -0.49941,-0.10348 -0.6599,-0.26561 -0.32098,-0.32425 -1.10597,-2.09126 -2.36162,-5.93763 -1.25908,-3.85689 -1.88215,-5.68746 -2.20296,-6.58771 -0.11267,-0.31614 -0.17977,-0.49599 -0.24133,-0.6506 -0.0377,-0.24656 -0.0988,-0.54747 -0.20206,-0.85732 -0.24058,-0.72172 -0.71543,-1.6394 -1.57613,-2.5001 -1.72141,-1.7214 -4.83091,-3.0856 -10.16424,-3.0856 a 2,2 0 0 0 -1.99987,1.99988 2,2 0 0 0 1.99987,1.99988 c 4.66667,0 6.5574,1.1355 7.33599,1.91409 0.23199,0.232 0.26732,0.37981 0.36329,0.55862 l -3.5264,3.52692 h -0.1726 -2.0004 v 0.005 c -0.433,-0.003 -0.99167,-0.006 -0.99167,-0.006 a 2,2 0 0 0 -0.009,0.009 l -0.75241,0.002 c -0.0904,-2e-5 -0.10866,2.2e-4 -0.24288,0 h -0.002 c -0.91469,-0.002 -1.41422,-0.23526 -1.61334,-0.38499 -0.0881,-0.0663 -0.12119,-0.10236 -0.13539,-0.12248 0.0142,-0.0195 0.0465,-0.0548 0.13333,-0.11988 0.19824,-0.14871 0.69666,-0.38241 1.61333,-0.38241 h 2.99982 a 2,2 0 0 0 2.0004,-2.00039 2,2 0 0 0 -2.0004,-1.99988 l -2.99982,5.1e-4 c -1.5833,0 -2.96195,0.39284 -4.0137,1.18184 -1.05176,0.78901 -1.73633,2.02859 -1.73633,3.32021 0,0.90953 0.34,1.79212 0.90744,2.51096 -0.56478,0.71816 -0.90744,1.59615 -0.90744,2.50269 0,1.29153 0.68137,2.52679 1.72651,3.32228 1.04514,0.79549 2.4161,1.20364 3.9982,1.22266 4.60075,0.0553 3.00259,-0.0382 6.43579,-0.0548 0.0399,0.15136 0.0894,0.2662 0.0894,0.49402 0,0.23044 -0.0492,0.34892 -0.0894,0.50023 h -11.41016 c -0.91666,0 -1.34674,-0.19285 -1.66036,-0.4377 -0.31363,-0.24484 -0.58743,-0.63643 -0.81649,-1.32963 -0.45811,-1.38639 -0.52348,-3.79763 -0.52348,-6.36344 v -12.8695 h 23.00014 a 2,2 0 0 0 1.99988,-1.99987 2,2 0 0 0 -1.99988,-1.99988 z m 34.54001,10.03039 c -0.44959,-0.002 -0.88189,0.009 -1.41541,0.12403 -0.71136,0.15349 -1.70595,0.80101 -2.09962,1.59163 -0.78733,1.58123 -0.49401,2.71426 -0.49402,5.1232 v 0.16382 c 0,2.49999 -0.27161,3.69643 0.5333,5.28133 0.40245,0.79246 1.38974,1.43625 2.10943,1.5937 0.71969,0.15746 1.2617,0.12506 1.89652,0.12506 0.63482,0 1.16756,0.0364 1.89033,-0.12506 0.72278,-0.16146 1.71916,-0.84335 2.09806,-1.63866 0.7578,-1.59061 0.47232,-2.74686 0.47232,-5.23637 0,-2.5 0.26832,-3.69352 -0.5333,-5.2772 -0.40081,-0.79184 -1.38781,-1.43989 -2.10736,-1.59784 -0.71955,-0.15794 -1.25761,-0.12505 -1.89033,-0.12505 -0.15817,0 -0.31005,-0.002 -0.45992,-0.003 z m 0.45992,4.00286 c 0.27151,0 0.26945,0.007 0.44339,0.0134 -0.0519,0.0991 0.0879,0.83527 0.0879,2.98638 0,2.13392 -0.11866,2.85811 -0.0724,2.98844 -0.1648,0.006 -0.14659,0.0119 -0.38861,0.0119 -0.27632,0 -0.27753,-0.007 -0.4532,-0.0139 0.0527,-0.0968 -0.0858,-0.83407 -0.0858,-2.98638 v -0.16382 c 1e-5,-2.05142 0.11699,-2.71659 0.0625,-2.82411 0.16801,-0.006 0.15694,-0.0119 0.40617,-0.0119 z m -21.75681,0.44907 c 0.002,0.001 0.003,0.008 0.004,0.0129 -0.006,-0.0103 -0.007,-0.0152 -0.004,-0.0129 z m 0.004,0.0269 c -0.004,0.0122 -0.01,0.0153 0,0 z m -0.003,4.99091 c 0.002,7.5e-4 0.006,0.006 0.006,0.0155 l -5.2e-4,5.2e-4 c -0.007,-0.0113 -0.007,-0.0168 -0.005,-0.016 z" /></g></svg>
